<?xml version="1.0" encoding="utf-8"?>
<!-- Generator: Adobe Illustrator 24.1.1, SVG Export Plug-In . SVG Version: 6.00 Build 0)  -->
<svg version="1.1" id="Layer_1" xmlns="http://www.w3.org/2000/svg" xmlns:xlink="http://www.w3.org/1999/xlink" x="0px" y="0px"
	 viewBox="0 0 496 496" style="enable-background:new 0 0 496 496;" xml:space="preserve">
<style type="text/css">
	.st0{fill:#F7F7F7;}
	.st1{fill:#A3A3A3;}
</style>
<circle class="st0" cx="297" cy="261.1" r="186.6"/>
<path class="st1" d="M434.1,311.9l-29-4.1c-1.8-0.3-3.4-1.2-4.5-2.7l-21.6-30.2c-6.1-8.6-16.1-13.8-26.7-13.8h-25.9
	c28.5-18.6,45.9-50.1,45.9-84.7v-4.2l30.8-30.8L394,132l-21.6,21.6v-6.4l-23.1,7.7c-9.6,3.2-20.9,0.5-28.1-6.6l-1.2-1.2V45H127.4
	L45,127.4V451h275v-65.5h13.8c3,14.9,16.3,26.2,32.1,26.2s29-11.3,32.1-26.2h33.4c10.8,0,19.6-8.8,19.6-19.6v-34.5
	C451,321.6,443.9,313.4,434.1,311.9z M353.5,167.3l5.8-1.9v1.3l-45.8,45.8l-15-15l-9.3,9.3l24.3,24.3l45.3-45.3
	c-3,28.7-19.7,54-45.3,67.9c-28.4-15.5-45.8-44.8-45.8-77.3v-11l5.8,1.9c13.6,4.6,29.4,1.2,40.1-8.3
	C324.1,168.5,340.1,171.9,353.5,167.3z M123.6,67.4v56.2H67.4L123.6,67.4z M306.9,437.9H58.1V136.7h78.6V58.1h170.3v89l-1.2,1.2
	c-7.1,7.2-18.4,9.9-28.1,6.6l-23-7.6v29.1c0,34.7,17.3,66.2,45.9,84.7h-31.9c-11,0-21.2,5.4-27.3,14.6l-15.8,23.7
	c-0.9,1.3-2.1,2.2-3.6,2.7l-51.6,15.5c-8.4,2.6-14,10.1-14,18.8v29.5c0,10.8,8.8,19.6,19.6,19.6h33.4c3,14.9,16.3,26.2,32.1,26.2
	s29-11.3,32.1-26.2h33.4V437.9z M221.8,379c0-10.8,8.8-19.6,19.6-19.6s19.6,8.8,19.6,19.6s-8.8,19.6-19.6,19.6
	S221.8,389.8,221.8,379z M365.9,398.6c-10.8,0-19.6-8.8-19.6-19.6s8.8-19.6,19.6-19.6s19.6,8.8,19.6,19.6S376.7,398.6,365.9,398.6z
	 M437.9,365.9c0,3.6-2.9,6.5-6.5,6.5H398c-3-14.9-16.3-26.2-32.1-26.2s-29,11.3-32.1,26.2h-60.3c-3-14.9-16.3-26.2-32.1-26.2
	s-29,11.3-32.1,26.2H176c-3.6,0-6.5-2.9-6.5-6.5v-29.5c0-2.9,1.9-5.4,4.7-6.3l51.7-15.5c4.4-1.4,8.1-4.1,10.6-7.9l15.8-23.7
	c3.6-5.5,9.8-8.7,16.4-8.7h83.8c6.4,0,12.4,3.1,16,8.3l21.6,30.2c3.1,4.3,7.9,7.3,13.3,8.1l28.9,4.1c3.3,0.5,5.7,3.2,5.7,6.5V365.9z
	"/>
<path class="st1" d="M234.9,372.4H248v13.1h-13.1V372.4z"/>
<path class="st1" d="M359.3,372.4h13.1v13.1h-13.1V372.4z"/>
<path class="st1" d="M263.6,287.3L244,326.6h132.5l-19.6-39.3H263.6z M265.1,313.5l6.5-13.1h77l6.5,13.1H265.1z"/>
<path class="st1" d="M293.8,71.2H149.8v65.5h144.1V71.2z M280.7,123.6H162.9V84.3h117.9V123.6z"/>
<path class="st1" d="M215.3,97.4h13.1v13.1h-13.1V97.4z"/>
<path class="st1" d="M241.5,97.4h13.1v13.1h-13.1V97.4z"/>
<path class="st1" d="M189.1,97.4h13.1v13.1h-13.1V97.4z"/>
<path class="st1" d="M71.2,149.8h150.6v13.1H71.2V149.8z"/>
<path class="st1" d="M71.2,202.2h150.6v13.1H71.2V202.2z"/>
<path class="st1" d="M162.9,176h58.9v13.1h-58.9V176z"/>
<path class="st1" d="M71.2,176h78.6v13.1H71.2V176z"/>
<path class="st1" d="M71.2,228.4h150.6v13.1H71.2V228.4z"/>
<path class="st1" d="M71.2,254.5h150.6v13.1H71.2V254.5z"/>
<path class="st1" d="M170.5,402.5c-3.1-7.2-7.4-17-17.5-17c-10,0-14.3,9.9-17.5,17.1c-1.1,2.5-4,9.1-5.4,9.1c-1.5,0-4.3-6.4-5.5-9.2
	c-3.1-7.2-7.5-17-17.5-17c-10,0-14.3,9.8-17.5,17c-1.2,2.7-4,9.2-5.5,9.2H71.2v13.1h13.1c10,0,14.3-9.8,17.5-17
	c1.2-2.7,4-9.2,5.5-9.2s4.3,6.4,5.5,9.1c3.2,7.2,7.5,17,17.5,17c10,0,14.3-9.8,17.4-17c1.2-2.7,4-9.2,5.5-9.2c1.4,0,4.3,6.4,5.5,9.2
	c3.1,7.2,7.4,17,17.5,17h13.1v-13.1H176C174.5,411.7,171.7,405.3,170.5,402.5z"/>
<path class="st1" d="M202.2,411.7h13.1v13.1h-13.1V411.7z"/>
</svg>
