<?xml version="1.0" encoding="utf-8"?>
<!-- Generator: Adobe Illustrator 24.1.1, SVG Export Plug-In . SVG Version: 6.00 Build 0)  -->
<svg version="1.1" id="Layer_1" xmlns="http://www.w3.org/2000/svg" xmlns:xlink="http://www.w3.org/1999/xlink" x="0px" y="0px"
	 viewBox="0 0 512 512" style="enable-background:new 0 0 512 512;" xml:space="preserve">
<style type="text/css">
	.st0{fill:#F7F7F7;}
	.st1{fill:#A3A3A3;}
</style>
<circle class="st0" cx="286" cy="298.7" r="186.6"/>
<g id="Outline">
	<path class="st1" d="M146.8,202c33.4,0,60.4-27.1,60.4-60.4s-27.1-60.4-60.4-60.4s-60.4,27.1-60.4,60.4
		C86.4,174.9,113.4,202,146.8,202z M146.8,93.2c26.7,0,48.4,21.6,48.4,48.4s-21.6,48.4-48.4,48.4s-48.4-21.6-48.4-48.4
		C98.4,114.9,120.1,93.2,146.8,93.2z"/>
	<rect x="140.7" y="244.3" class="st1" width="12.1" height="12.1"/>
	<path class="st1" d="M389.2,244.4c-26.7-2.9-52.7-10.9-76.4-23.5c-1.8-0.9-3.9-0.9-5.7,0c-23.7,12.6-49.7,20.6-76.4,23.5
		c-3.1,0.3-5.4,2.9-5.4,6V322c0.3,53.4,32.8,101.3,82.3,121.4c1.5,0.6,3.2,0.6,4.7,0c49.5-20.1,82-68,82.3-121.4v-71.6
		C394.6,247.3,392.3,244.7,389.2,244.4z M382.5,322c-0.3,47.6-28.8,90.5-72.5,109.2c-43.7-18.8-72.2-61.6-72.5-109.2v-66.2
		c25.3-3.4,49.8-11,72.5-22.7c22.7,11.7,47.2,19.3,72.5,22.7V322z"/>
	<path class="st1" d="M259.3,318.1l-8.6,8.6l36.3,36.3c2.4,2.4,6.2,2.4,8.5,0l72.5-72.5l-8.5-8.6l-68.2,68.3L259.3,318.1z"/>
	<path class="st1" d="M183,304.8h-27.5l-45.2-86.9c25.6,12,55.6,10.6,80-3.7h10.9c13.9,0,27.1,6.1,36.2,16.6c4.5-0.7,9-1.6,13.4-2.6
		C239.6,211.8,221,202,201.2,202h-12.6c-1.1,0-2.3,0.3-3.2,0.9c-23.7,14.6-53.5,14.6-77.2,0c-1-0.6-2.1-0.9-3.2-0.9H92.4
		c-33.4,0-60.4,27.1-60.4,60.4V335c0,16.7,13.5,30.2,30.2,30.2h18.1v54.4h12.1v-54.4H183c16.7,0,30.2-13.5,30.2-30.2
		C213.2,318.3,199.7,304.8,183,304.8z M62.1,353.1c-10,0-18.1-8.1-18.1-18.1v-72.5c0-11.4,4-22.4,11.4-31.1l38.2,73.4H80.3v12.1
		h19.5l18.9,36.3H62.1z M132.3,353.1L64.6,222.9c8.1-5.7,17.8-8.8,27.8-8.8h2.4l72.3,139H132.3z M183,353.1h-2.4l-18.9-36.3H183
		c10,0,18.1,8.1,18.1,18.1C201.2,345,193,353.1,183,353.1z"/>
</g>
</svg>
