<?xml version="1.0" encoding="UTF-8"?>
<svg xmlns="http://www.w3.org/2000/svg" xmlns:xlink="http://www.w3.org/1999/xlink" width="512" height="512" viewBox="0 0 60 60" version="1.1"><!-- Generator: Sketch 51.3 (57544) - http://www.bohemiancoding.com/sketch --><title>015 - Car Insurance</title><desc>Created with Sketch.</desc><defs/><g id="Page-1" stroke="none" stroke-width="1" fill="none" fill-rule="evenodd"><g id="015---Car-Insurance" fill="#000000" fill-rule="nonzero"><path d="M3.191,26.213 C2.10705255,26.213113 1.09747658,26.764155 0.511037621,27.6757642 C-0.0754013398,28.5873735 -0.158292315,29.7345526 0.291,30.721 L4.21,39.342 C4.7387119,40.509062 5.47422588,41.5708311 6.381,42.476 L12.544,48.64 C12.19618,49.0075717 12.0016281,49.4939516 12,50 L12,58 C12,59.1045695 12.8954305,60 14,60 L25,60 C26.1045695,60 27,59.1045695 27,58 L27,50 C27,48.8954305 26.1045695,48 25,48 L25,46.139 C25.0306399,43.7706727 24.2579711,41.4618312 22.808,39.589 C21.9578989,38.470916 20.7993346,37.6258906 19.475,37.158 C17.3688382,36.273094 15.4318729,35.0300529 13.75,33.484 C12.1888463,32.1982345 9.97101938,32.0829806 8.285,33.2 L6.122,28.146 C5.61998995,26.9730722 4.46684225,26.2125692 3.191,26.213 Z M25,58 L14,58 L14,50 L25,50 L25,58 Z M9.042,37.876 L13.61,42.445 C13.8610745,42.7049566 14.2328779,42.8092126 14.5825073,42.7176972 C14.9321368,42.6261817 15.2051817,42.3531368 15.2966972,42.0035073 C15.3882126,41.6538779 15.2839566,41.2820745 15.024,41.031 L10.456,36.462 C9.99666328,36.0037722 9.5836624,35.5013381 9.223,34.962 C10.1833362,34.2230209 11.5268309,34.2454194 12.462,35.016 C14.3313425,36.731555 16.4918904,38.0996763 18.842,39.056 C19.7996453,39.4044679 20.6352544,40.0239652 21.247,40.839 C22.412398,42.3573757 23.0301832,44.2251802 23,46.139 L23,48 L14.731,48 L7.793,41.062 C7.05613326,40.3261769 6.45820511,39.463331 6.028,38.515 L2.109,29.894 C1.94175327,29.5260467 1.97287988,29.0983304 2.19163714,28.7584681 C2.41039441,28.4186059 2.78682049,28.2131465 3.191,28.213 C3.66664654,28.2126156 4.09651136,28.4964366 4.283,28.934 L6.52,34.151 C7.11402167,35.5429028 7.97024427,36.8075456 9.042,37.876 Z" id="Shape"/><path d="M22,53 L21,53 C20.4477153,53 20,53.4477153 20,54 C20,54.5522847 20.4477153,55 21,55 L22,55 C22.5522847,55 23,54.5522847 23,54 C23,53.4477153 22.5522847,53 22,53 Z" id="Shape"/><path d="M55.792,39.343 L59.712,30.721 C60.4230666,29.1102615 59.6937385,27.2280666 58.083,26.517 C56.4722615,25.8059334 54.5900666,26.5352615 53.879,28.146 L51.721,33.181 C50.0293913,32.0684876 47.8098239,32.1901967 46.25,33.481 C44.5681271,35.0270529 42.6311618,36.270094 40.525,37.155 C39.2006654,37.6228906 38.0421011,38.467916 37.192,39.586 C35.741385,41.4596396 34.9686796,43.7696481 35,46.139 L35,48 C33.8954305,48 33,48.8954305 33,50 L33,58 C33,59.1045695 33.8954305,60 35,60 L46,60 C47.1045695,60 48,59.1045695 48,58 L48,50 C47.9989451,49.4940301 47.8047151,49.0075607 47.457,48.64 L53.621,42.476 C54.5271174,41.5706634 55.2625517,40.509348 55.792,39.343 Z M46,58 L35,58 L35,50 L46,50 L46,58 Z M45.269,48 L37,48 L37,46.139 C36.9698168,44.2251802 37.587602,42.3573757 38.753,40.839 C39.3635264,40.0248642 40.1972635,39.4054671 41.153,39.056 C43.5037451,38.0998815 45.6647122,36.7313706 47.534,35.015 C48.4694549,34.2455434 49.81232,34.2239779 50.772,34.963 C50.4121315,35.5023678 49.9997905,36.0048142 49.541,36.463 L44.972,41.032 C44.5930278,41.4243789 44.5984476,42.0480848 44.9841814,42.4338186 C45.3699152,42.8195524 45.9936211,42.8249722 46.386,42.446 L50.955,37.877 C52.025897,36.8080447 52.8817066,35.5435105 53.476,34.152 L55.713,28.934 C55.90015,28.496671 56.3303096,28.2133087 56.806,28.214 C57.209904,28.2143006 57.5860345,28.4196257 57.8047347,28.7591971 C58.0234348,29.0987685 58.0547931,29.5261433 57.888,29.894 L53.968,38.516 C53.5375655,39.4642009 52.9396643,40.3270078 52.203,41.063 L45.269,48 Z" id="Shape"/><path d="M39,53 L38,53 C37.4477153,53 37,53.4477153 37,54 C37,54.5522847 37.4477153,55 38,55 L39,55 C39.5522847,55 40,54.5522847 40,54 C40,53.4477153 39.5522847,53 39,53 Z" id="Shape"/><path d="M49,10 L45.677,10 L42.432,1.886 C41.9793398,0.744389705 40.8740719,-0.00382826958 39.646,4.4408921e-16 L22.354,4.4408921e-16 C21.1259281,-0.00382826958 20.0206602,0.744389705 19.568,1.886 L16.323,10 L11,10 C8.790861,10 7,11.790861 7,14 L7,19 C7,20.6568542 8.34314575,22 10,22 L12.09,22 C12.5753307,24.8857455 15.0737271,26.9990438 18,26.9990438 C20.9262729,26.9990438 23.4246693,24.8857455 23.91,22 L35.09,22 C35.5753307,24.8857455 38.0737271,26.9990438 41,26.9990438 C43.9262729,26.9990438 46.4246693,24.8857455 46.91,22 L50,22 C51.6568542,22 53,20.6568542 53,19 L53,14 C53,11.790861 51.209139,10 49,10 Z M51,14 L50,14 C49.4477153,14 49,13.5522847 49,13 L49,12 C50.1045695,12 51,12.8954305 51,14 Z M40.574,2.629 L43.523,10 L31,10 L31,1.99999401 L39.646,2 C40.0553399,1.99858429 40.4236906,2.24825303 40.574,2.629 Z M21.426,2.629 C21.5763094,2.24825303 21.9446601,1.99858429 22.354,2 L29,1.99999401 L29,10 L18.477,10 L21.426,2.629 Z M11,12 L11,13 C11,13.5522847 10.5522847,14 10,14 L9,14 C9,12.8954305 9.8954305,12 11,12 Z M18,25 C15.790861,25 14,23.209139 14,21 C14,18.790861 15.790861,17 18,17 C20.209139,17 22,18.790861 22,21 C22,23.209139 20.209139,25 18,25 Z M41,25 C38.790861,25 37,23.209139 37,21 C37,18.790861 38.790861,17 41,17 C43.209139,17 45,18.790861 45,21 C45,23.209139 43.209139,25 41,25 Z M50,20 L46.91,20 C46.4246693,17.1142545 43.9262729,15.0009562 41,15.0009562 C38.0737271,15.0009562 35.5753307,17.1142545 35.09,20 L31,20 L31,15 C31,14.4477153 30.5522847,14 30,14 C29.4477153,14 29,14.4477153 29,15 L29,20 L23.91,20 C23.4246693,17.1142545 20.9262729,15.0009562 18,15.0009562 C15.0737271,15.0009562 12.5753307,17.1142545 12.09,20 L10,20 C9.44771525,20 9,19.5522847 9,19 L9,16 L10,16 C11.6568542,16 13,14.6568542 13,13 L13,12 L47,12 L47,13 C47,14.6568542 48.3431458,16 50,16 L51,16 L51,19 C51,19.5522847 50.5522847,20 50,20 Z" id="Shape"/><circle id="Oval" cx="18" cy="21" r="1"/><circle id="Oval" cx="41" cy="21" r="1"/></g></g></svg>
