<svg id="Layer_1" data-name="Layer 1" xmlns="http://www.w3.org/2000/svg" viewBox="0 0 366.44 234.48"><defs><style>.cls-1,.cls-14{fill:#f9f9f9;}.cls-2{fill:#515051;}.cls-3,.cls-6,.cls-8{fill:#243762;}.cls-3{opacity:0.29;}.cls-4{fill:#f7a9b4;}.cls-5{fill:#ededed;}.cls-7{fill:#fff;}.cls-8{opacity:0.15;}.cls-9{fill:#e5e5e5;}.cls-10,.cls-11{fill:#ecf1f7;}.cls-10{opacity:0.44;}.cls-12{fill:#c4c4c4;opacity:0.38;}.cls-13{fill:none;stroke:#606060;stroke-linecap:round;stroke-width:5px;}.cls-13,.cls-14{stroke-miterlimit:10;}.cls-14{stroke:#515051;stroke-width:3px;}</style></defs><path class="cls-1" d="M701.79,599.75l-184.19-.3a6.41,6.41,0,0,1-6.4-6.42l.19-118a.34.34,0,0,1,.34-.34L708,475a.34.34,0,0,1,.34.34l-.19,118A6.37,6.37,0,0,1,701.79,599.75Z" transform="translate(-412.94 -400.55)"/><path class="cls-2" d="M516.77,600.29a7.31,7.31,0,0,1-6.46-7.26l.19-118a1.23,1.23,0,0,1,1.23-1.23l196.29.32a1.22,1.22,0,0,1,1.23,1.23l-.19,118a7.27,7.27,0,0,1-7.27,7.24l-184.2-.3A7.52,7.52,0,0,1,516.77,600.29Zm-4.49-124.71L512.09,593a5.52,5.52,0,0,0,5.51,5.53l184.19.29v0a5.46,5.46,0,0,0,5.48-5.46l.19-117.49Z" transform="translate(-412.94 -400.55)"/><path class="cls-3" d="M693.27,598.77l-166.78,1.69c-3.54,0,58.89-63.62,58.9-67.16l-74-58.27a.34.34,0,0,1,.34-.34L708,475a.34.34,0,0,1,.34.34l-73.8,58C634.56,536.9,696.78,598.78,693.27,598.77Z" transform="translate(-412.94 -400.55)"/><path class="cls-4" d="M511.73,474.69l89.2-70.09a14.66,14.66,0,0,1,18.14,0l88.49,70a.2.2,0,0,1-.13.36l-196-.32" transform="translate(-412.94 -400.55)"/><path class="cls-2" d="M511.39,475.58v-1.32l-.21-.27.21-.17v0h0l89-69.9a15.48,15.48,0,0,1,19.24,0L708.11,474a1.09,1.09,0,0,1-.67,1.95Zm100.16-73.16a13.72,13.72,0,0,0-10.07,2.88L514.3,473.81l191.15.31L618.52,405.3A13.8,13.8,0,0,0,611.55,402.42Z" transform="translate(-412.94 -400.55)"/><path class="cls-5" d="M514.19,473.77l87-68.33a14.29,14.29,0,0,1,17.68,0l86.27,68.29a.2.2,0,0,1-.13.35l-191.11-.31" transform="translate(-412.94 -400.55)"/><path class="cls-4" d="M596.46,522.19l-69.82,76.93,166.56.27-69.57-77.15A18.33,18.33,0,0,0,596.46,522.19Z" transform="translate(-412.94 -400.55)"/><path class="cls-6" d="M524.63,600l71.17-78.42.66.6-.66-.6a19.22,19.22,0,0,1,28.49,0l70.92,78.65ZM612,517.19a18.06,18.06,0,0,0-2-.11,17.42,17.42,0,0,0-12.92,5.71l-68.48,75.44,162.54.27L623,522.83A17.46,17.46,0,0,0,612,517.19Z" transform="translate(-412.94 -400.55)"/><path class="cls-7" d="M528.08,418.39l128.29.21c8.41,0,15.22,5.94,15.21,13.24L671.46,505l-38.93,28.35-47.14-.08-42.69-34,.12-70.9Z" transform="translate(-412.94 -400.55)"/><path class="cls-6" d="M585.08,534.19l-43.27-34.47.11-70.86L531,417.51l125.37.2a17.32,17.32,0,0,1,11.35,4.11,13.21,13.21,0,0,1,4.75,10l-.12,73.63-39.53,28.79Zm-41.49-35.33,42.11,33.55,46.54.08,38.33-27.91.11-72.74a11.43,11.43,0,0,0-4.13-8.68,15.51,15.51,0,0,0-10.18-3.67L531,419.29l12.72,8.62Z" transform="translate(-412.94 -400.55)"/><path class="cls-8" d="M597.29,515l-70.65,84.16,166.56.27L624.45,515A18.31,18.31,0,0,0,597.29,515Z" transform="translate(-412.94 -400.55)"/><path class="cls-9" d="M596.46,522.19l-69.82,76.93,166.56.27-69.57-77.15A18.33,18.33,0,0,0,596.46,522.19Z" transform="translate(-412.94 -400.55)"/><path class="cls-2" d="M524.63,600l71.17-78.42.66.6-.66-.6a19.22,19.22,0,0,1,28.49,0l70.92,78.65ZM612,517.19a18.06,18.06,0,0,0-2-.11,17.42,17.42,0,0,0-12.92,5.71l-68.48,75.44,162.54.27L623,522.83A17.46,17.46,0,0,0,612,517.19Z" transform="translate(-412.94 -400.55)"/><path class="cls-10" d="M600.18,541.41l-51.28,56.5,122.32.2-51.09-56.67A13.46,13.46,0,0,0,600.18,541.41Z" transform="translate(-412.94 -400.55)"/><line class="cls-4" x1="98.84" y1="74.31" x2="172.45" y2="132.75"/><rect class="cls-2" x="547.69" y="457.09" width="1.78" height="93.99" transform="translate(-600.25 219.71) rotate(-51.55)"/><line class="cls-4" x1="295.42" y1="74.63" x2="221.62" y2="132.83"/><rect class="cls-2" x="624.47" y="503.39" width="93.99" height="1.78" transform="translate(-580.98 123.85) rotate(-38.28)"/><path class="cls-11" d="M542.64,461.05l-22.39,0,0-31.94A10.69,10.69,0,0,1,531,418.4h1a10.69,10.69,0,0,1,10.67,10.7Z" transform="translate(-412.94 -400.55)"/><path class="cls-6" d="M519.35,461.9l.06-32.83A11.56,11.56,0,0,1,531,417.51h1a11.57,11.57,0,0,1,11.56,11.6l-.05,32.83Zm13.79-42.54a10.52,10.52,0,0,0-1.12-.07h-1a9.8,9.8,0,0,0-9.81,9.78l-.05,31.05,20.61,0,0-31.06a9.79,9.79,0,0,0-8.66-9.74Z" transform="translate(-412.94 -400.55)"/><path class="cls-6" d="M559.52,446.35a.91.91,0,0,1-.79-.89.89.89,0,0,1,.9-.89l93,.15a.89.89,0,0,1,0,1.78l-93-.15Z" transform="translate(-412.94 -400.55)"/><path class="cls-6" d="M559.47,478a.91.91,0,0,1-.79-.89.89.89,0,0,1,.9-.89l92.95.15a.89.89,0,0,1,0,1.78l-93-.15Z" transform="translate(-412.94 -400.55)"/><path class="cls-6" d="M559.5,462a.89.89,0,0,1,.1-1.77l40.17.06a.9.9,0,0,1,.89.89.89.89,0,0,1-.89.89L559.6,462Z" transform="translate(-412.94 -400.55)"/><path class="cls-6" d="M610.18,462a.89.89,0,0,1,.11-1.77l42.27.07a.89.89,0,1,1,0,1.78l-42.27-.07Z" transform="translate(-412.94 -400.55)"/><path class="cls-6" d="M559.44,495.87a.91.91,0,0,1-.79-.89.89.89,0,0,1,.9-.89l40.16.06a.9.9,0,1,1,0,1.79l-40.17-.07Z" transform="translate(-412.94 -400.55)"/><path class="cls-12" d="M420.24,602s-1.06,13,38.71,15.92,61.37,1.92,93.53,12,72,3.36,97.92-3.36S732,602.37,760.32,602Z" transform="translate(-412.94 -400.55)"/><line class="cls-13" x1="2.5" y1="201.42" x2="363.94" y2="201.42"/><rect class="cls-14" x="60.46" y="163.86" width="63.36" height="18.56" rx="6.04"/><rect class="cls-14" x="50.46" y="182.86" width="63.36" height="18.56" rx="6.04"/><rect class="cls-14" x="424.24" y="557.41" width="69.41" height="18.56" rx="6.04" transform="translate(-651.2 379.84) rotate(-68.04)"/></svg>