<?xml version="1.0" encoding="utf-8"?>
<!-- Generator: Adobe Illustrator 24.1.1, SVG Export Plug-In . SVG Version: 6.00 Build 0)  -->
<svg version="1.1" id="Capa_1" xmlns="http://www.w3.org/2000/svg" xmlns:xlink="http://www.w3.org/1999/xlink" x="0px" y="0px"
	 viewBox="0 0 468 468" style="enable-background:new 0 0 468 468;" xml:space="preserve">
<style type="text/css">
	.st0{fill:#F7F7F7;}
	.st1{fill:#A3A3A3;}
</style>
<circle class="st0" cx="263.2" cy="206.9" r="186.6"/>
<g>
	<g>
		<g>
			<path class="st1" d="M324.5,231.4l-7.3-7.7l-25.5-68.7c-4.3-11.6-15.5-19.3-27.8-19.4H81.8c-12.4,0-23.5,7.8-27.8,19.4
				l-25.1,67.9l-10.5,9.7c-9.1,7.8-14.4,19.2-14.4,31.1v100.1c0.1,16.4,13.4,29.6,29.8,29.6h18.8c16.4,0,29.7-13.2,29.8-29.6v-14.5
				h176.6v14.5c0.1,16.4,13.4,29.6,29.8,29.6h18.8c16.4,0,29.7-13.2,29.8-29.6V261C337.2,249.8,332.6,239.1,324.5,231.4z
				 M67.3,159.8c2.3-6.1,8-10,14.5-10H264c6.4,0,12.2,4,14.5,10l22.2,59.8H284c-3.9-26.7-28.8-45.2-55.5-41.2
				c-21.3,3.1-38,19.9-41.2,41.2H45.1L67.3,159.8z M269.5,219.6h-67.7c3.9-18.7,22.3-30.7,41-26.8
				C256.2,195.7,266.7,206.1,269.5,219.6z M68,363.7c-0.1,8.5-7,15.4-15.5,15.4H33.7c-8.5,0-15.5-6.8-15.5-15.4v-18.7
				c4.3,2.8,9.9,4.1,15.5,4.1H68V363.7z M323,363.7c-0.1,8.5-7,15.4-15.5,15.4h-18.8c-8.5,0-15.5-6.9-15.5-15.4v-14.5h34.3
				c5.6,0,11.3-1.4,15.5-4.1V363.7L323,363.7z M307.5,335H33.7c-8.5,0.1-15.5-6.7-15.5-15.2v-56.1c0-7.8,3.5-15.3,9.5-20.4
				c0.1-0.1,0.2-0.2,0.3-0.3l9.7-9.1h269.7l6.8,7.3c0.1,0.1,0.3,0.2,0.4,0.4c5.3,5.1,8.4,12.1,8.4,19.4v58.8h0.1
				C322.9,328.2,315.9,335,307.5,335z"/>
		</g>
	</g>
	<g>
		<g>
			<path class="st1" d="M97.9,262.3H44.5c-3.9,0-7.1,3.2-7.1,7.1v37c0,3.9,3.2,7.1,7.1,7.1h53.4c3.9,0,7.1-3.2,7.1-7.1v-37
				C105.1,265.5,101.9,262.3,97.9,262.3z M90.8,299.4H51.6v-22.8h39.2V299.4z"/>
		</g>
	</g>
	<g>
		<g>
			<path class="st1" d="M296.6,262.3h-53.4c-3.9,0-7.1,3.2-7.1,7.1v37c0,3.9,3.2,7.1,7.1,7.1h53.4c3.9,0,7.1-3.2,7.1-7.1v-37
				C303.8,265.5,300.6,262.3,296.6,262.3z M289.5,299.4h-39.2v-22.8h39.2V299.4z"/>
		</g>
	</g>
	<g>
		<g>
			<path class="st1" d="M205,292.2h-68.8c-3.9,0-7.1,3.2-7.1,7.1c0,3.9,3.2,7.1,7.1,7.1H205c3.9,0,7.1-3.2,7.1-7.1
				C212.1,295.4,208.9,292.2,205,292.2z"/>
		</g>
	</g>
	<g>
		<g>
			<path class="st1" d="M205,270.2h-68.8c-3.9,0-7.1,3.2-7.1,7.1s3.2,7.1,7.1,7.1H205c3.9,0,7.1-3.2,7.1-7.1S208.9,270.2,205,270.2z
				"/>
		</g>
	</g>
</g>
<g>
	<g id="Layer_2_16_">
		<g>
			<path class="st1" d="M354.1,157.8c-1,0.2-2,0.5-3,0.7c-2.6,0.5-4.4,3-3.9,5.6c0.2,1.3,1,2.4,2,3.1c1,0.7,2.3,1,3.7,0.8
				c1.2-0.2,2.4-0.5,3.6-0.8c2.6-0.6,4.2-3.3,3.5-5.8C359.3,158.7,356.7,157.2,354.1,157.8z"/>
			<path class="st1" d="M389.8,93.1c0.3,1,1,1.9,1.8,2.4c1.2,0.9,2.8,1.1,4.3,0.6c2.5-0.8,3.9-3.6,3.1-6.1c-0.4-1.2-0.8-2.3-1.3-3.4
				c-1-2.5-3.8-3.7-6.3-2.7c-2.5,1-3.7,3.8-2.7,6.3C389.1,91.2,389.5,92.1,389.8,93.1z"/>
			<path class="st1" d="M369.8,150.9c-0.9,0.6-1.7,1.1-2.6,1.6c-2.3,1.3-3.1,4.3-1.8,6.6c0.4,0.6,0.8,1.1,1.4,1.5
				c1.5,1,3.5,1.2,5.2,0.2c1.1-0.6,2.1-1.3,3.1-1.9c2.2-1.5,2.8-4.5,1.4-6.7C375,150.1,372,149.5,369.8,150.9z"/>
			<path class="st1" d="M402,106.6c-0.1-2.7-2.3-4.7-5-4.6c-2.7,0.1-4.7,2.3-4.6,5c0,1,0.1,2.1,0,3.1c0,1.7,0.8,3.2,2,4.1
				c0.8,0.5,1.7,0.9,2.7,0.9c2.7,0.1,4.9-2.1,4.9-4.7C402,109,402,107.8,402,106.6z"/>
			<path class="st1" d="M389,138.2c-2.1-1.6-5.2-1.2-6.8,1c-0.6,0.8-1.3,1.6-1.9,2.4c-1.7,2-1.5,5.1,0.5,6.8
				c0.1,0.1,0.2,0.2,0.4,0.3c2,1.4,4.8,1.1,6.5-0.8c0.8-0.9,1.6-1.9,2.3-2.9C391.6,142.8,391.1,139.8,389,138.2z"/>
			<path class="st1" d="M396.1,120.8c-2.5-0.8-5.3,0.6-6,3.2c-0.3,1-0.6,1.9-1,2.9c-0.8,2.1,0,4.4,1.7,5.7c0.3,0.2,0.7,0.4,1.1,0.6
				c2.5,1,5.3-0.3,6.2-2.8c0.4-1.1,0.8-2.3,1.2-3.5C400.1,124.3,398.6,121.6,396.1,120.8z"/>
			<path class="st1" d="M333,158.5c-4.3-0.8-8.5-2.1-12.4-3.9c0,0-0.1-0.1-0.1-0.1c-0.9-0.4-1.8-0.9-2.7-1.4c0,0,0,0,0,0
				c-1.6-0.9-3.2-1.9-4.8-3c-22.7-16-28.2-47.5-12.2-70.2c3.5-4.9,7.7-9.1,12.4-12.3c0.1,0,0.1-0.1,0.2-0.1
				c16.5-11.4,39-12.2,56.6-0.5l-3.8,5.4c-1,1.5-0.4,2.6,1.4,2.5l16.4-1.5c1.8-0.2,2.9-1.8,2.4-3.5L382,54.1c-0.5-1.8-1.8-2-2.8-0.5
				l-3.8,5.5c-12.9-8.7-28.3-11.9-43.7-9.3c-1.5,0.3-3.1,0.6-4.6,1c0,0,0,0,0,0c-0.1,0-0.1,0-0.2,0c-13.2,3.4-24.8,11.1-33,22.1
				c-0.1,0.1-0.1,0.2-0.2,0.3c-0.3,0.4-0.5,0.7-0.8,1.1c-0.4,0.6-0.9,1.3-1.3,1.9c-0.1,0.1-0.1,0.2-0.1,0.2
				c-6.8,10.5-10.1,22.7-9.5,35.1c0,0,0,0.1,0,0.1c0.1,1.2,0.2,2.4,0.3,3.6c0,0.1,0,0.2,0,0.2c0.1,1.2,0.3,2.4,0.5,3.7
				c2.2,12.4,8,23.6,16.8,32.3c0,0,0,0,0.1,0.1c0,0,0,0,0,0c2.4,2.3,4.9,4.5,7.7,6.4c7.2,5.1,15.3,8.5,23.9,10
				c2.6,0.5,5.1-1.3,5.6-3.9C337.4,161.5,335.7,159,333,158.5z"/>
			<path class="st1" d="M339,69.9c-2.2,0-3.9,1.8-3.9,3.9v38.9l35.6,18.4c0.6,0.3,1.2,0.4,1.8,0.4c1.4,0,2.8-0.8,3.5-2.1
				c1-1.9,0.2-4.3-1.7-5.3L342.9,108V73.8C342.9,71.7,341.2,69.9,339,69.9z"/>
		</g>
	</g>
</g>
</svg>
