<svg id="Слой_1" data-name="Слой 1" xmlns="http://www.w3.org/2000/svg" viewBox="0 0 2944.07 933.67"><defs><style>.cls-1{fill:#7f7e7d;}.cls-2{fill:#e8e8e8;}.cls-3{fill:#c9c9c9;}.cls-4{fill:#b2b2b2;}.cls-5{fill:#efefef;}.cls-6{fill:#c1c1c1;}.cls-7{fill:#f9f9f9;}.cls-8{fill:#777;}.cls-9{fill:#a8a8a8;}.cls-10{fill:#2d2d2d;}.cls-11{fill:#a840d8;}.cls-12{fill:#9b3ace;}.cls-13{fill:#f4f4f4;}.cls-14{fill:#8c8c8c;}.cls-15{fill:#163560;}.cls-16{fill:#a3a3a3;}.cls-17{fill:#ddd;}.cls-18,.cls-19{fill:none;stroke-linecap:round;stroke-miterlimit:10;}.cls-18{stroke:#fff;stroke-width:8px;}.cls-19{stroke:#a8a8a8;stroke-width:5px;}</style></defs><path class="cls-1" d="M139,1482.63v1.07a3.25,3.25,0,0,0,3.34,3.12h2937.4a3.24,3.24,0,0,0,3.33-3.12v-1.07a3.25,3.25,0,0,0-3.33-3.13H142.37A3.26,3.26,0,0,0,139,1482.63Z" transform="translate(-139.03 -554.01)"/><path class="cls-2" d="M950.63,1298.49s-28.77-33.56-1.77-54.88c0,0,19.71-11.94,35.79-11,0,0-22.78,38.2-15.41,42s22.32-44.4,22.32-44.4,44.86-4.35,59.3,2.59c0,0-38.36,31.39-30.28,33.26s49.51-28.94,49.51-28.94,41.76,7.11,39.53,32.58-16.61,33.34-22.94,32.67-43.32-14.8-44.12-9.62,21.46,22.12,37.06,22.91c0,0-29.45,32.47-49,23.1s-21.24-24.23-33.44-29.8-22.61-5.56-17.57.13,27.11,11.2,34.08,23.54,13.24,20.66-7,17.61-53.15-17.86-54.6-34.82Z" transform="translate(-139.03 -554.01)"/><path class="cls-2" d="M1089.1,1270.42s-113.42-4.37-138.47,28.07c0,0-5.54,16.59-22.59,31.7l-2.65,7.24s19.65-20.73,26.68-22C952.07,1315.45,941.08,1275.26,1089.1,1270.42Z" transform="translate(-139.03 -554.01)"/><path class="cls-2" d="M928,1330.19s-24.34,18-26,50.17l4.42.4s7.77-33.27,21.82-46.28S928,1330.19,928,1330.19Z" transform="translate(-139.03 -554.01)"/><path class="cls-3" d="M850.05,1256.28s45.76-25.63,24.41-60.4c0,0-17.09-21.36-35.39-26.85,0,0,9.76,51.86,0,53.08s-6.72-58.57-6.72-58.57-48.2-23.19-67.11-21.36c0,0,29.89,50.64,20.13,49.42s-43.32-52.47-43.32-52.47-49.42-9.15-57.35,20.14,4.88,43.93,12.2,45.76,54.3,1.22,53.08,7.32-32.94,15.86-50.64,10.37c0,0,19.53,48.2,45.15,45.76s33.56-18.3,49.42-19.52,27.46,3,19.53,7.32-34.78,1.4-47.59,12.29-23.19,17.61.61,22.49,66.5,1.83,75-16.48Z" transform="translate(-139.03 -554.01)"/><path class="cls-3" d="M707.27,1168.42s128.14,41.49,142.78,87.86c0,0-.61,20.75,12.2,44.54V1310s-13.42-31.11-20.74-35.39C841.51,1274.58,870.18,1234.31,707.27,1168.42Z" transform="translate(-139.03 -554.01)"/><path class="cls-3" d="M862.25,1300.82s19.76,30,8.5,66.54l-5.09-1.37s4.94-40.23-5.4-60.47S862.25,1300.82,862.25,1300.82Z" transform="translate(-139.03 -554.01)"/><path class="cls-3" d="M922.85,1220.94s-60.32-33.78-32.17-79.63c0,0,22.52-28.15,46.65-35.39,0,0-12.87,68.37,0,70s8.85-77.22,8.85-77.22,63.54-30.56,88.47-28.15c0,0-39.41,66.76-26.54,65.15s57.1-69.17,57.1-69.17,65.15-12.06,75.61,26.54-6.44,57.91-16.09,60.33-71.58,1.61-70,9.65,43.43,20.91,66.75,13.67c0,0-25.73,63.54-59.51,60.32s-44.24-24.13-65.15-25.73-36.2,4-25.74,9.65,45.85,1.84,62.74,16.2,30.56,23.21-.81,29.64-87.67,2.42-98.93-21.71Z" transform="translate(-139.03 -554.01)"/><path class="cls-3" d="M1111.06,1105.12s-168.9,54.69-188.21,115.82c0,0,.81,27.34-16.08,58.71v12.07s17.69-41,27.34-46.65C934.11,1245.07,896.31,1192,1111.06,1105.12Z" transform="translate(-139.03 -554.01)"/><path class="cls-3" d="M906.77,1279.65s-26,39.56-11.2,87.71l6.7-1.81s-6.51-53,7.12-79.7S906.77,1279.65,906.77,1279.65Z" transform="translate(-139.03 -554.01)"/><path class="cls-4" d="M920.82,1471.77A118.16,118.16,0,0,0,1039,1353.61H802.66A118.16,118.16,0,0,0,920.82,1471.77Z" transform="translate(-139.03 -554.01)"/><path class="cls-4" d="M1040.61,1477.78H801a14.57,14.57,0,0,1,14.57-14.58H1026a14.57,14.57,0,0,1,14.57,14.58Z" transform="translate(-139.03 -554.01)"/><path class="cls-2" d="M963.92,1391c-8.7,55.78-65.62,91.3-124,91.3H724.28l9.05-325.1s110.33-35.42,138-1.73c24.28,29.51,90.12,146.33,93.58,215.48A97.26,97.26,0,0,1,963.92,1391Z" transform="translate(-139.03 -554.01)"/><path class="cls-3" d="M657,1191.64S813,1112,842.5,1164c15.69,27.62,58.86,137.79,62,206.93,3.1,67.18-55.1,111.36-115,111.36H683.23Z" transform="translate(-139.03 -554.01)"/><path class="cls-5" d="M686.29,1235.8c-1.31,6.77-13.94,13-32.68,18.6q-5,1.47-10.45,2.88c-63.79,16.29-176.78,25.38-187.55,20.58C440.73,1271.22,349.4,946.7,349.4,946.7s87.18-3.27,156.42-4.87c23.69-.54,45.27-.89,60.55-.84a39.64,39.64,0,0,1,5.26.36,25,25,0,0,1,15.4,7.89c11.15,12,13.92,35.64,24.24,61.8,10.2,25.86,22.73,58.14,34.61,90.17,3.06,8.25,6.08,16.49,9,24.6.83,2.29,1.64,4.57,2.46,6.83C674.89,1181.77,688.41,1224.84,686.29,1235.8Z" transform="translate(-139.03 -554.01)"/><path class="cls-6" d="M963.92,1391c-8.7,55.78-65.62,91.3-124,91.3H783.2C821,1456.68,855.22,1377.67,963.92,1391Z" transform="translate(-139.03 -554.01)"/><path class="cls-2" d="M872.87,1432.37c-22.33,31-56.56,50.89-94.7,50.27l-164,.09-78.55,0L624,1191.68s223.69-22.25,251.28,7.43c12.8,13.77,20,76.17,24,139.07C901.61,1373.64,891.29,1406.79,872.87,1432.37Z" transform="translate(-139.03 -554.01)"/><path class="cls-3" d="M872.87,1432.37c-22.33,31-56.56,50.89-94.7,50.27l-164,.09c19.29-16.2,80-62.16,144.94-60C808.4,1424.4,847.5,1423.69,872.87,1432.37Z" transform="translate(-139.03 -554.01)"/><path class="cls-7" d="M659.32,978.9s20.62,12.91,44.88,48.52c21.25,31.18,32.25,41.29,44.32,44.27s71.23,1.37,71.23,1.37l.14,10.43s-77.8,22.49-91.48,13.88-77.18-67.17-82.12-84.93S659.32,978.9,659.32,978.9Z" transform="translate(-139.03 -554.01)"/><path class="cls-7" d="M867.81,1430.66c-.72,7.82,10.18,9.73,22.8,10.35s8.8,3.22,26.1,6.35,24.22-1.6,25.48-3.94c1.11-2.07-6.93-5.31-15.5-9-1.08-.45-2.16-.93-3.24-1.4-9.64-4.24-15.05-12.89-22.57-20.91-7.12-7.59-13.89-31.91-13.89-31.91l-23.5-5s6.6,21.89,8.89,31.23c1.35,5.5-.64,11.64-2.4,16.32A30.33,30.33,0,0,0,867.81,1430.66Z" transform="translate(-139.03 -554.01)"/><path class="cls-8" d="M890.61,1441c12.62.63,8.8,3.22,26.1,6.35s24.22-1.6,25.48-3.94c1.11-2.07-6.93-5.31-15.5-9l-.13.15a49.23,49.23,0,0,1-26.2.31c-11.44-3.11-22.5-9.94-30.38-12.15a30.33,30.33,0,0,0-2.17,7.91C867.09,1438.48,878,1440.39,890.61,1441Z" transform="translate(-139.03 -554.01)"/><path class="cls-9" d="M633.78,1152s156.17-11.75,185.57,6.8,76.56,234.69,76.56,234.69-2.91,2.34-9.41,3c-6,.65-19.36-2.9-19.36-2.9s-67.77-96.71-72.54-121.07-3.61-46.1-14.48-46.68-146.36,16.47-166.86-19.64-3.55-71.84-3.55-71.84Z" transform="translate(-139.03 -554.01)"/><path class="cls-7" d="M808.06,1455.74c-.73,7.83,10.17,9.73,22.79,10.36s8.81,3.21,26.1,6.34,24.23-1.6,25.48-3.93c1.11-2.08-6.93-5.32-15.5-9l-3.24-1.4c-9.64-4.25-15.05-12.89-22.57-20.91-7.12-7.6-13.88-31.92-13.88-31.92l-23.51-5s6.6,21.89,8.89,31.23c1.35,5.5-.64,11.65-2.4,16.32A30.81,30.81,0,0,0,808.06,1455.74Z" transform="translate(-139.03 -554.01)"/><path class="cls-8" d="M830.85,1466.1c12.62.63,8.81,3.21,26.1,6.34s24.23-1.6,25.48-3.93c1.11-2.08-6.93-5.32-15.5-9l-.13.14a49.29,49.29,0,0,1-26.2.32c-11.44-3.11-22.5-10-30.38-12.16a30.81,30.81,0,0,0-2.16,7.91C807.33,1463.57,818.23,1465.47,830.85,1466.1Z" transform="translate(-139.03 -554.01)"/><path class="cls-4" d="M603.19,1161.64s138.74,6.57,167.39,26.25,67.36,237.49,67.36,237.49-3,2.22-9.52,2.67c-6.06.42-19.23-3.65-19.23-3.65s-64-99.27-67.77-123.8-1.81-46.21-12.65-47.21-146.89,10.76-166-26.12S603.19,1161.64,603.19,1161.64Z" transform="translate(-139.03 -554.01)"/><path class="cls-10" d="M637.65,853.56c-6.66-3.16-14.35-3-19.69-2.27a9.06,9.06,0,0,1,3.95-2.25c-3.36-.25-10.54,3.6-10.54,3.6-47.56-14.38-50.56,49.35-47.63,70,4.12,29-18.53,30.72-30.42,55.15-30.5,62.64,39.45,109.83,39.45,109.83.37.18,46.76-88.63,76-111.11,6.68-11.59,7.89-31.26,8-32.81-.15,15.54-2.15,24.4-4.15,29.45C676.91,947.23,655.32,861.93,637.65,853.56Z" transform="translate(-139.03 -554.01)"/><path class="cls-7" d="M597.36,964.73a157.08,157.08,0,0,1,25.84,0,83.17,83.17,0,0,1,22.42,5.63c12.23,5.11,11,26.76-14.71,22.75S595.56,971.15,597.36,964.73Z" transform="translate(-139.03 -554.01)"/><path class="cls-7" d="M644.54,980.52c.15.08,3.66,18.62-13.14,17.88-11-.49-34.81-13.83-32.71-23.27,1-4.49,9.33-16.13,11-42.72l2,.54L645.46,942s-1.5,10.71-2.2,20.85C642.67,971.37,642.65,979.48,644.54,980.52Z" transform="translate(-139.03 -554.01)"/><path class="cls-3" d="M645.46,942s-1.5,10.71-2.2,20.85c-19.1-1.82-28.06-20-31.56-29.91Z" transform="translate(-139.03 -554.01)"/><path class="cls-10" d="M604.07,931.68s-11.2-15.09-14.62-28.46c-2.43-9.54-.17-45.76,36.24-43.27a49.11,49.11,0,0,1,20.86,6.17c8.22,4.7,20.35,15.27,10.05,47.48l-2.49,10.81Z" transform="translate(-139.03 -554.01)"/><path class="cls-7" d="M649.67,948.5s-45.21,4.1-47.34-24.09-9.39-46.65,19.39-50.46,35.2,6.52,38.2,15.76S661.37,946.7,649.67,948.5Z" transform="translate(-139.03 -554.01)"/><path class="cls-10" d="M642.28,871.73s-9.93,34-28.59,40.3-27.29,1.82-27.29,1.82a54.05,54.05,0,0,0,15.26-33.13S631.77,856.68,642.28,871.73Z" transform="translate(-139.03 -554.01)"/><path class="cls-10" d="M639.41,874.64s9.8,6.7,12.59,13.71,4.91,21.72,9.18,20.89c0,0,7.66-23.17-3.77-35.11C645.28,861.47,639.41,874.64,639.41,874.64Z" transform="translate(-139.03 -554.01)"/><path class="cls-11" d="M696.57,1154.32c-3.67,4.39-15.12,5.73-27.37,7.75-9.63,1.59-19.75,3.58-27,7.81-16.34,9.6-69.74,42-85.39,40.55-6.07-.57-4.93-12.15-1.26-27.52,5.79-24.27,17.9-58,17.9-72.64,0-8,2.66-26.92,6.21-48.56.29-1.75.59-3.51.88-5.28,7-42.08,16.77-91.69,16.77-91.69s10.86,23.69,32,23.69,16.24-18.07,16.24-18.07,19.31,2.27,23.87,7.19,16.13,26.15,18.42,31.94c0,0,.47,7.37-17.78,10.88,0,0,4.45,20,5,33.34.39,9.85-6.73,40.68-8.77,59.86-.73,6.79-.82,12.12.28,14.54,1.41,3.1,6,6.18,11.17,9.21C688.11,1143.33,700.93,1149.1,696.57,1154.32Z" transform="translate(-139.03 -554.01)"/><path class="cls-12" d="M677.79,1137.32c11.71,20-31.76,26-39,30.2-16.34,9.6-66.32,44.39-82,42.91-6.07-.57-4.93-12.15-1.26-27.52,5.79-24.27,17.9-58,17.9-72.64,0-8,2.66-26.92,6.21-48.56l18.84-18.09s20.19,52.17,39.43,60.72a161.92,161.92,0,0,0,28.36,9.23c-.73,6.79-.82,12.12.28,14.54C668,1131.21,672.6,1134.29,677.79,1137.32Z" transform="translate(-139.03 -554.01)"/><path class="cls-7" d="M591.57,980.35s-16.11-9.78-31.68,8.78,11.07,151.2,34.14,158c25.64,7.57,102.54,7.18,102.54,7.18l-2.5-9.25s-80.61-25.83-83.89-30S599.76,982.49,591.57,980.35Z" transform="translate(-139.03 -554.01)"/><path class="cls-11" d="M597.36,964.73s-33.08,3-42.68,13.87S542.26,1019,542.26,1019s29.13,23.51,64.23,14.39Z" transform="translate(-139.03 -554.01)"/><path class="cls-7" d="M850.87,1081.66a22.41,22.41,0,0,0-4.09,0c4.55-2.19,9.13-4.57,9.13-4.57s-2.08-2.08-9.91.83a5.93,5.93,0,0,1-2.65.33l11-5.12c-2-1.74-7.26-.25-11.35,1.31a9.09,9.09,0,0,1-8.72-1.2l-.12-.1.54-.06c6.43-1,8-4.74,6.23-4.3s-12.56,1.38-12.56,1.38c-4.88-.21-14.5,3.65-14.5,3.65l5.55,9.91s15.58,2.67,19.61,1.36c.33-.1.71-.25,1.15-.42h0l14.11-1.12S854,1082,850.87,1081.66Z" transform="translate(-139.03 -554.01)"/><path class="cls-7" d="M692.36,1145.52s20.26-5.48,25.76-4.4,16.17,6.9,17.79,9.49-12.29,2.23-20.06,2-10.43,2.65-13.82,2.16a34.84,34.84,0,0,0-5.46-.41Z" transform="translate(-139.03 -554.01)"/><path class="cls-2" d="M737,1393.94c-9.38,54.1-60.84,88.38-113.58,88.38H517.08l8.32-325.1s101.46-35.42,126.94-1.73C674.67,1185,735.21,1301.82,738.4,1371A105.42,105.42,0,0,1,737,1393.94Z" transform="translate(-139.03 -554.01)"/><path class="cls-6" d="M737,1393.94c-9.38,54.1-60.84,88.38-113.58,88.38h-85.1C578.16,1455.32,631.79,1380.73,737,1393.94Z" transform="translate(-139.03 -554.01)"/><path class="cls-3" d="M572.15,1482.08l-2.39.16c-1.68.09-3.37.15-5.06.17h-108v-.05l-6.14.08c-10.95.13-22.39.26-33,.35l-5.25,0h-1.91c-10.48.07-19.75.1-26.36.06a176.11,176.11,0,0,1-26.3-2,117.75,117.75,0,0,1-29.31-8.38,97,97,0,0,1-9.32-4.74,91.58,91.58,0,0,1-11.53-7.86A104.1,104.1,0,0,1,283,1431.1a157.64,157.64,0,0,1-12.75-27.77,268.09,268.09,0,0,1-11.18-44.58c-4.09-23.9-6.42-51.74-7.13-83.92q-.42-19.45-.06-41,.56-34.5,3.07-74.72c2.34-37.69,5.91-79.28,10.63-125,4.31-41.8,9.27-71,16.49-77.69,10.66-9.82,32.88-13.77,48.33-15.35h0c9.59-1,16.56-1.06,16.56-1.06,18.89,0,35.67,13.56,41.73,33.71,12.35,41,34.38,114.37,57.31,191.09l.34,1.15,4,13.25c.2.68.41,1.35.61,2l4-1.79.14-.06c5.49-2.44,11.72-5.11,18.43-7.83h0c3.48-1.41,7.09-2.84,10.81-4.26,10.49-4,21.82-8,33.3-11.42,5.09-1.53,10.22-3,15.32-4.21,6.55-1.62,13-3,19.38-4l.55-.09,2.24-.34c27.3-4,51-1.23,60.8,16.07,15.69,27.69,58.85,138.19,62,207.53C680.94,1434.68,628.65,1477.84,572.15,1482.08Z" transform="translate(-139.03 -554.01)"/><path class="cls-2" d="M401.57,1194.15S347,971.79,343.05,953.1c-1.76-8.33-7.17-11.34-12.62-12.11,9.6-1,16.58-1.06,16.58-1.06,18.88,0,35.66,13.52,41.72,33.61,13.22,43.81,37.56,124.61,62.22,206.91C449.7,1180.42,401.57,1194.15,401.57,1194.15Z" transform="translate(-139.03 -554.01)"/><path class="cls-5" d="M1627.85,1234.77c3.18,6.71,33.69,12.94,79,18.45,8,1,16.42,1.92,25.25,2.84,154.14,16.16,576.32,25.18,602.34,20.41,36-6.58,41.55-331.91,41.55-331.91s-144.72.33-312-1.25c-57.24-.54-256.34-1.89-293.26-1.89C1713.5,941.42,1622.72,1223.9,1627.85,1234.77Z" transform="translate(-139.03 -554.01)"/><path class="cls-2" d="M1686.16,1193.47s64.68-220.46,69.35-239c2.08-8.26,8.49-11.24,15-12-11.37-1-19.64-1-19.64-1-22.38,0-42.27,13.4-49.45,33.31-15.66,43.45-44.51,123.56-73.73,205.15C1629.12,1179.86,1686.16,1193.47,1686.16,1193.47Z" transform="translate(-139.03 -554.01)"/><path class="cls-2" d="M1294.12,1388.67c10.31,55.3,77.77,90.52,147,90.52h137l-10.72-322.33s-130.75-35.11-163.58-1.71c-28.78,29.26-106.79,145.08-110.9,213.64A81.47,81.47,0,0,0,1294.12,1388.67Z" transform="translate(-139.03 -554.01)"/><path class="cls-6" d="M1294.12,1388.67c10.31,55.3,77.77,90.52,147,90.52h67.22C1463.47,1453.77,1422.94,1375.44,1294.12,1388.67Z" transform="translate(-139.03 -554.01)"/><path class="cls-3" d="M1657.89,1191S1473,1112.05,1438,1163.61c-18.6,27.39-69.76,136.62-73.54,205.17-3.67,66.61,65.31,110.41,136.26,110.41h126Z" transform="translate(-139.03 -554.01)"/><path class="cls-2" d="M1414.32,1425.37q3.08,2.19,6.29,4.3c26.71,17.51,61.53,31.44,101.37,40.08a447,447,0,0,0,97.54,9.76h60.73l283.65.07,162.59,0h2.4v-.06l5.65-26.25L2190.87,1191s-717.47-22.06-775.41,7.36c-26.9,13.66-42,75.53-50.46,137.89C1360.49,1369.48,1379.58,1400.65,1414.32,1425.37Z" transform="translate(-139.03 -554.01)"/><path class="cls-3" d="M1414.32,1425.37q3.08,2.19,6.29,4.3c26.71,17.51,61.53,31.44,101.37,40.08a447,447,0,0,0,97.54,9.76h60.73l283.65.07,162.59,0,2.41-.06,5.65-26.25c-99.66-17.14-237.56-34.54-381.4-33.2C1615.76,1421.42,1500.74,1421.25,1414.32,1425.37Z" transform="translate(-139.03 -554.01)"/><path class="cls-11" d="M1801.42,1472.54c0,2.33-.11,4.53-.24,6.51,0,.18,0,.35,0,.53-.24,3.61-.61,6.47-.86,8.1H1685.55a18.21,18.21,0,0,1,4.73-8.12c.16-.17.33-.35.51-.51,10.63-10.28,32.73-12.42,40.47-16,6.69-3.08,19.14-22.66,26.39-34.81,1.59-2.66,2.94-5,3.9-6.68,1.1-1.91,1.73-3,1.73-3l12.74,1.13,18.59,1.63s.08.7.23,1.93c.32,2.5.94,7.22,1.75,12.81v0c.93,6.39,2.14,13.94,3.46,20.65A81.05,81.05,0,0,1,1801.42,1472.54Z" transform="translate(-139.03 -554.01)"/><path class="cls-13" d="M2052.51,974.36s-61,167.29-73.1,166.37c-26.3-2-36.1,4.36-41.12,4.16s23.3,8.54,32.09,7.29,75.8-3.31,75.8-3.31l40.58-143.26Z" transform="translate(-139.03 -554.01)"/><path class="cls-11" d="M1901.68,1479.05a5.21,5.21,0,0,0,0,.55c-.26,3.59-.62,6.45-.87,8.08H1786a18.31,18.31,0,0,1,4.7-8.11l.54-.52a35,35,0,0,1,10.14-6.51c11-5,24.6-6.83,30.34-9.47,6.56-3,18.62-14.91,25.88-22.44,3.62-3.76,6-6.44,6-6.44l7.9-1.82,10.26-2.35,13.79-3.16s.22,1.73.64,4.64c.35,2.48.86,5.85,1.49,9.75.76,4.62,1.69,10,2.78,15.45A90,90,0,0,1,1901.68,1479.05Z" transform="translate(-139.03 -554.01)"/><path class="cls-14" d="M1745.36,1419s11.51,10.07,18.53,12.41c11.06,3.68,42.07,5.22,42.07,5.22s38.55-105.1,49.65-130.92c10.53-24.48,20.84-76.5,20.84-76.5,8-.44,76.19,7.64,129,1.93,28.1-3,51.86-10,59.92-24.16,23.21-40.88-33-54.09-33-54.09s-167-20.63-200.33.37S1745.36,1419,1745.36,1419Z" transform="translate(-139.03 -554.01)"/><path class="cls-1" d="M1876.45,1229.23c8-.44,76.19,7.64,129,1.93,14.33-26.07,33.17-60.43,33.17-60.43S1941.89,1159.79,1876.45,1229.23Z" transform="translate(-139.03 -554.01)"/><path class="cls-14" d="M1850.72,1438.11s3.39,2.51,10.77,3c6.87.47,44,0,44,0s41.13-88.12,57.13-130.79c7.49-20,7.65-47.2,9.39-59.95.54-4,1.23-6.56,2.35-7.06h0a6.06,6.06,0,0,1,1.05-.32h0c17.79-3.88,165.76,11.48,186.81-29.23a35.47,35.47,0,0,0,4.19-19c-2.2-32.2-39.48-41.85-39.48-41.85s-167.52-6-200,16.3S1850.72,1438.11,1850.72,1438.11Z" transform="translate(-139.03 -554.01)"/><path class="cls-1" d="M1763.89,1431.43c11.06,3.68,42.07,5.22,42.07,5.22s38.55-105.1,49.65-130.92c10.53-24.48,20.84-76.5,20.84-76.5S1795.76,1412.39,1763.89,1431.43Z" transform="translate(-139.03 -554.01)"/><path class="cls-15" d="M1975.43,1243c17.79-3.88,165.76,11.48,186.81-29.23a35.47,35.47,0,0,0,4.19-19l-34.13-37.68s-2.67,53.6-47.06,59.63C2044.2,1222.3,1984.26,1240.33,1975.43,1243Z" transform="translate(-139.03 -554.01)"/><path class="cls-1" d="M1861.49,1441.13c6.87.47,44,0,44,0s41.13-88.12,57.13-130.79c7.49-20,7.65-47.2,9.39-59.95C1955.75,1285,1886.78,1429.25,1861.49,1441.13Z" transform="translate(-139.03 -554.01)"/><path class="cls-13" d="M2202.75,940.93c-17.8,22-51.43,58.39-73.8,50.18-7.51-2.75-70.61-25-36.54-46.18,8.62-5.37,24.2-12.35,37.12-13.65-.33-4.07-.52-7.6-.64-10.51-.26-6.35-.12-9.8-.12-9.8l25.64-18.75,0,0c.4.13.8.25,1.19.39l14.33,4.56c.15,1.58.33,3.14.55,4.65a81.71,81.71,0,0,0,9.95,28.88,19.6,19.6,0,0,0,15.81,9.79C2198.52,940.61,2200.69,940.77,2202.75,940.93Z" transform="translate(-139.03 -554.01)"/><path class="cls-3" d="M2170.51,901.8c-6.19,11.28-17.91,16.21-41.62,19-.26-6.35-.12-9.8-.12-9.8l25.64-18.75h0l1.19.38,14.33,4.56C2170.11,898.73,2170.29,900.29,2170.51,901.8Z" transform="translate(-139.03 -554.01)"/><path class="cls-13" d="M2119.86,913.35s50.37,8.83,55.39-22.62,14.9-51.5-17.05-58.47-40.13,4-44.36,14.12S2106.88,910.24,2119.86,913.35Z" transform="translate(-139.03 -554.01)"/><path class="cls-9" d="M2170,902.78s4.12-9.95-.08-18c0,0,5.76-9.4,2.33-12.49s-7.28,5.15-8.65,3.16-7.34-11.25-7.55-21.87-36.42-10.62-40.77-10.25-14.23-10.09-14.8-15.94c0,0,8.59-3,13-6s35.11-22.66,61.89-4.55,25.83,33.6,19.9,45.07S2183.47,903,2170,902.78Z" transform="translate(-139.03 -554.01)"/><path class="cls-4" d="M2023.55,1133.47c1.76,4.55,5.94,8.68,40.29,24.41,49,22.45,109.87,44.91,121.5,34.84,9.06-7.82,13.39-61.39,15.41-117.18,2.41-66.13.34-134.74.34-134.74s-39.84,21.62-60.17,12.8c-20-8.69-13.84-21.65-13.58-22.09l-51.84,50.91S2019.29,1122.44,2023.55,1133.47Z" transform="translate(-139.03 -554.01)"/><path class="cls-9" d="M2063.84,1157.88c49,22.45,109.87,44.91,121.5,34.84,9.06-7.82,13.39-61.39,15.41-117.18-2.2-31.51-5.2-56.32-5.2-56.32s-23.4,54.68-46,69.88C2096.36,1124.9,2026.09,1109.4,2063.84,1157.88Z" transform="translate(-139.03 -554.01)"/><path class="cls-13" d="M2249.36,999.53s-10.92,102.22-29,142.77c0,0-53.82,12.2-143.54,0l2.15-17S2190.5,1103,2190.5,1099.6s7.6-124,7.23-131.71S2249.36,999.53,2249.36,999.53Z" transform="translate(-139.03 -554.01)"/><path class="cls-4" d="M2187,1017.66c11.67,3,23.2,2.31,33.3.13a104.27,104.27,0,0,0,33.21-13.64s-2.58-24.84-7.74-42.76c-1.76-6.09-7.35-10.49-14-13.66-12.82-6.13-30.75-6.93-30.75-6.93S2153.18,1009,2187,1017.66Z" transform="translate(-139.03 -554.01)"/><path class="cls-4" d="M2127.34,931.51s-34.23.3-52,13.25a154.55,154.55,0,0,0-29.13,27.85s4.25,22.81,21,26.77S2127.34,931.51,2127.34,931.51Z" transform="translate(-139.03 -554.01)"/><path class="cls-2" d="M1876.44,1391.57c11.11,53.63,72.08,87.62,134.59,87.62h126l-9.86-322.33s-120.23-35.11-150.43-1.71c-26.46,29.26-98.21,145.08-102,213.64A87.54,87.54,0,0,0,1876.44,1391.57Z" transform="translate(-139.03 -554.01)"/><path class="cls-6" d="M1876.44,1391.57c11.11,53.63,72.08,87.62,134.59,87.62h100.85C2064.67,1452.43,2001.11,1378.46,1876.44,1391.57Z" transform="translate(-139.03 -554.01)"/><path class="cls-3" d="M2451.24,1273.46c-.83,31.91-3.6,59.51-8.44,83.22a231.54,231.54,0,0,1-13.25,44.19,145.31,145.31,0,0,1-15.11,27.54,109.95,109.95,0,0,1-42.74,36.36q-5.34,2.58-11,4.69a159.77,159.77,0,0,1-34.74,8.31,246.6,246.6,0,0,1-31.16,2c-7.84,0-18.82,0-31.25-.06l-2.26,0-6.22,0c-12.58-.09-26.13-.22-39.1-.35l-7.29-.07v0h-128c-2,0-4-.08-6-.17-.94,0-1.9-.09-2.84-.15-67-4.21-128.93-47-125.43-110.39,3.77-68.76,55.48-178,73.52-205.77,18.74-28.91,79.18-24.89,80.08-24.77.18,0,134.06.38,134.2,0,27.18-76.06,40.37-122.51,55-163.19,7.19-20,27.08-33.42,49.46-33.42,0,0,8.26.08,19.63,1.05h0c5.39.47,11.48,1.13,17.71,2.09,14.92,2.29,30.65,6.27,39.57,13.13,8.56,6.6,14.44,35.58,19.53,77,5.6,45.38,9.83,86.61,12.61,124q2.94,39.91,3.64,74.08Q2451.76,1254.2,2451.24,1273.46Z" transform="translate(-139.03 -554.01)"/><path class="cls-2" d="M2376,944.56h0s-34,1-40.83,29.79-48.32,166.38-48.32,166.38-31.71-3.86-52.66-2.71c27.18-76.06,40.37-122.51,55-163.19,7.19-20,27.08-33.42,49.46-33.42,0,0,8.26.08,19.63,1.05h0C2363.65,942.94,2369.74,943.6,2376,944.56Z" transform="translate(-139.03 -554.01)"/><path class="cls-16" d="M2481.92,1314.79s26.3-30.67,1.62-50.16c0,0-18-10.91-32.71-10,0,0,20.82,34.91,14.08,38.39s-20.4-40.59-20.4-40.59-41-4-54.2,2.37c0,0,35.06,28.69,27.67,30.4s-45.25-26.45-45.25-26.45-38.17,6.49-36.14,29.78,15.19,30.48,21,29.86,39.6-13.53,40.33-8.79-19.61,20.21-33.87,20.94c0,0,26.91,29.68,44.8,21.11s19.41-22.14,30.56-27.24,20.67-5.08,16.07.12-24.79,10.24-31.16,21.52-12.1,18.88,6.41,16.1,48.58-16.33,49.9-31.83Z" transform="translate(-139.03 -554.01)"/><path class="cls-16" d="M2355.35,1289.14s103.68-4,126.57,25.65c0,0,5.07,15.17,20.65,29l2.43,6.62s-18-19-24.4-20.09C2480.6,1330.3,2490.66,1293.56,2355.35,1289.14Z" transform="translate(-139.03 -554.01)"/><path class="cls-16" d="M2502.57,1343.77s22.25,16.46,23.8,45.86l-4,.36s-7.11-30.4-19.95-42.29S2502.57,1343.77,2502.57,1343.77Z" transform="translate(-139.03 -554.01)"/><path class="cls-4" d="M2573.86,1276.21s-41.83-23.42-22.31-55.21c0,0,15.62-19.52,32.35-24.54,0,0-8.92,47.41,0,48.52s6.13-53.54,6.13-53.54,44.06-21.19,61.35-19.52c0,0-27.32,46.29-18.4,45.17s39.6-48,39.6-48,45.17-8.37,52.42,18.41-4.46,40.15-11.15,41.82-49.64,1.12-48.52,6.7,30.11,14.5,46.29,9.48c0,0-17.85,44.06-41.27,41.83s-30.68-16.73-45.18-17.85-25.1,2.79-17.85,6.69,31.79,1.28,43.51,11.24,21.19,16.09-.56,20.55-60.79,1.68-68.6-15Z" transform="translate(-139.03 -554.01)"/><path class="cls-4" d="M2704.37,1195.9s-117.12,37.93-130.51,80.31c0,0,.56,19-11.15,40.72v8.36s12.27-28.44,19-32.34C2581.67,1293,2555.46,1256.14,2704.37,1195.9Z" transform="translate(-139.03 -554.01)"/><path class="cls-4" d="M2562.71,1316.93s-18.07,27.43-7.77,60.81l4.65-1.24s-4.51-36.78,4.94-55.28S2562.71,1316.93,2562.71,1316.93Z" transform="translate(-139.03 -554.01)"/><path class="cls-2" d="M2507.31,1243.91s55.14-30.88,29.41-72.79c0,0-20.58-25.73-42.64-32.34,0,0,11.76,62.49,0,64s-8.09-70.58-8.09-70.58-58.08-27.94-80.87-25.73c0,0,36,61,24.26,59.55s-52.19-63.23-52.19-63.23-59.55-11-69.11,24.26,5.88,52.94,14.7,55.14,65.43,1.47,64,8.82-39.7,19.12-61,12.5c0,0,23.53,58.08,54.41,55.14s40.43-22,59.55-23.52,33.08,3.67,23.52,8.82-41.9,1.68-57.34,14.81-27.94,21.21.73,27.09S2486.73,1288,2497,1266Z" transform="translate(-139.03 -554.01)"/><path class="cls-2" d="M2335.28,1138s154.39,50,172,105.87c0,0-.73,25,14.71,53.67v11s-16.18-37.49-25-42.64C2497,1266,2531.57,1217.44,2335.28,1138Z" transform="translate(-139.03 -554.01)"/><path class="cls-2" d="M2522,1297.58s23.81,36.15,10.23,80.16l-6.12-1.64s5.94-48.48-6.51-72.86S2522,1297.58,2522,1297.58Z" transform="translate(-139.03 -554.01)"/><path class="cls-14" d="M2509.17,1473.18a108,108,0,0,1-108-108h216A108,108,0,0,1,2509.17,1473.18Z" transform="translate(-139.03 -554.01)"/><path class="cls-5" d="M2541.07,1472.36a108.13,108.13,0,0,1-121.42-107.18h26.83A108,108,0,0,0,2541.07,1472.36Z" transform="translate(-139.03 -554.01)"/><path class="cls-14" d="M2399.67,1478.68h219a13.32,13.32,0,0,0-13.32-13.33H2413a13.33,13.33,0,0,0-13.33,13.33Z" transform="translate(-139.03 -554.01)"/><rect class="cls-3" x="2398.71" y="1365.18" width="222.02" height="3.31" transform="translate(4880.41 2179.66) rotate(180)"/><path class="cls-17" d="M2029.94,656.66c2.78-69-55.07-99.69-114.23-99.69s-123.54,15.33-129.12,107.11c-3.59,59.06,27.89,95.39,118.54,95.39,30.57,0,54.32-4.82,72.52-13.42L2023,786.31l-22.26-55.65C2020.42,712.32,2028.73,686.45,2029.94,656.66Z" transform="translate(-139.03 -554.01)"/><path class="cls-17" d="M730.41,699.54c-3-74.75,59.63-107.95,123.69-107.95s133.76,16.59,139.8,116c3.89,63.94-30.2,103.28-128.35,103.28-33.1,0-58.82-5.22-78.53-14.53L738,839.92l24.11-60.26C740.71,759.8,731.71,731.79,730.41,699.54Z" transform="translate(-139.03 -554.01)"/><line class="cls-18" x1="659.33" y1="117.63" x2="798.27" y2="117.63"/><line class="cls-18" x1="659.33" y1="137.63" x2="737.09" y2="137.63"/><line class="cls-18" x1="754.37" y1="138.13" x2="798.27" y2="138.13"/><line class="cls-18" x1="659.33" y1="158.63" x2="798.27" y2="158.63"/><line class="cls-18" x1="1708.24" y1="63.39" x2="1847.18" y2="63.39"/><line class="cls-18" x1="1708.24" y1="84.39" x2="1847.18" y2="84.39"/><line class="cls-18" x1="1708.24" y1="105.39" x2="1769.15" y2="105.39"/><line class="cls-18" x1="1789.24" y1="105.39" x2="1850.15" y2="105.39"/><path class="cls-19" d="M251.73,1183.67s15.94-205.9,30.36-227.33" transform="translate(-139.03 -554.01)"/><line class="cls-19" x1="249.71" y1="419.53" x2="303.9" y2="600.32"/><line class="cls-19" x1="403.23" y1="386.98" x2="325.89" y2="388.89"/><path class="cls-19" d="M642.28,1228.9s57.86,143.12,24.53,193.85" transform="translate(-139.03 -554.01)"/><path class="cls-19" d="M717.65,1285.51s30.64,76.77,19.35,108.43" transform="translate(-139.03 -554.01)"/><path class="cls-19" d="M514.28,1156.81s85.92-30.38,103.78,10.31" transform="translate(-139.03 -554.01)"/><path class="cls-19" d="M1358.49,1215.46s-100.42,133.88-51.28,204.59" transform="translate(-139.03 -554.01)"/><path class="cls-19" d="M1415.46,1198.39s-29.93,38.95-44.52,128.94" transform="translate(-139.03 -554.01)"/><path class="cls-19" d="M1627.64,1179.89s-86.78-28-132.25-33.49" transform="translate(-139.03 -554.01)"/><path class="cls-19" d="M1786.32,940.8s-76.59-10.65-91.28,51.5" transform="translate(-139.03 -554.01)"/><line class="cls-19" x1="1275.29" y1="871.36" x2="1528.36" y2="866.81"/><line class="cls-19" x1="1408.8" y1="631.21" x2="1619.09" y2="629.08"/><line class="cls-19" x1="1711.69" y1="388.24" x2="1836.4" y2="388.61"/><line class="cls-19" x1="2199.44" y1="411.52" x2="2151.68" y2="573.81"/><path class="cls-19" d="M2415.54,957.69s-41.29-30.4-100.95-10.74" transform="translate(-139.03 -554.01)"/><path class="cls-19" d="M2128.73,1138H2090s-70.66-.8-77.81,41" transform="translate(-139.03 -554.01)"/><path class="cls-19" d="M1957.67,1308.6s-34.68,87.28,19.69,132.75" transform="translate(-139.03 -554.01)"/><line class="cls-19" x1="1572.38" y1="553.2" x2="1592.85" y2="483"/><path class="cls-19" d="M1799.92,610.31s45.91-93.35,189.25-34.13" transform="translate(-139.03 -554.01)"/><path class="cls-19" d="M1791.08,704.57s19.31,67.58,125.66,54.66" transform="translate(-139.03 -554.01)"/><path class="cls-19" d="M2023,786.31l-22.26-55.65s30.33-22.49,29.24-74" transform="translate(-139.03 -554.01)"/><path class="cls-19" d="M730.31,671.64s10.45-57,83.53-75.41" transform="translate(-139.03 -554.01)"/><path class="cls-19" d="M988.13,671.64s35.75,104.37-63,132.7" transform="translate(-139.03 -554.01)"/><path class="cls-19" d="M738,839.92l24.11-60.26s-22.93-26.16-26.72-45.9" transform="translate(-139.03 -554.01)"/></svg>