<svg height="496pt" viewBox="0 0 496 496" width="496pt" xmlns="http://www.w3.org/2000/svg"><path d="m457.710938 317.480469-81.710938-27.25v-16.574219c17.679688-11.558594 30.910156-29.304688 36.710938-50.136719 19.816406-2.359375 35.289062-19.078125 35.289062-39.519531v-87.015625c0-22.023437-14.230469-41.273437-34.984375-47.871094-20.917969-30.777343-55.535156-49.113281-92.792969-49.113281-61.878906 0-112.222656 50.34375-112.222656 112.222656v71.777344c0 20.441406 15.472656 37.160156 35.289062 39.519531 5.789063 20.839844 19.03125 38.578125 36.710938 50.136719v16.574219l-81.703125 27.234375c-11.761719 3.917968-21.625 11.503906-28.441406 21.472656-17.871094-21.539062-44.734375-34.9375-73.855469-34.9375-52.9375 0-96 43.0625-96 96s43.0625 96 96 96c24.175781 0 46.785156-9.257812 64-24.695312v24.695312h336v-125.40625c0-24.136719-15.382812-45.488281-38.289062-53.113281zm-42.046876-110.847657c.167969-2.199218.335938-4.394531.335938-6.632812v-38.527344c9.289062 3.3125 16 12.113282 16 22.527344 0 10.535156-6.871094 19.414062-16.335938 22.632812zm-95.441406-190.632812c32.25 0 62.175782 16.015625 80.058594 42.839844l2.773438 4.167968 3 .753907c15.28125 3.824219 25.945312 17.476562 25.945312 33.222656v55.222656c-4.992188-3.78125-10.839844-6.421875-17.265625-7.519531-3.109375-9.648438-12.070313-16.6875-22.734375-16.6875h-16c-22.054688 0-40-17.945312-40-40h-16c0 22.054688-17.945312 40-40 40h-16c-10.664062 0-19.625 7.039062-22.734375 16.679688-6.425781 1.105468-12.265625 3.746093-17.265625 7.519531v-39.984375c0-53.046875 43.167969-96.214844 96.222656-96.214844zm-96.222656 168c0-10.414062 6.710938-19.214844 16-22.527344v38.527344c0 2.238281.167969 4.433594.335938 6.632812-9.464844-3.21875-16.335938-12.097656-16.335938-22.632812zm32 16v-48c0-4.40625 3.59375-8 8-8h16c20.34375 0 38.191406-10.902344 48-27.175781 9.808594 16.273437 27.65625 27.175781 48 27.175781h16c4.40625 0 8 3.59375 8 8v48c0 39.695312-32.304688 72-72 72s-72-32.304688-72-72zm72 88c11.296875 0 22.0625-2.214844 32-6.113281v13.128906c-3.671875 14.710937-16.832031 24.984375-32 24.984375s-28.328125-10.273438-32-24.984375v-13.128906c9.9375 3.898437 20.703125 6.113281 32 6.113281zm-232 192c-44.113281 0-80-35.886719-80-80s35.886719-80 80-80c35.574219 0 67.199219 23.921875 76.902344 58.175781l1.648437 5.824219h209.449219v32h-32v32h-16v-32h-48v32h-16v-32h-97.449219l-1.648437 5.824219c-9.703125 34.253906-41.328125 58.175781-76.902344 58.175781zm384 0h-48v-80h-16v80h-240v-27.152344c4.265625-6.421875 7.808594-13.390625 10.449219-20.847656h69.550781v32h48v-32h16v32h48v-32h32v-64h-213.550781c-1.792969-5.054688-4.015625-9.878906-6.570313-14.480469 4.648438-9.863281 13.015625-17.375 23.480469-20.871093l79.59375-26.527344c7.558594 17.894531 25.109375 29.878906 45.046875 29.878906s37.488281-11.984375 45.054688-29.878906l79.601562 26.527344c16.351562 5.457031 27.34375 20.703124 27.34375 37.945312zm0 0"/><path d="m296 168c0 4.417969-3.582031 8-8 8s-8-3.582031-8-8 3.582031-8 8-8 8 3.582031 8 8zm0 0"/><path d="m376 168c0 4.417969-3.582031 8-8 8s-8-3.582031-8-8 3.582031-8 8-8 8 3.582031 8 8zm0 0"/><path d="m360 216h-16c0 8.824219-7.175781 16-16 16s-16-7.175781-16-16h-16c0 17.648438 14.351562 32 32 32s32-14.351562 32-32zm0 0"/><path d="m72 360c-22.054688 0-40 17.945312-40 40s17.945312 40 40 40 40-17.945312 40-40-17.945312-40-40-40zm0 64c-13.230469 0-24-10.769531-24-24s10.769531-24 24-24 24 10.769531 24 24-10.769531 24-24 24zm0 0"/><path d="m192 147.609375-96-61.097656-96 61.097656v124.390625h192zm-35.472656-3.609375h-121.054688l60.527344-38.511719zm-44.527344 112h-32v-48h32zm16 0v-64h-64v64h-48v-96h160v96zm0 0"/></svg>