<?xml version="1.0" encoding="utf-8"?>
<!-- Generator: Adobe Illustrator 24.1.1, SVG Export Plug-In . SVG Version: 6.00 Build 0)  -->
<svg version="1.1" id="Layer_1" xmlns="http://www.w3.org/2000/svg" xmlns:xlink="http://www.w3.org/1999/xlink" x="0px" y="0px"
	 viewBox="0 0 512 512" style="enable-background:new 0 0 512 512;" xml:space="preserve">
<style type="text/css">
	.st0{fill:#F7F7F7;}
	.st1{fill:#A3A3A3;}
</style>
<circle class="st0" cx="299.3" cy="260.9" r="186.6"/>
<g id="_x30_34---Car-Fire">
	<path id="Shape" class="st1" d="M394.9,216.7c0.5-13.2-1.6-26.4-6.2-38.9c-1.5-3.6-5.1-6-9-5.8c-3.9,0.2-7.3,2.8-8.4,6.6
		c-1.2,6.1-6.8,10.4-13.1,9.9c-3.4,0-5.6-0.8-6.2-2.3c-2.2-3.7,0-13.5,5.1-23.3c11.9-22.2,9.3-40.1-7.6-53.2
		c-9.2-6.9-21.5-15.4-27.6-24.3c-1.8-2.4-4.6-3.8-7.6-3.8s-5.8,1.4-7.6,3.8c-6.2,9-18.6,17.4-27.4,24.3
		c-13.4,9.4-18.6,26.8-12.4,41.9c-47.8-2.5-111.4-4.5-158.7,5.5c-15.9,2.8-28.7,14.8-32.4,30.6l-9.8,50.1c-8-8.6-16.8-7.9-24.1-7.9
		c-10.3,0-18.6,8.3-18.6,18.6v6.2c0,10.3,8.3,18.6,18.6,18.6h14.7c-26.3,52.6-16.3,32.6-19.7,41c-1.7,6-1.2,2.4-1.2,82.8
		c0,4.4,2.4,8.5,6.2,10.6v26.5c0,10.3,8.3,18.6,18.6,18.6h31c10.3,0,18.6-8.3,18.6-18.6v-24.8h198.1v24.8c0,10.3,8.3,18.6,18.6,18.6
		h31c10.3,0,18.6-8.3,18.6-18.6v-26.5c3.8-2.2,6.2-6.3,6.2-10.6v-74.7c0-9.5-2.2-11.6-24.8-56.8C379.3,257,394.9,241,394.9,216.7
		L394.9,216.7z M88.1,190c2.8-10.9,11.8-19.1,22.8-20.8c15.9-3.4,45.9-7.4,98.3-7.4c15.5,0,45,1.5,63.3,2.5
		c4.7,9.2,6.6,18.6,4.5,21.9c-0.9,1.5-3,2.3-6.2,2.3c-6.2,0.5-11.8-3.8-13.1-9.9c-0.9-3.1-3.4-5.5-6.6-6.3s-6.5,0.2-8.8,2.5
		c-35.9-1.3-92.9-1.1-128.1,6.2c-6.6,1-12,5.9-13.7,12.4l-13.7,67.5H74.5L88.1,190z M296.4,226c6,1.9,12.6,0.7,17.5-3.3
		c4.9-4,7.4-10.2,6.7-16.5c21.9,13,11.6,54.7-6.2,54.7C301.3,260.9,293.5,238.4,296.4,226L296.4,226z M48.2,397.1v-74.3h321.9v74.3
		H48.2z M52.1,310.4l18.6-37.1h277.1l18.6,37.1H52.1z M234,208.2l-19,52.7h-36.3l27.1-74.3c9,0,17.6,0,31.5,0.5
		C235.4,194,234.3,201,234,208.2L234,208.2z M165.4,260.9H99.5l13-65c0.9-1.5,2.4-2.5,4.1-2.7c25.1-4.5,50.5-6.7,75.9-6.6
		L165.4,260.9z M228.1,260.9l9.3-25.7c4.8,11.1,13.3,20.1,24,25.7H228.1z M35.8,254.7v-6.2c0-3.4,2.8-6.2,6.2-6.2h6.2
		c6.8,0,12.4,5.5,12.4,12.4v6.2H42C38.6,260.9,35.8,258.1,35.8,254.7z M97.8,434.2c0,3.4-2.8,6.2-6.2,6.2h-31
		c-3.4,0-6.2-2.8-6.2-6.2v-24.8h43.3V434.2z M364,434.2c0,3.4-2.8,6.2-6.2,6.2h-31c-3.4,0-6.2-2.8-6.2-6.2v-24.8H364V434.2z
		 M338,258.5c5-8.4,7.5-18.1,7.4-27.9c1-15.7-7.7-30.5-22-37.1c-3.8-1.7-8.2-1.1-11.4,1.5c-3.2,2.6-4.7,6.8-3.9,10.8
		c1,5.4-3.7,10-8.2,8.1c-2.9-1.3-6.3-1.2-9.1,0.1c-2.9,1.4-5,3.9-5.9,7c-2.8,12.7-0.6,26,6.2,37.1c-24.8-5.1-44.5-18.6-44.5-41.9
		c-0.1-9,0.8-18.1,2.8-26.9c4.7,7.2,12.8,11.4,21.4,11.1c6.6,0.6,13-2.4,16.8-7.9c6.7-11.3-1.2-28.5-4.9-35.5
		c-18.9-35.5,12.1-37.1,31.7-61.2c19.6,24.1,50.6,25.8,31.7,61.2c-3.7,6.9-11.6,24.2-4.9,35.5c3.7,5.7,10.3,8.9,17.1,8.3
		c8.6,0.3,16.7-3.9,21.4-11.1c2,8.7,3,17.7,2.8,26.7C382.5,240,362.6,253.4,338,258.5L338,258.5z"/>
	<path id="Shape_1_" class="st1" d="M128,344.5c-1.4-5.5-6.3-9.4-12-9.3H73c-3.8,0-7.4,1.8-9.8,4.8c-2.3,3-3.2,6.9-2.2,10.6
		l3.1,12.4c1.4,5.5,6.3,9.4,12,9.3h43c3.8,0,7.4-1.8,9.8-4.8c2.3-3,3.2-6.9,2.2-10.6L128,344.5z M76.1,359.9L73,347.5h43l3.1,12.4
		H76.1z"/>
	<path id="Shape_2_" class="st1" d="M345.4,335.1h-43c-5.7,0-10.6,3.8-12,9.3l-3.1,12.4c-0.9,3.7-0.1,7.6,2.2,10.6
		c2.3,3,6,4.8,9.8,4.8h43c5.7,0,10.6-3.8,12-9.3l3.1-12.4c0.9-3.7,0.1-7.6-2.2-10.6C352.8,336.9,349.2,335.1,345.4,335.1z
		 M342.3,359.9h-43l3.1-12.4h43L342.3,359.9z"/>
	<path id="Shape_3_" class="st1" d="M263.2,335.1h-108c-3.8,0-7.4,1.8-9.8,4.8c-2.3,3-3.2,6.9-2.2,10.6l3.1,12.4
		c1.4,5.5,6.3,9.4,12,9.3h101.8c5.7,0,10.6-3.8,12-9.3c3-11.9,5.5-17,0.9-23C270.6,336.9,267,335.1,263.2,335.1L263.2,335.1z
		 M260.1,359.9H158.3l-3.1-12.4h108L260.1,359.9z"/>
</g>
</svg>
