<?xml version="1.0" encoding="utf-8"?>
<!-- Generator: Adobe Illustrator 24.1.1, SVG Export Plug-In . SVG Version: 6.00 Build 0)  -->
<svg version="1.1" id="Layer_1" xmlns="http://www.w3.org/2000/svg" xmlns:xlink="http://www.w3.org/1999/xlink" x="0px" y="0px"
	 viewBox="0 0 512 512" style="enable-background:new 0 0 512 512;" xml:space="preserve">
<style type="text/css">
	.st0{fill:#F7F7F7;}
	.st1{fill:#A3A3A3;}
</style>
<circle class="st0" cx="286" cy="298.7" r="186.6"/>
<g>
	<path class="st1" d="M365.7,441.3H53.8c-2.8,0-5-2.2-5-5V325.7c0-2.8,2.2-5,5-5h311.9c2.8,0,5,2.2,5,5v110.7
		C370.7,439.1,368.5,441.3,365.7,441.3z M58.8,431.3h301.8V330.7H58.8V431.3z"/>
	<path class="st1" d="M114.2,456.4H53.8c-2.8,0-5-2.2-5-5v-15.1c0-2.8,2.2-5,5-5c2.8,0,5,2.2,5,5v10.1h50.3v-10.1c0-2.8,2.2-5,5-5
		c2.8,0,5,2.2,5,5v15.1C119.2,454.2,116.9,456.4,114.2,456.4z"/>
	<path class="st1" d="M365.7,456.4h-60.4c-2.8,0-5-2.2-5-5v-15.1c0-2.8,2.2-5,5-5c2.8,0,5,2.2,5,5v10.1h50.3v-10.1c0-2.8,2.2-5,5-5
		c2.8,0,5,2.2,5,5v15.1C370.7,454.2,368.5,456.4,365.7,456.4z"/>
	<path class="st1" d="M53.8,189.8c-2.8,0-5-2.2-5-5c0-16.6,13.5-30.2,30.2-30.2c2.8,0,5,2.2,5,5c0,2.8-2.2,5-5,5
		c-11.1,0-20.1,9-20.1,20.1C58.8,187.6,56.6,189.8,53.8,189.8z"/>
	<path class="st1" d="M365.7,189.8c-2.8,0-5-2.2-5-5c0-11.1-9-20.1-20.1-20.1c-2.8,0-5-2.2-5-5c0-2.8,2.2-5,5-5
		c16.6,0,30.2,13.5,30.2,30.2C370.7,187.6,368.5,189.8,365.7,189.8z"/>
	<path class="st1" d="M340.5,164.7H78.9c-2.8,0-5-2.2-5-5c0-2.8,2.2-5,5-5h261.6c2.8,0,5,2.2,5,5
		C345.6,162.4,343.3,164.7,340.5,164.7z"/>
	<path class="st1" d="M365.7,215c-2.8,0-5-2.2-5-5v-25.2c0-2.8,2.2-5,5-5c2.8,0,5,2.2,5,5v25.2C370.7,212.7,368.5,215,365.7,215z"/>
	<path class="st1" d="M365.7,215H53.8c-2.8,0-5-2.2-5-5c0-2.8,2.2-5,5-5h311.9c2.8,0,5,2.2,5,5C370.7,212.7,368.5,215,365.7,215z"/>
	<path class="st1" d="M53.8,215c-2.8,0-5-2.2-5-5v-25.2c0-2.8,2.2-5,5-5c2.8,0,5,2.2,5,5v25.2C58.8,212.7,56.6,215,53.8,215z"/>
	<path class="st1" d="M73.9,275.4c-2.1,0-4.1-1.3-4.8-3.4L49,211.5c-0.9-2.6,0.5-5.5,3.2-6.4c2.7-0.9,5.5,0.5,6.4,3.2l20.1,60.4
		c0.9,2.6-0.5,5.5-3.2,6.4C75,275.3,74.4,275.4,73.9,275.4z"/>
	<path class="st1" d="M345.6,275.4c-0.5,0-1.1-0.1-1.6-0.3c-2.6-0.9-4.1-3.7-3.2-6.4l20.1-60.4c0.9-2.6,3.7-4,6.4-3.2
		c2.6,0.9,4.1,3.7,3.2,6.4l-20.1,60.4C349.6,274,347.7,275.4,345.6,275.4z"/>
	<path class="st1" d="M53.8,330.7c-0.6,0-1.2-0.1-1.7-0.3c-2.6-0.9-4-3.8-3-6.4l20.1-55.4c0.9-2.6,3.8-3.9,6.4-3
		c2.6,0.9,4,3.8,3,6.4l-20.1,55.4C57.8,329.5,55.8,330.7,53.8,330.7z"/>
	<path class="st1" d="M365.7,330.7c-2.1,0-4-1.3-4.7-3.3l-20.1-55.4c-1-2.6,0.4-5.5,3-6.4c2.6-0.9,5.5,0.4,6.4,3l20.1,55.4
		c1,2.6-0.4,5.5-3,6.4C366.8,330.6,366.2,330.7,365.7,330.7z"/>
	<path class="st1" d="M200,275.4H73.9c-2.8,0-5-2.2-5-5c0-2.8,2.2-5,5-5H200c2.8,0,5,2.2,5,5C205.1,273.1,202.8,275.4,200,275.4z"/>
	<path class="st1" d="M79.3,330.7c-0.9,0-1.7-0.2-2.5-0.7c-2.4-1.4-3.2-4.5-1.8-6.9c8.1-14,23.1-22.6,39.2-22.6s31.1,8.7,39.2,22.6
		c1.4,2.4,0.6,5.5-1.8,6.9c-2.4,1.4-5.5,0.6-6.9-1.8c-6.3-10.8-18-17.6-30.5-17.6s-24.2,6.7-30.5,17.6
		C82.7,329.8,81,330.7,79.3,330.7z"/>
	<path class="st1" d="M114.1,310.6c-1.3,0-2.6-0.5-3.6-1.5c-2-2-2-5.2,0-7.1l15.1-15.1c2-2,5.2-2,7.1,0c2,2,2,5.2,0,7.1l-15.1,15.1
		C116.7,310.1,115.4,310.6,114.1,310.6z"/>
	<path class="st1" d="M129.2,295.5c-1.3,0-2.6-0.5-3.6-1.5l-3.6-3.6h-16l-3.6,3.6c-2,2-5.1,2-7.1,0c-2-2-2-5.1,0-7.1l5-5
		c0.9-0.9,2.2-1.5,3.6-1.5h20.1c1.3,0,2.6,0.5,3.6,1.5l5,5c2,2,2,5.1,0,7.1C131.8,295,130.5,295.5,129.2,295.5z"/>
	<path class="st1" d="M114.1,310.6c-1.3,0-2.6-0.5-3.6-1.5L95.5,294c-2-2-2-5.1,0-7.1c2-2,5.2-2,7.1,0l15.1,15.1c2,2,2,5.1,0,7.1
		C116.7,310.1,115.4,310.6,114.1,310.6z"/>
	<path class="st1" d="M189.6,370.9c-2.8,0-5-2.2-5-5v-40.2c0-2.8,2.2-5,5-5c2.8,0,5,2.2,5,5v40.2
		C194.7,368.7,192.4,370.9,189.6,370.9z"/>
	<path class="st1" d="M229.9,370.9h-40.2c-2.8,0-5-2.2-5-5c0-2.8,2.2-5,5-5h40.2c2.8,0,5,2.2,5,5
		C234.9,368.7,232.7,370.9,229.9,370.9z"/>
	<path class="st1" d="M229.9,370.9c-2.8,0-5-2.2-5-5v-40.2c0-2.8,2.2-5,5-5c2.8,0,5,2.2,5,5v40.2
		C234.9,368.7,232.7,370.9,229.9,370.9z"/>
	<path class="st1" d="M209.7,350.8c-2.8,0-5-2.2-5-5v-20.2c0-2.8,2.2-5,5-5c2.8,0,5,2.2,5,5v20.2
		C214.8,348.6,212.5,350.8,209.7,350.8z"/>
	<path class="st1" d="M189.6,215c-2.8,0-5-2.2-5-5v-20.1c0-2.8,2.2-5,5-5c2.8,0,5,2.2,5,5v20.1C194.6,212.7,192.4,215,189.6,215z"/>
	<path class="st1" d="M229.9,194.9h-40.3c-2.8,0-5-2.2-5-5c0-2.8,2.2-5,5-5h40.3c2.8,0,5,2.2,5,5
		C234.9,192.6,232.7,194.9,229.9,194.9z"/>
	<path class="st1" d="M229.9,215c-2.8,0-5-2.2-5-5v-20.1c0-2.8,2.2-5,5-5c2.8,0,5,2.2,5,5v20.1C234.9,212.7,232.7,215,229.9,215z"/>
	<path class="st1" d="M330.5,330.7c-8.3,0-15.1-6.8-15.1-15.1c0-8.3,6.8-15.1,15.1-15.1c8.3,0,15.1,6.8,15.1,15.1
		C345.6,323.9,338.8,330.7,330.5,330.7z M330.5,310.6c-2.8,0-5,2.2-5,5c0,2.8,2.3,5,5,5c2.8,0,5-2.3,5-5
		C335.5,312.8,333.3,310.6,330.5,310.6z"/>
	<path class="st1" d="M335.6,350.8c-8.3,0-15.1-6.8-15.1-15.1c0-8.3,6.8-15.1,15.1-15.1c8.3,0,15.1,6.8,15.1,15.1
		C350.6,344,343.9,350.8,335.6,350.8z M335.6,330.7c-2.8,0-5,2.2-5,5c0,2.8,2.3,5,5,5c2.8,0,5-2.3,5-5
		C340.6,333,338.3,330.7,335.6,330.7z"/>
	<path class="st1" d="M335.6,370.9c-8.3,0-15.1-6.8-15.1-15.1c0-8.3,6.8-15.1,15.1-15.1c8.3,0,15.1,6.8,15.1,15.1
		C350.6,364.2,343.9,370.9,335.6,370.9z M335.6,350.8c-2.8,0-5,2.2-5,5c0,2.8,2.3,5,5,5c2.8,0,5-2.3,5-5
		C340.6,353.1,338.3,350.8,335.6,350.8z"/>
	<path class="st1" d="M335.6,391.1c-8.3,0-15.1-6.8-15.1-15.1c0-8.3,6.8-15.1,15.1-15.1c8.3,0,15.1,6.8,15.1,15.1
		C350.6,384.3,343.9,391.1,335.6,391.1z M335.6,371c-2.8,0-5,2.2-5,5c0,2.8,2.3,5,5,5c2.8,0,5-2.3,5-5
		C340.6,373.2,338.3,371,335.6,371z"/>
	<path class="st1" d="M335.6,411.2c-8.3,0-15.1-6.8-15.1-15.1c0-8.3,6.8-15.1,15.1-15.1c8.3,0,15.1,6.8,15.1,15.1
		C350.6,404.4,343.9,411.2,335.6,411.2z M335.6,391.1c-2.8,0-5,2.2-5,5c0,2.8,2.3,5,5,5c2.8,0,5-2.3,5-5
		C340.6,393.4,338.3,391.1,335.6,391.1z"/>
	<path class="st1" d="M335.5,421.2C335.5,421.2,335.5,421.2,335.5,421.2c-2.8,0-5-2.3-5-5l0-10c0-2.8,2.3-5,5-5h0c2.8,0,5,2.3,5,5
		l0,10C340.5,419,338.3,421.2,335.5,421.2z"/>
	<path class="st1" d="M300.3,330.7c-2.8,0-5-2.2-5-5c0-33.3-27.1-60.4-60.4-60.4c-33.3,0-60.4,27.1-60.4,60.4c0,2.8-2.2,5-5,5
		c-2.8,0-5-2.2-5-5c0-38.8,31.6-70.4,70.4-70.4c38.8,0,70.4,31.6,70.4,70.4C305.3,328.4,303.1,330.7,300.3,330.7z"/>
	<path class="st1" d="M285.2,330.7c-2.8,0-5-2.2-5-5c0-25-20.3-45.3-45.3-45.3s-45.3,20.3-45.3,45.3c0,2.8-2.2,5-5,5
		c-2.8,0-5-2.2-5-5c0-30.5,24.8-55.3,55.3-55.3s55.3,24.8,55.3,55.3C290.2,328.4,288,330.7,285.2,330.7z"/>
	<path class="st1" d="M345.6,275.4h-75.8c-2.8,0-5-2.2-5-5c0-2.8,2.2-5,5-5h75.8c2.8,0,5,2.2,5,5
		C350.6,273.1,348.3,275.4,345.6,275.4z"/>
	<path class="st1" d="M234.9,280.4c-2.8,0-5-2.2-5-5v-15.1c0-2.8,2.2-5,5-5c2.8,0,5,2.2,5,5v15.1
		C239.9,278.1,237.7,280.4,234.9,280.4z"/>
	<path class="st1" d="M209.7,287.1c-1.7,0-3.4-0.9-4.4-2.5l-7.5-13.1c-1.4-2.4-0.6-5.5,1.8-6.9c2.4-1.4,5.5-0.6,6.9,1.8l7.5,13.1
		c1.4,2.4,0.6,5.5-1.8,6.9C211.5,286.9,210.6,287.1,209.7,287.1z"/>
	<path class="st1" d="M191.3,305.5c-0.9,0-1.7-0.2-2.5-0.7l-13.1-7.5c-2.4-1.4-3.2-4.5-1.8-6.9c1.4-2.4,4.5-3.2,6.9-1.8l13.1,7.5
		c2.4,1.4,3.2,4.5,1.8,6.9C194.8,304.6,193.1,305.5,191.3,305.5z"/>
	<path class="st1" d="M278.5,305.5c-1.7,0-3.4-0.9-4.4-2.5c-1.4-2.4-0.6-5.5,1.8-6.9l13.1-7.5c2.4-1.4,5.5-0.6,6.9,1.8
		c1.4,2.4,0.6,5.5-1.8,6.9l-13.1,7.5C280.2,305.3,279.3,305.5,278.5,305.5z"/>
	<path class="st1" d="M260,287.1c-0.9,0-1.7-0.2-2.5-0.7c-2.4-1.4-3.2-4.5-1.8-6.9l7.6-13.1c1.4-2.4,4.5-3.2,6.9-1.8
		c2.4,1.4,3.2,4.5,1.8,6.9l-7.6,13.1C263.5,286.2,261.8,287.1,260,287.1z"/>
</g>
</svg>
