<?xml version="1.0" encoding="utf-8"?>
<!-- Generator: Adobe Illustrator 24.1.1, SVG Export Plug-In . SVG Version: 6.00 Build 0)  -->
<svg version="1.1" id="Layer_1" xmlns="http://www.w3.org/2000/svg" xmlns:xlink="http://www.w3.org/1999/xlink" x="0px" y="0px"
	 viewBox="0 0 512 512" style="enable-background:new 0 0 512 512;" xml:space="preserve">
<style type="text/css">
	.st0{fill:#F7F7F7;}
	.st1{fill:#A3A3A3;}
</style>
<circle class="st0" cx="286" cy="298.7" r="186.6"/>
<g>
	<path class="st1" d="M358.9,324.7c-11.6-2.4-27.4-3.7-45.5-3.7c-7.5,0-14.6,0.2-21.1,0.6V177.5c0-9.3-7.6-16.8-16.8-16.8h-191
		c-9.8,0-16.8,8.1-16.8,19.3v254c0,6.7,7.4,14.4,16.8,14.4h161.3v7c0,10.4,16.6,13.8,22.1,15c11.6,2.4,27.4,3.7,45.5,3.7
		c18.2,0,33.9-1.3,45.5-3.7c5.5-1.1,22.1-4.6,22.1-15V339.7C381,329.3,364.4,325.8,358.9,324.7z M371.8,397.5
		c-0.1,0.2-2,3.6-16.3,6.3c-10.9,2.1-25.4,3.2-42.1,3.2c-16.7,0-31.2-1.1-42.1-3.2c-14.7-2.8-16.3-6.3-16.3-6.3v-17.9
		c4.8,2.3,10.2,3.4,12.9,3.9c11.6,2.4,27.4,3.7,45.5,3.7c18.2,0,33.9-1.3,45.5-3.7c2.7-0.6,8.1-1.7,12.9-3.9V397.5z M185.8,398.4
		c-2.5,0-4.6,2.1-4.6,4.6v11.6h-69.8c-2.4,0-4-2-4-2.8v-45.6h73.8v15.3c0,2.5,2.1,4.6,4.6,4.6c2.5,0,4.6-2.1,4.6-4.6v-15.3h55.4
		v48.4h-55.4V403C190.3,400.5,188.3,398.4,185.8,398.4z M264.1,325.5c-7,1.7-18.4,5.6-18.4,14.1v17.4h-55.4v-48.4h69.8
		c2.2,0,4,1.8,4,4V325.5z M181.2,357.1h-73.8V314c0-3.1,1.6-5.2,4-5.2h69.8V357.1z M371.8,368.6c-0.1,0.2-2,3.6-16.3,6.3
		c-10.9,2.1-25.4,3.2-42.1,3.2c-16.7,0-31.2-1.1-42.1-3.2c-14.7-2.8-16.3-6.3-16.3-6.3v-17.9c4.8,2.3,10.2,3.4,12.9,3.9
		c11.6,2.4,27.4,3.7,45.5,3.7c18.2,0,33.9-1.3,45.5-3.7c2.7-0.6,8.1-1.7,12.9-3.9V368.6z M355.5,333.4c13.8,2.7,16.1,5.9,16.3,6.3
		c-0.2,0.4-2.5,3.6-16.3,6.3c-10.9,2.1-25.4,3.2-42.1,3.2c-16.7,0-31.2-1.1-42.1-3.2c-13.8-2.7-16.1-5.9-16.3-6.3
		c0.2-0.4,2.5-3.6,16.3-6.3c10.9-2.1,25.4-3.2,42.1-3.2C330,330.2,344.6,331.3,355.5,333.4z M84.5,439.1c-4.4,0-7.7-3.7-7.7-5.2
		V284.3H228c2.5,0,4.6-2.1,4.6-4.6s-2.1-4.6-4.6-4.6H76.8v-95.2c0-6.1,3-10.1,7.7-10.1h191c4.2,0,7.7,3.4,7.7,7.7v97.6h-33.7
		c-2.5,0-4.6,2.1-4.6,4.6s2.1,4.6,4.6,4.6h33.7v38.1c-3.5,0.4-6.7,0.8-9.8,1.3v-11c0-7.3-5.9-13.2-13.2-13.2H111.4
		c-7.5,0-13.2,6.2-13.2,14.4v97.9c0,6.4,6.1,11.9,13.2,11.9h134.3v15.3H84.5z M355.5,461.6c-10.9,2.1-25.4,3.2-42.1,3.2
		c-16.7,0-31.2-1.1-42.1-3.2c-14.7-2.8-16.3-6.3-16.3-6.3v-17.9c4.8,2.3,10.2,3.4,12.9,3.9c11.6,2.4,27.4,3.7,45.5,3.7
		c8.7,0,17-0.3,24.6-0.9c2.5-0.2,4.4-2.4,4.2-4.9c-0.2-2.5-2.4-4.4-4.9-4.2c-7.4,0.6-15.4,0.9-23.9,0.9c-16.7,0-31.2-1.1-42.1-3.2
		c-14.7-2.8-16.3-6.3-16.3-6.3v-17.9c4.8,2.3,10.2,3.4,12.9,3.9c11.6,2.4,27.4,3.7,45.5,3.7c18.2,0,33.9-1.3,45.5-3.7
		c2.7-0.6,8.1-1.7,12.9-3.9v17.9c-0.1,0.2-1.8,3.2-13.9,5.8c-2.5,0.5-4,3-3.5,5.5c0.5,2.5,3,4.1,5.5,3.5c2.5-0.5,7.5-1.6,12-3.7
		v17.9C371.7,455.5,369.8,458.9,355.5,461.6z"/>
	<path class="st1" d="M273.9,246.6v-48.4c0-7.3-5.9-13.2-13.2-13.2H159.4c-2.5,0-4.6,2.1-4.6,4.6s2.1,4.6,4.6,4.6h101.3
		c2.2,0,4,1.8,4,4v48.4c0,2.2-1.8,4-4,4H111.4c-2.2,0-4-1.8-4-4v-48.4c0-2.2,1.8-4,4-4H138c2.5,0,4.6-2.1,4.6-4.6s-2.1-4.6-4.6-4.6
		h-26.6c-7.3,0-13.2,5.9-13.2,13.2v48.4c0,7.3,5.9,13.2,13.2,13.2h149.3C268,259.8,273.9,253.9,273.9,246.6z"/>
	<path class="st1" d="M164,385.9H131c-2.5,0-4.6,2.1-4.6,4.6s2.1,4.6,4.6,4.6H164c2.5,0,4.6-2.1,4.6-4.6S166.6,385.9,164,385.9z"/>
	<path class="st1" d="M134,337.5h8.9v8.9c0,2.5,2.1,4.6,4.6,4.6c2.5,0,4.6-2.1,4.6-4.6v-8.9h8.9c2.5,0,4.6-2.1,4.6-4.6
		s-2.1-4.6-4.6-4.6h-8.9v-8.9c0-2.5-2.1-4.6-4.6-4.6c-2.5,0-4.6,2.1-4.6,4.6v8.9H134c-2.5,0-4.6,2.1-4.6,4.6S131.5,337.5,134,337.5z
		"/>
	<path class="st1" d="M237.1,320.2c-1.8-1.8-4.7-1.8-6.5,0l-6.3,6.3l-6.3-6.3c-1.8-1.8-4.7-1.8-6.5,0c-1.8,1.8-1.8,4.7,0,6.5
		l6.3,6.3l-6.3,6.3c-1.8,1.8-1.8,4.7,0,6.5c1.8,1.8,4.7,1.8,6.5,0l6.3-6.3l6.3,6.3c1.8,1.8,4.7,1.8,6.5,0c1.8-1.8,1.8-4.7,0-6.5
		l-6.3-6.3l6.3-6.3C238.9,324.9,238.9,322,237.1,320.2z"/>
	<path class="st1" d="M214,405.6c1.2,0,2.3-0.4,3.2-1.3l20.8-20.8c1.8-1.8,1.8-4.7,0-6.5c-1.8-1.8-4.7-1.8-6.5,0l-20.8,20.8
		c-1.8,1.8-1.8,4.7,0,6.5C211.6,405.1,212.8,405.6,214,405.6L214,405.6z"/>
	<g>
		<circle class="st1" cx="215.4" cy="378.8" r="4.6"/>
		<circle class="st1" cx="233.8" cy="402.1" r="4.6"/>
	</g>
	<path class="st1" d="M245.4,242c5.9,0,10.7-4.8,10.7-10.7v-17.7c0-5.9-4.8-10.7-10.7-10.7h-8.6c-5.9,0-10.7,4.8-10.7,10.7v17.7
		c0,5.9,4.8,10.7,10.7,10.7H245.4z M235.3,231.3v-17.7c0-0.8,0.7-1.5,1.5-1.5h8.6c0.8,0,1.5,0.7,1.5,1.5v17.7c0,0.8-0.7,1.5-1.5,1.5
		h-8.6C236,232.9,235.3,232.2,235.3,231.3z"/>
</g>
</svg>
