<svg id="_лой_1" data-name="‘лой_1" xmlns="http://www.w3.org/2000/svg" viewBox="0 0 2188.8 725.84"><defs><style>.cls-1{fill:#d8d8d8;}.cls-2{fill:#efefef;}.cls-3{fill:#a5aaaa;}.cls-4{fill:#535454;}.cls-5{fill:#fff;}.cls-6{fill:#d0d0d0;}.cls-7{fill:#636363;}.cls-8{fill:#7a7a7a;}.cls-9{fill:#dcdbdd;}.cls-10{fill:#6e448e;}.cls-11{fill:#b6b6b7;}.cls-12{fill:#cecece;}.cls-13{fill:#717272;}.cls-14{fill:#f9f9f9;}.cls-15{fill:#ece7ef;}.cls-16{fill:#bbbbbc;}.cls-17{fill:#afafaf;}.cls-18{fill:#afcdfb;}.cls-19{fill:#2e3552;}</style></defs><path class="cls-1" d="M735.28,503.34s-12.73-29.49,10.6-38.47c0,0,16.26-4,27.21.1,0,0-24.05,21.6-19.75,25.83s25-26,25-26,32.08,6.65,40.61,14.58c0,0-33.39,13.52-28.19,16.55s40.6-9.41,40.6-9.41,27.45,13.94,20.42,31.14-18.72,19.55-23,17.72S802,515.77,800.31,519.19s10.13,20,20.78,23.89c0,0-27.43,16.19-39,5.47s-9.52-21.39-16.78-27.89-14.5-8.73-12.23-3.7,16.4,13.62,18.58,23.69,4.74,17.19-8.66,10.71-33-23.85-30.38-35.94Z" transform="translate(-20.92 -23.8)"/><path class="cls-1" d="M837.44,513.71s-77.78-27.48-102.16-10.37c0,0-7.42,10.32-22.51,17.13l-3.4,4.45s18.11-10.14,23.26-9.5C732.63,515.42,733.66,485.16,837.44,513.71Z" transform="translate(-20.92 -23.8)"/><path class="cls-1" d="M712.77,520.47s-20.78,7.25-28.88,29.21l3,1.23S699.43,529.5,712,523.5,712.77,520.47,712.77,520.47Z" transform="translate(-20.92 -23.8)"/><path class="cls-1" d="M648.57,409.22s37.28-7.92,30-36.66c0,0-7.25-18.5-18.77-26.26,0,0-4.41,38.1-11.45,36.84s8-42.1,8-42.1-28.45-26.48-42-29.29c0,0,9.84,41.6,3.33,38.64s-18.76-45.75-18.76-45.75-32.33-17-44.15,1.61-6.08,31.54-1.39,34.39,37.42,12.55,35.26,16.52-26.28,3.91-37.38-3.71c0,0,3.16,37.66,21.47,41.49s27.24-5.47,38.51-2.9,18.4,8,12,9.29-24.44-6.52-35.68-1.73-19.88,7.22-4.42,15.74,45.76,15.61,55.64,4.75Z" transform="translate(-20.92 -23.8)"/><path class="cls-1" d="M568.42,317.47s80,56.41,80.15,91.75c0,0-4.9,14.27-1.13,33.55l-2,6.35s-2.6-24.49-6.76-29C638.7,420.09,667.28,398.32,568.42,317.47Z" transform="translate(-20.92 -23.8)"/><path class="cls-1" d="M647.44,442.77s7.24,25.08-8.45,48l-3.23-2s12.09-26.86,9.28-43.13S647.44,442.77,647.44,442.77Z" transform="translate(-20.92 -23.8)"/><path class="cls-1" d="M706.72,400.39s-34.59-36.45-5.17-62.2c0,0,21.7-14.68,40-14.5,0,0-23.67,44.67-15.09,48.56s22.79-51.68,22.79-51.68,50.68-7.51,67.47-.46c0,0-41.74,37.83-32.47,39.49s54.55-35.7,54.55-35.7,47.81,5.67,46.75,34.72-16.95,38.8-24.17,38.4-50-14.32-50.65-8.39,25.64,23.88,43.39,23.88c0,0-31.56,38.55-54.31,29s-25.5-26.28-39.67-31.91-26-5-19.94,1.15,31.42,11.17,40,24.77,16.21,22.7-6.94,20.4-61.37-17.22-64-36.4Z" transform="translate(-20.92 -23.8)"/><path class="cls-1" d="M862.3,360.58s-129,1.55-155.58,39.81c0,0-5.34,19.15-23.82,37.28L680.29,446s21.13-24.65,29-26.48C709.33,419.56,694.54,374.57,862.3,360.58Z" transform="translate(-20.92 -23.8)"/><path class="cls-1" d="M682.9,437.67s-26.61,21.84-26.68,58.46l5,.19s6.91-38.21,22.12-53.78S682.9,437.67,682.9,437.67Z" transform="translate(-20.92 -23.8)"/><path class="cls-2" d="M1130.43,488.68c2.59,7.09,27.5,13.68,64.48,19.5,6.51,1,13.4,2,20.61,3,125.84,17.08,470.5,26.62,491.74,21.58,29.36-7,87.77-347.25,87.77-347.25s-172-3.43-308.59-5.11c-46.73-.56-192.66,1.6-248.8,11C1191.59,199.05,1126.24,477.18,1130.43,488.68Z" transform="translate(-20.92 -23.8)"/><path class="cls-3" d="M1187.38,445s59.12-225.19,63.39-244.11c1.9-8.44,7.76-11.49,13.66-12.27-10.39-1-18-1.07-18-1.07-20.46,0-38.64,13.69-45.2,34-14.32,44.38-42.77,129.63-69.48,213C1133.15,434.52,1187.38,445,1187.38,445Z" transform="translate(-20.92 -23.8)"/><path class="cls-3" d="M851.4,651.44c9.71,58.49,73.19,95.74,138.29,95.74h129l-10-337.91s-123.13-40.13-154-4.81c-27.07,31-100.49,153.45-104.36,226A97,97,0,0,0,851.4,651.44Z" transform="translate(-20.92 -23.8)"/><path class="cls-4" d="M851.4,651.44c9.71,58.49,73.19,95.74,138.29,95.74H1053C1010.77,720.29,972.63,637.45,851.4,651.44Z" transform="translate(-20.92 -23.8)"/><path class="cls-2" d="M1193.73,442.37s-174-83.49-206.92-28.95c-17.49,29-65.64,144.49-69.19,217-3.46,70.44,61.45,116.76,128.23,116.76h118.59Z" transform="translate(-20.92 -23.8)"/><path class="cls-3" d="M1012.89,690.25q2.16,2.31,4.42,4.55c18.73,18.52,43.16,33.25,71.1,42.39a212.53,212.53,0,0,0,68.42,10.32l42,0h.57l199,.07,114,0h1.69v-.06l4-27.77,36.11-280.06s-499.76-15.09-540.4,16c-18.87,14.44-29.58,74.3-35.52,140.25C975.14,631.15,988.53,664.11,1012.89,690.25Z" transform="translate(-20.92 -23.8)"/><path class="cls-4" d="M1012.89,690.25q2.16,2.31,4.42,4.55c18.73,18.52,43.16,33.25,71.1,42.39a212.53,212.53,0,0,0,68.42,10.32l42,0h.57l199,.07,114,0,1.7-.06,4-27.77c-69.91-18.12-166.63-36.53-267.54-35.1C1154.2,686.07,1073.51,685.9,1012.89,690.25Z" transform="translate(-20.92 -23.8)"/><path class="cls-5" d="M1286,192.44c.85-.87,7.4-5.12,9.16-6.87,0,0-10.34-1.87-13.75-1.35-2,.3-7.29,3.1-7.29,3.1l-11.78,1s7.42-12.27,16-16.63c10.06-5.1,30.62-2.41,30.62-2.41s80.07-13.11,124.85-12c12,.3,97.46-13.63,122.08-8.7,13,2.6,24.73,4.66,32.3,5.89a8,8,0,0,0,9.31-7.23v-.08a214,214,0,0,1,3.41-25.19l30-14.55,15.1,8c-.15,1.66-.25,3.3-.3,4.9a86.57,86.57,0,0,0,2,22.1,32.87,32.87,0,0,0,23.74,24.35l.15,0c-22.53,19.4-137.15,53.19-139.1,43.28C1530,196.78,1320.68,184,1320.68,184s-13.89.3-17.65,5.85c-2.23,3.3-12.23,4.47-16.34,6.38C1284.58,197.25,1284,194.47,1286,192.44Z" transform="translate(-20.92 -23.8)"/><path class="cls-5" d="M1208.49,672.36s-23.3,42-33.61,46.75c-8.2,3.76-30.38,7.49-42.73,17-14.34,11,10.48,10.45,15.94,10.45,0,0,27.76-3.31,40.92-3,7.58.16,30.17,3,30.17,3a28.44,28.44,0,0,0,28-33.64l-.09-.48c-3.22-16.24-5.72-37.18-5.72-37.18Z" transform="translate(-20.92 -23.8)"/><path class="cls-6" d="M1498.76,173.35c.49,10.92,3.53,22.89,13.26,29.21,15.37,10,11.48,36,11.38,46.19l65.78-94.18a324.62,324.62,0,0,0-40.06-7.06c-13.28-1.45-48.21,2.55-48.21,2.55A92.3,92.3,0,0,0,1498.76,173.35Z" transform="translate(-20.92 -23.8)"/><path class="cls-5" d="M1310.23,688.8s-23.21,25.57-33.53,30.31c-7.37,3.38-27.22,5.35-39,13.93-12.48,9.06-2.92,13.52,4.33,13.52,0,0,33.17,2.64,54.31-3.32,5.76-1.62,21.52,1.61,27.14,2.86,1.7.37,12.54,1.26,14.27,1,12.88-1.65,13.47-14,12.26-27.29a72.22,72.22,0,0,0-1.06-7.41c-3.22-16.24-5.16-31.34-5.16-31.34Z" transform="translate(-20.92 -23.8)"/><path class="cls-7" d="M1195.83,674.74s8.39,5.86,15.76,8.31c11.61,3.87,33.25,2.08,33.25,2.08s55.25-107.19,66.91-134.3c11-25.7,20.31-82.05,20.31-82.05,8.43-.45,71.55,8.48,127,2.49,29.5-3.19,54.45-10.47,62.91-25.37,24.37-42.92-53.47-90.78-53.47-90.78s-152.18,27.43-185.62,51.72C1251.18,429.86,1195.83,674.74,1195.83,674.74Z" transform="translate(-20.92 -23.8)"/><path class="cls-8" d="M1302,687.54s11.83,6.2,19.49,7.49c13.92,2.36,28.91-2.3,28.91-2.3s8.5-51.34,43.34-133.5c8.75-20.61,14.18-58.54,15.36-59.06,0,0,183.58-2.71,205.69-45.46,3.58-6.93,7.58-26.49,7.14-32.84-2.31-33.82-46.22-46.86-46.22-46.86s-198.44,35.09-232.5,58.49S1302,687.54,1302,687.54Z" transform="translate(-20.92 -23.8)"/><path class="cls-6" d="M1713.24,248.76a53.21,53.21,0,0,1-1.08,6.3c-1.76,8.57-5.58,24.56-10.62,42.32-4.89,17.25-11,36.18-17.4,51.57-16.19,38.62-50.16,81.91-62,78.34-15.46-4.67-46-16.48-101.8-26.13-44.28-7.67-56.32-24-67.88-44.63-3.18-5.68,28.75-8.63,52-62.27,15.36-35.39,28.1-84.15,28.1-84.15l56.57-55.55c-.27.46-8.92,16.17,12.11,25.29,21.34,9.27,60.55-17.39,60.55-17.39C1661.85,162.64,1714.65,179.32,1713.24,248.76Z" transform="translate(-20.92 -23.8)"/><path class="cls-9" d="M1600.91,122a214,214,0,0,0-3.41,25.19c25.51-.84,45.7-27.29,45.85-28.95-3.08-1.64-6.18-7.49-12.39-10.79Z" transform="translate(-20.92 -23.8)"/><path class="cls-5" d="M1595,138.2s53.67-1.53,52.2-34.94,4.48-56.1-29.85-56.54-40.43,12.61-42.65,23.88S1581,137.74,1595,138.2Z" transform="translate(-20.92 -23.8)"/><path class="cls-4" d="M1644.27,116.77s2.14-11.1-3.88-18.45c0,0,3.95-10.88-.23-13.34s-6.4,6.84-8.23,5.08-9.92-10-12.37-20.91-39.7-3.24-44.1-2a5.33,5.33,0,0,1-2.77-.12c-9.33-2.39-12.1-14.5-4.89-20.88.44-.38.85-.77,1.22-1.15,3.94-4,31.35-30.7,62.7-17.72s33.65,29.11,30,42.16S1658.2,114.14,1644.27,116.77Z" transform="translate(-20.92 -23.8)"/><path class="cls-5" d="M1606.24,117.67a17.49,17.49,0,0,1-10.74,6.12c-7.26,1.28-8.85-4.39-8.85-4.39S1593.31,117.21,1606.24,117.67Z" transform="translate(-20.92 -23.8)"/><path class="cls-5" d="M1511.1,249.73s69.64,69.46,78.08,80.75-7.58,50.21-10.38,49.91-34.12-28.6-45.43-52.2-32.12-57.78-32.12-57.78Z" transform="translate(-20.92 -23.8)"/><path class="cls-10" d="M1480.8,264.08l18.67-3.41c4.92-.9,6.8-5.36,4.19-10l-22-38.84c-2.61-4.61-8.71-7.62-13.64-6.72l-18.66,3.41c-4.93.9-6.8,5.36-4.19,10l22,38.84C1469.77,262,1475.88,265,1480.8,264.08Z" transform="translate(-20.92 -23.8)"/><path class="cls-5" d="M1488.82,264h19c5,0,7.66-4.06,5.92-9.07l-14.65-42.16c-1.74-5-7.2-9.07-12.21-9.07h-19c-5,0-7.66,4.06-5.92,9.07l14.65,42.16C1478.35,260,1483.81,264,1488.82,264Z" transform="translate(-20.92 -23.8)"/><path class="cls-5" d="M1504.78,275.73s-14.55-9.58-22-14.17-13.61-34.2-10.17-33.71,32.29,13,41.93,27.41S1504.78,275.73,1504.78,275.73Z" transform="translate(-20.92 -23.8)"/><path class="cls-2" d="M1518.54,257.64s-2.85-10.31-2.3-12-5.48-10.49-6.75-13.77-2.93-8.33-4.69-6.06-1.26,6.93,0,10.48-2,9.09-2,9.09l4.11,7Z" transform="translate(-20.92 -23.8)"/><path class="cls-11" d="M1712.16,255.06c-1.76,8.57-5.58,24.56-10.62,42.32-30,32-101.51,70.51-101.51,70.51l62.52-81.66,32.33-37S1706,248.45,1712.16,255.06Z" transform="translate(-20.92 -23.8)"/><path class="cls-5" d="M1716,222.67s7.49,11.91-14.14,43.21S1585.46,387.7,1576,380.09s-21.28-19.41.68-48.48S1668.87,203,1668.87,203Z" transform="translate(-20.92 -23.8)"/><path class="cls-6" d="M1617,265.54c17.89,10,31,17.95,58.4,17.88a184,184,0,0,0,37.6-4.07s21.17-86.08-18.39-103.8c-13.62-6.11-32.73-13.09-32.73-13.09S1584.92,247.67,1617,265.54Z" transform="translate(-20.92 -23.8)"/><path class="cls-3" d="M1368.1,654.5c10.46,56.73,67.84,92.68,126.66,92.68h118.59l-9.27-340.91s-113.15-37.13-141.57-1.81c-24.9,31-92.42,153.45-96,226A104.55,104.55,0,0,0,1368.1,654.5Z" transform="translate(-20.92 -23.8)"/><path class="cls-4" d="M1368.1,654.5c10.46,56.73,67.84,92.68,126.66,92.68h94.9C1545.24,718.87,1485.43,640.65,1368.1,654.5Z" transform="translate(-20.92 -23.8)"/><path class="cls-2" d="M1436,656.87c4.72,22.4,16.77,41.45,33.27,56.22h0a130,130,0,0,0,33.69,21.62,145.69,145.69,0,0,0,49,12.22l2.65.16c.71,0,1.42.06,2.12.08,1.18.05,2.35.09,3.53.1l1.88,0h118.59v-.06l6.85.08c12.2.14,25,.28,36.79.37l5.86.05h2.13c11.69.08,22,.11,29.4.06a207.34,207.34,0,0,0,29.33-2.12,137.64,137.64,0,0,0,32.68-8.8q2.67-1.1,5.24-2.33t5.16-2.63a103.27,103.27,0,0,0,12.86-8.24,111.16,111.16,0,0,0,27.36-30.21,161.76,161.76,0,0,0,14.22-29.13,266,266,0,0,0,12.22-45.43c.09-.44.17-.87.25-1.31q2.13-11.73,3.7-24.69.71-5.89,1.3-12.06,2.13-21.76,2.83-46.85c0-1.46.08-2.93.11-4.4l0-1q.43-20,0-42-.16-9.69-.49-19.79-.15-4.6-.33-9.28-.9-23.52-2.61-49.28-.77-11.58-1.68-23.62-3.78-49.65-10.17-107.5c-4.8-43.84-10.34-74.49-18.39-81.47-11.88-10.3-36.66-14.44-53.9-16.1h0c-10.69-1-18.47-1.11-18.47-1.11l-1.15,0-.82,0c-.65,0-1.31.07-2,.13l-1.1.1c-.24,0-.48.05-.71.09l-1.08.14c-.65.09-1.28.21-1.91.32l-1.31.28-.11,0-.94.22c-.6.14-1.19.3-1.78.47-.4.12-.8.23-1.19.36l-.83.27a48.68,48.68,0,0,0-9.43,4.38,51.47,51.47,0,0,0-22.23,28.52c-13.76,43-38.33,119.93-63.91,200.38-.12.4-.26.8-.38,1.21q-2.21,6.93-4.42,13.9c-.15.46-.29.94-.44,1.4-.08.24-.16.48-.23.71-1.45-.6-2.94-1.24-4.48-1.87l-.17-.07c-6.13-2.56-13.06-5.36-20.55-8.21h0c-3.88-1.47-7.9-3-12.05-4.47-11.71-4.21-24.34-8.39-37.14-12-5.68-1.61-11.41-3.1-17.09-4.41-7.3-1.7-14.55-3.15-21.61-4.21l-.61-.1-2.5-.35c-5-.69-9.85-1.19-14.56-1.46h0c-24.12-1.39-44.09,3.14-53.23,18.31a284.28,284.28,0,0,0-13.2,26,828.75,828.75,0,0,0-35.06,91.73c-10.92,34.66-19.51,70.76-20.94,99.92A104.13,104.13,0,0,0,1436,656.87Z" transform="translate(-20.92 -23.8)"/><path class="cls-3" d="M1742.18,445s60.87-233.16,65.26-252.76c2-8.73,8-11.89,14.07-12.7-10.7-1-18.48-1.11-18.48-1.11-21.06,0-39.78,14.17-46.54,35.24-14.74,45.94-41.89,130.67-69.38,217C1688.5,430.6,1742.18,445,1742.18,445Z" transform="translate(-20.92 -23.8)"/><path class="cls-12" d="M815.73,742.6l-503.81,2.74C266,722.94,261.43,654.78,292.66,608a59,59,0,0,1,9.84-11.13h0c15.56-13.88,33.41-18.16,20.14-31.42-7.14-7.14-14.48-14.3-20.14-22.65-9.33-13.77-14.1-30.83-5.89-56.51,19.24-60.22,25.1-130.41,54.55-147h0c31.8-17.83,82.82-5.21,133.21,4.43,0,0,43,8.19,83.6,44.53,18.62,16.64,14.85,76.38,15,76.44.39.21-5.37,25.06,39,35.46,24.07,5.64,63.06-27.18,103.08-14.32C806.24,511.91,834.83,697.87,815.73,742.6Z" transform="translate(-20.92 -23.8)"/><path class="cls-13" d="M379.34,389.58C410,406.13,358.08,473,443.14,514.34c78.08,38,159.92-13,188.28-5.1,30,8.4-126.06-164.87-126.06-164.87C455,334.73,383,321.47,351.19,339.3v0C335.07,357,348.73,373,379.34,389.58Z" transform="translate(-20.92 -23.8)"/><path class="cls-13" d="M391.23,594.82c-27.31-1.26-61.24-18.19-88.71,2,15.56-13.88,33.41-18.16,20.14-31.42-7.14-7.14-14.48-14.3-20.14-22.65,0,0,36.23,19.38,69.78,26.83S418.53,596.08,391.23,594.82Z" transform="translate(-20.92 -23.8)"/><path class="cls-7" d="M457.69,58.47c-.74-1.75-9.4-20.27-38.79-10.16,0,0,14.92-3.76,19.79,1.57,0,0-12.68-4-19.64,1.49s-6.3,21.15-4.6,25.73S426.17,94.69,431.67,94a16.51,16.51,0,0,0,6.08-2.32,72.91,72.91,0,0,0-1.24,8.44c-2.48,28.2,18.35,46.85,27.17,40.53,5.65-4,11.54,6,11.54,6l42.14-72.81S477.17,36,457.69,58.47Z" transform="translate(-20.92 -23.8)"/><path class="cls-14" d="M536.75,230c-39.92,17.83-69.92-45.13-67.32-45.78,4-4.51,8.11-20.59,5.18-43.74l2.07.14,34.71,2.57s.54,10.77,1.74,20.81c.8,6.61,1.88,12.9,3.29,15.65.41.81,7.94,1.9,8,1.91C525,182.15,547.39,225.19,536.75,230Z" transform="translate(-20.92 -23.8)"/><path class="cls-5" d="M791.53,745.52H721.58s-1.67-10.66,2-18.75c3.5-7.76,5.74-9.89,1.93-18.86,4.45,4.58,17.43,7.88,27.54,6.52,1.24,2,8,12.76,12.14,15.73C769.74,733.45,790.12,732.28,791.53,745.52Z" transform="translate(-20.92 -23.8)"/><path class="cls-5" d="M668.37,744.91h-70s-1.68-10.66,2-18.74c3.5-7.76,10.32-12.95,12.32-21.91,4.45,4.58,7,10.93,17.15,9.57,1.24,2,8,12.76,12.14,15.73C646.58,732.85,667,731.68,668.37,744.91Z" transform="translate(-20.92 -23.8)"/><path class="cls-14" d="M723.81,197.32l7.51,10.43s-3.28,2.83-8.52,7.32c-1.59,1.33-2.54,2.05-2.54,2.05-4.23,3.56-9.44,7.69-15.09,12.22l-.07.08c-9.86,7.59-21.1,15.94-31.3,22.4-.92.57-1.83,1.13-2.73,1.67a92.68,92.68,0,0,1-16.54,8.16,10.48,10.48,0,0,1-1.61.45c-13.52,3.64-40.82-1.1-67.59-9.27-3.7-1.12-7.34-2.32-10.9-3.46a265.3,265.3,0,0,1-35.58-14.54,104.74,104.74,0,0,1-15.29-9,42.94,42.94,0,0,1-3.9-3c-21.73-17.8-11.51-35.08-7.38-35.1,5.16-.06,12.39,1.3,20.75,3.44,13.19,3.56,29.43,9.2,45.34,15.09,8.75,3.2,17.44,6.48,25.59,9.33,4.88,1.82,9.53,3.46,13.82,4.93,8.22,2.78,15.05,4.81,19.8,5.55,3.09.49,8.83-.6,15.86-2.52,1.87-.5,3.83-1.07,5.88-1.69,11.33-3.44,24.94-8.48,36.76-13.18,5.82-2.27,11.23-4.5,15.72-6.35C719.06,199.34,723.81,197.32,723.81,197.32Z" transform="translate(-20.92 -23.8)"/><path class="cls-7" d="M426.61,416.43s-15.7,48.91,19.32,72.11c46.93,31.09,177,4.59,191.88,20.48,3.76,4-7.61,6.05-14,63.54-9.23,82.67-16.7,128.92-16.7,128.92a21.32,21.32,0,0,0,11.45,14.33C625,719,633.2,717,633.2,717s95.56-209.81,86-238.92c-16.48-50.41-107.75-45.47-213.54-75.25C441.1,384.67,426.61,416.43,426.61,416.43Z" transform="translate(-20.92 -23.8)"/><path class="cls-8" d="M476.13,415.36c46.45-4.29,173.22-6.48,200.63,12.36C710.51,450.9,756.37,716,756.37,716s-3.53,2.8-11.2,3.55c-7.14.7-22.63-3.87-22.63-3.87s-75.38-119.39-79.91-149.26-2.2-56.44-15-57.33-187.95,19.29-202.91-28.66c-11.68-37.45,2.32-73.69,2.32-73.69S433.27,419.33,476.13,415.36Z" transform="translate(-20.92 -23.8)"/><path class="cls-15" d="M572.72,261.91c2.88,10.53,5.24,20,6.4,26.32,5.35,29.29,10,118.67,10,118.67-47.45,73.25-179.54,51.22-179.54,51.22-2.91-27.76,8.24-89.52,15-144.47,1.66-13.47,3.05-26.52,3.92-38.56A242.61,242.61,0,0,1,432.14,247c11.26-58.72,40.22-65.17,40.22-65.17,13.54,26.29,56.27,33.37,56.27,33.37.53-14.8-4.26-33.65-4.26-33.65,5.41.65,23.43,3.38,28.59,5.27,6.08,2.23,56.67,25.3,56.67,25.3S611.26,249.25,572.72,261.91Z" transform="translate(-20.92 -23.8)"/><path class="cls-15" d="M511.4,143.15s.53,10.76,1.74,20.81c-19,1.78-31.18-14.29-36.46-23.38Z" transform="translate(-20.92 -23.8)"/><path class="cls-14" d="M518.89,151.89s-44.78,6.22-48.23-21.73-11.54-46,16.9-51.12,35.33,4.82,38.75,13.87S530.45,149.55,518.89,151.89Z" transform="translate(-20.92 -23.8)"/><path class="cls-7" d="M523.08,77.53c-8-7.56-13-5.07-15.61-2.18-26.18-10.49-39.54,11.38-39.54,11.38a53.8,53.8,0,0,1-13.61,33.68s8.79,4,27.06-3.1c5.57-2.19,10.22-6.91,14-12.41A105.66,105.66,0,0,1,480,129.11c21.25-13.17,26.47-45.6,27-49,3,2.13,9.1,6.81,11.38,11.85,3.11,6.84,5.91,21.37,10.12,20.35C528.49,112.29,535,88.87,523.08,77.53Z" transform="translate(-20.92 -23.8)"/><path class="cls-14" d="M723.81,197.32a39.3,39.3,0,0,0,5.7-6.34c2.1-3.15,3-6.31,6.94-9s8.41-9.88,9-8.62-2.1,9-1.89,9.88,11.35,3.25,15.56,2.05,14.72-4.57,14.51-2.47-11.36,13.88-14.93,16-14.3,1.47-18.5,2.94-8.92,6.05-8.92,6.05Z" transform="translate(-20.92 -23.8)"/><path class="cls-14" d="M751.38,186.71s10.93-8.83,15.7-7.71l-7.85,7.71Z" transform="translate(-20.92 -23.8)"/><path class="cls-14" d="M760.91,196l16.54-11.08a10.36,10.36,0,0,0-6.41,0C767.67,186,760.91,196,760.91,196Z" transform="translate(-20.92 -23.8)"/><path class="cls-16" d="M478.87,379.37c-.77-.42-51.89-15.73-54.23-65.72,1.66-13.47,3.05-26.52,3.92-38.56A242.61,242.61,0,0,1,432.14,247c8.19-1.26,18,7.55,22.42,20.64C463.63,294.53,478.63,378.25,478.87,379.37Z" transform="translate(-20.92 -23.8)"/><path class="cls-14" d="M485,386.74a13.23,13.23,0,0,1-1.35-1.19c-11.31-10.15-23.15-37.78-31.56-67-1.17-4-2.23-8.05-3.3-12a286.31,286.31,0,0,1-7.83-41,112.42,112.42,0,0,1-.87-19.21,43.79,43.79,0,0,1,.45-5.34c3.33-30.3,25.09-31.22,27.55-27.48,3.11,4.65,6.15,12,9.15,20.91,4.57,14.1,9,32.21,13.1,50.16,2.27,9.85,14.49,67.8,16.63,72.56C508.32,360.36,489.15,390,485,386.74Z" transform="translate(-20.92 -23.8)"/><path class="cls-15" d="M465.34,203.91s-21.16,10.28-28.55,24.35-8.29,59,3.15,117.39c0,0,34.48-2.27,57-32.16C497,313.49,488.59,195.47,465.34,203.91Z" transform="translate(-20.92 -23.8)"/><path class="cls-16" d="M474,172.55s-7.71,4.8-7.73,11.92c0,0,9.12,24.91,62.34,30.69C528.63,215.16,479.64,191.07,474,172.55Z" transform="translate(-20.92 -23.8)"/><path class="cls-16" d="M515.59,178.48s13.42,24.67,13,36.68c0,0,.91-27.31-1-33.65s-13.22-9-13.22-9Z" transform="translate(-20.92 -23.8)"/><path class="cls-5" d="M505.72,137c.45,0,4.71,3.8,10.34,2.74s5.57-5.48,5.57-5.48a25.06,25.06,0,0,0-7.21,0A59,59,0,0,0,505.72,137Z" transform="translate(-20.92 -23.8)"/><path class="cls-14" d="M606.22,378l-15.37-2.81c-4.05-.74-5.6-4.42-3.45-8.22l18.11-32c2.14-3.8,7.17-6.28,11.23-5.53l15.37,2.8c4,.74,5.6,4.42,3.45,8.22l-18.11,32C615.31,376.22,610.28,378.7,606.22,378Z" transform="translate(-20.92 -23.8)"/><path class="cls-7" d="M599.62,377.89H584c-4.12,0-6.3-3.34-4.87-7.46l12.06-34.72c1.43-4.12,5.93-7.46,10-7.46h15.63c4.12,0,6.3,3.34,4.87,7.46l-12.06,34.72C608.25,374.55,603.74,377.89,599.62,377.89Z" transform="translate(-20.92 -23.8)"/><path class="cls-14" d="M573.37,363.61s14.75-11.84,20.34-12.31,19.29,2.35,18,6.38-7.62,6.37-14.31,9.93-9.43,7.55-14.78,8.68a62.58,62.58,0,0,1-11.39,1.1Z" transform="translate(-20.92 -23.8)"/><path class="cls-14" d="M573.37,363.61s8.43-9.2,10.26-13.34a.88.88,0,0,1,1.35-.33c1.26.95,2.9,3.1.13,6.85C581.14,362.2,573.37,363.61,573.37,363.61Z" transform="translate(-20.92 -23.8)"/><path class="cls-14" d="M485,386.74c1.56-.14,45.93,5.82,86.26-9.35l2.14-13.78s-41.47-.54-68.41-9.9S485,386.74,485,386.74Z" transform="translate(-20.92 -23.8)"/><path class="cls-4" d="M1365.25,593.74h-507A15.31,15.31,0,0,1,843,578.43h0a15.3,15.3,0,0,1,15.31-15.31h507a15.3,15.3,0,0,1,15.31,15.31h0A15.31,15.31,0,0,1,1365.25,593.74Z" transform="translate(-20.92 -23.8)"/><path class="cls-4" d="M1336.33,592h-24.67l36.45,147.18a4.07,4.07,0,0,0,4,3.08h0a2.7,2.7,0,0,0,2.66-3Z" transform="translate(-20.92 -23.8)"/><path class="cls-4" d="M893.69,592h24.66L881.9,739.22A4.06,4.06,0,0,1,878,742.3h0a2.7,2.7,0,0,1-2.67-3Z" transform="translate(-20.92 -23.8)"/><rect class="cls-4" x="872.22" y="633.74" width="445.74" height="7.66"/><rect class="cls-17" x="904.83" y="486.66" width="376.56" height="8.89" rx="3.8"/><polygon class="cls-10" points="975.89 486.66 961.6 486.66 964.3 453.31 973.03 453.31 975.89 486.66"/><rect class="cls-10" x="965.89" y="451.29" width="5.48" height="2.02"/><path class="cls-10" d="M985.32,471.82a4.29,4.29,0,1,1,4.29,4.28A4.29,4.29,0,0,1,985.32,471.82Z" transform="translate(-20.92 -23.8)"/><polygon class="cls-7" points="1122.22 486.66 1107.93 486.66 1110.63 453.31 1119.37 453.31 1122.22 486.66"/><rect class="cls-7" x="1112.22" y="451.29" width="5.48" height="2.02"/><path class="cls-7" d="M1131.65,471.82a4.29,4.29,0,1,1,4.29,4.28A4.29,4.29,0,0,1,1131.65,471.82Z" transform="translate(-20.92 -23.8)"/><polygon class="cls-5" points="1052.76 486.66 1038.47 486.66 1041.17 453.31 1049.9 453.31 1052.76 486.66"/><rect class="cls-5" x="1042.76" y="451.29" width="5.48" height="2.02"/><path class="cls-5" d="M1062.19,471.82a4.29,4.29,0,1,1,4.28,4.28A4.29,4.29,0,0,1,1062.19,471.82Z" transform="translate(-20.92 -23.8)"/><rect class="cls-18" x="1155.01" y="470.33" width="16.42" height="16.42"/><rect class="cls-5" x="1145.1" y="470.33" width="16.42" height="16.42"/><path class="cls-19" d="M1173,502.35a1.24,1.24,0,1,1,1.23,1.23A1.23,1.23,0,0,1,1173,502.35Z" transform="translate(-20.92 -23.8)"/><path class="cls-19" d="M1167.87,497.14a1.23,1.23,0,1,1,1.23,1.23A1.24,1.24,0,0,1,1167.87,497.14Z" transform="translate(-20.92 -23.8)"/><path class="cls-19" d="M1178.14,497.14a1.23,1.23,0,1,1,1.23,1.23A1.24,1.24,0,0,1,1178.14,497.14Z" transform="translate(-20.92 -23.8)"/><path class="cls-19" d="M1167.87,507.72a1.23,1.23,0,1,1,1.23,1.23A1.23,1.23,0,0,1,1167.87,507.72Z" transform="translate(-20.92 -23.8)"/><circle class="cls-19" cx="1158.45" cy="483.92" r="1.23"/><path class="cls-19" d="M1183.82,497.14c0-.68.33-1.24.73-1.24s.74.56.74,1.24-.33,1.23-.74,1.23S1183.82,497.82,1183.82,497.14Z" transform="translate(-20.92 -23.8)"/><path class="cls-19" d="M1189.94,497.14c0-.68.33-1.24.74-1.24s.73.56.73,1.24-.32,1.23-.73,1.23S1189.94,497.82,1189.94,497.14Z" transform="translate(-20.92 -23.8)"/><path class="cls-19" d="M1183.82,507.72c0-.68.33-1.23.73-1.23s.74.55.74,1.23-.33,1.23-.74,1.23S1183.82,508.4,1183.82,507.72Z" transform="translate(-20.92 -23.8)"/><path class="cls-19" d="M1189.94,507.72c0-.68.33-1.23.74-1.23s.73.55.73,1.23-.32,1.23-.73,1.23S1189.94,508.4,1189.94,507.72Z" transform="translate(-20.92 -23.8)"/><rect class="cls-18" x="1080.06" y="494.13" width="16.42" height="16.42" transform="translate(2155.62 980.88) rotate(180)"/><rect class="cls-5" x="1089.96" y="494.13" width="16.42" height="16.42" transform="translate(2175.43 980.88) rotate(180)"/><circle class="cls-19" cx="1077.25" cy="478.55" r="1.23"/><path class="cls-19" d="M1104.54,497.14a1.24,1.24,0,1,0-1.23,1.23A1.24,1.24,0,0,0,1104.54,497.14Z" transform="translate(-20.92 -23.8)"/><path class="cls-19" d="M1094.27,497.14a1.23,1.23,0,1,0-1.23,1.23A1.24,1.24,0,0,0,1094.27,497.14Z" transform="translate(-20.92 -23.8)"/><circle class="cls-19" cx="1082.39" cy="483.92" r="1.23"/><path class="cls-19" d="M1094.27,507.72A1.23,1.23,0,1,0,1093,509,1.23,1.23,0,0,0,1094.27,507.72Z" transform="translate(-20.92 -23.8)"/><path class="cls-19" d="M1088.59,497.14c0-.68-.33-1.24-.74-1.24s-.73.56-.73,1.24.33,1.23.73,1.23S1088.59,497.82,1088.59,497.14Z" transform="translate(-20.92 -23.8)"/><path class="cls-19" d="M1082.46,497.14c0-.68-.33-1.24-.73-1.24s-.74.56-.74,1.24.33,1.23.74,1.23S1082.46,497.82,1082.46,497.14Z" transform="translate(-20.92 -23.8)"/><path class="cls-19" d="M1088.59,507.72c0-.68-.33-1.23-.74-1.23s-.73.55-.73,1.23.33,1.23.73,1.23S1088.59,508.4,1088.59,507.72Z" transform="translate(-20.92 -23.8)"/><path class="cls-19" d="M1082.46,507.72c0-.68-.33-1.23-.73-1.23s-.74.55-.74,1.23.33,1.23.74,1.23S1082.46,508.4,1082.46,507.72Z" transform="translate(-20.92 -23.8)"/><rect class="cls-14" x="1060.56" y="510.02" width="147.47" height="29.3"/><rect class="cls-14" x="1002.65" y="510.02" width="147.47" height="29.3"/><rect class="cls-14" x="1056.18" y="495.37" width="154.88" height="24.29"/><rect class="cls-14" x="997.26" y="495.37" width="154.88" height="24.29"/><rect class="cls-4" y="721.38" width="2188.8" height="4.47" rx="2.08"/></svg>