<?xml version="1.0"?>
<svg xmlns="http://www.w3.org/2000/svg" id="_2_Line_Expand" data-name="2 Line Expand" viewBox="0 0 64 64" width="512" height="512"><path d="M45,16a1,1,0,0,0-1-1H20a1,1,0,0,0-1,1V46a1,1,0,0,0,1,1H44a1,1,0,0,0,1-1ZM21,29h4v4H21Zm6,0h4v4H27Zm6,0h4v4H33Zm6,0h4v4H39Zm4-2H39V23h4Zm-6,0H33V23h4Zm-6,0H27V23h4Zm-6,0H21V23h4Zm-4,8h4v4H21Zm6,0h4v4H27Zm6,0h4v4H33Zm6,0h4v4H39Zm4-14H39V17h4Zm-6,0H33V17h4Zm-6,0H27V17h4ZM21,17h4v4H21Zm0,24h4v4H21Zm6,0h4v4H27Zm6,0h4v4H33Zm10,4H39V41h4Z"/><path d="M57.806,45.355A4.872,4.872,0,0,0,58,44a4.985,4.985,0,0,0-9-2.969V12a1,1,0,0,0-1-1H45V8a1,1,0,0,0-1-1H39V4a1,1,0,0,0-1-1H26a1,1,0,0,0-1,1V7H20a1,1,0,0,0-1,1v3H16a1,1,0,0,0-1,1V41.031A4.985,4.985,0,0,0,6,44a4.872,4.872,0,0,0,.194,1.355A4.99,4.99,0,0,0,8,55a4.9,4.9,0,0,0,2-.444V60a1,1,0,0,0,2,0V54.556A4.9,4.9,0,0,0,14,55a5,5,0,0,0,1-.1V60a1,1,0,0,0,1,1H48a1,1,0,0,0,1-1V54.9a5,5,0,0,0,1,.1,4.9,4.9,0,0,0,2-.444V60a1,1,0,0,0,2,0V54.556A4.9,4.9,0,0,0,56,55a4.99,4.99,0,0,0,1.806-9.645ZM27,5H37V7H27ZM21,9H43v2H21ZM12,52.192V52a1,1,0,0,0-2,0v.192A2.921,2.921,0,0,1,8,53a2.989,2.989,0,0,1-.316-5.963,1,1,0,0,0,.752-1.508A2.937,2.937,0,0,1,8,44a3,3,0,0,1,6,0,2.937,2.937,0,0,1-.436,1.529,1,1,0,0,0,.752,1.508A2.989,2.989,0,0,1,14,53,2.921,2.921,0,0,1,12,52.192ZM37,59H33V51h4Zm-6,0H27V51h4Zm16,0H39V50a1,1,0,0,0-1-1H26a1,1,0,0,0-1,1v9H17V53.974a4.951,4.951,0,0,0,0-7.951V13H47V46.023a4.951,4.951,0,0,0,0,7.951Zm9-6a2.921,2.921,0,0,1-2-.808V52a1,1,0,0,0-2,0v.192A2.921,2.921,0,0,1,50,53a2.989,2.989,0,0,1-.316-5.963,1,1,0,0,0,.752-1.508A2.937,2.937,0,0,1,50,44a3,3,0,0,1,6,0,2.937,2.937,0,0,1-.436,1.529,1,1,0,0,0,.752,1.508A2.989,2.989,0,0,1,56,53Z"/></svg>
