<?xml version="1.0" encoding="utf-8"?>
<!-- Generator: Adobe Illustrator 24.1.1, SVG Export Plug-In . SVG Version: 6.00 Build 0)  -->
<svg version="1.1" id="Layer_1" xmlns="http://www.w3.org/2000/svg" xmlns:xlink="http://www.w3.org/1999/xlink" x="0px" y="0px"
	 viewBox="0 0 512 512" style="enable-background:new 0 0 512 512;" xml:space="preserve">
<style type="text/css">
	.st0{fill:#F7F7F7;}
	.st1{fill:#A3A3A3;}
</style>
<circle class="st0" cx="325.4" cy="243.4" r="186.6"/>
<path class="st1" d="M138.1,319h124.7c8.7,0,15.8-7.1,15.8-15.8c0-3-0.9-6-2.5-8.5L256,263.2c-2.9-4.6-7.9-7.3-13.3-7.3h-95.4
	c-7,0-13.2,4.7-15.2,11.4l-9.1,31.4c-2.4,8.4,2.4,17.2,10.8,19.6C135.2,318.8,136.7,319,138.1,319L138.1,319z M136.4,302.6l9.1-31.4
	c0.2-0.8,0.9-1.3,1.7-1.3h95.4c0.6,0,1.2,0.3,1.5,0.8l20.1,31.4c0.5,0.8,0.3,2-0.5,2.5c-0.3,0.2-0.6,0.3-1,0.3H138.1
	c-1,0-1.8-0.8-1.8-1.8C136.3,303,136.4,302.8,136.4,302.6L136.4,302.6z"/>
<path class="st1" d="M128.6,359.9c-9.8,0-17.8,8-17.8,17.8c0,9.8,8,17.8,17.8,17.8s17.8-8,17.8-17.8
	C146.4,367.8,138.4,359.9,128.6,359.9z M128.6,381.5c-2.1,0-3.8-1.7-3.8-3.8c0-2.1,1.7-3.8,3.8-3.8c2.1,0,3.8,1.7,3.8,3.8
	C132.4,379.8,130.7,381.5,128.6,381.5C128.6,381.5,128.6,381.5,128.6,381.5L128.6,381.5z"/>
<path class="st1" d="M304,359.9c-9.8,0-17.8,8-17.8,17.8s8,17.8,17.8,17.8s17.8-8,17.8-17.8C321.8,367.8,313.9,359.9,304,359.9z
	 M304,381.5c-2.1,0-3.8-1.7-3.8-3.8s1.7-3.8,3.8-3.8s3.8,1.7,3.8,3.8C307.9,379.8,306.2,381.5,304,381.5
	C304,381.5,304,381.5,304,381.5L304,381.5z"/>
<g>
	<path class="st1" d="M434.5,217.7c25.8,0,46.8-19.9,46.8-44.4s-21-44.4-46.8-44.4h-0.3c-0.2-0.5-0.5-1-0.7-1.5
		c-9.5-18.9-26.3-31.8-45.3-36.9c-0.8-1.3-1.5-2.6-2.3-3.9c-9.1-14.4-21.7-25.4-35.6-31c-14.7-6-29-5.3-40.4,1.9
		s-18.2,19.9-19.1,35.7c-0.8,14.2,3.2,29.5,11.4,43.3c-5.6,16.4-5.2,34.8,2.2,51.7c-4.3,6-6.8,13.2-6.8,21
		c0,20.7,17.8,37.6,39.6,37.6c13.3,0,25.2-6.3,32.3-15.9h0.4c1.5,0,2.9,0,4.4-0.1l2,5.9l-11.4,33.1l-30-20.7
		c-3.2-2.2-7.6-1.3-9.7,1.9c-1.6,2.4-1.6,5.6,0.1,8l24.1,33.7l-13,7l-21.3-3.1c-2.5-0.4-4.7-1.8-6-3.9l-33.8-52.7
		c-4.2-6.5-11.3-10.5-19.1-10.4H129.5c-10,0-18.9,6.7-21.7,16.3l-12.1,41.5c-0.8,2.7-2.8,4.8-5.4,5.7l-16.8,6
		c-14.4,5.2-23.9,18.8-23.9,34v44.7c0,3.9,3.1,7,7,7h26.2c1.5,9.6,5.9,18.4,12.6,25.4H56.6c-3.9,0-7,3.1-7,7c0,3.9,3.1,7,7,7h398.8
		c3.9,0,7-3.1,7-7c0-3.9-3.1-7-7-7v0h-11v-87.5c0-0.8-0.1-1.5-0.4-2.2l-8.7-25.6l12.4-12.3c2.7-2.7,2.8-7.2,0-9.9
		c-1.8-1.8-4.3-2.5-6.8-1.8l-12.7,3.3l-18.7-55.4c2.1-1.4,4.2-3,6.1-4.6C421.5,216.4,427.8,217.7,434.5,217.7z M82.8,370.7H63.6
		v-9.9h21.9C84.2,364,83.3,367.3,82.8,370.7z M128.6,410c-8.9,0-17-3.6-22.9-9.5c-5.9-5.9-9.5-13.9-9.5-22.9
		c0-17.9,14.5-32.3,32.3-32.3s32.3,14.5,32.3,32.3C160.9,395.5,146.4,410,128.6,410z M161.7,410c6.8-6.9,11.2-15.8,12.6-25.4h84
		c1.5,9.6,5.9,18.4,12.6,25.4H161.7z M171.7,360.8h89.3c-1.3,3.2-2.1,6.5-2.7,9.9h-84C173.8,367.3,172.9,364,171.7,360.8z M304,410
		c-8.9,0-17-3.6-22.9-9.5c-5.8-5.9-9.5-13.9-9.5-22.9c0-17.9,14.5-32.3,32.3-32.3c17.9,0,32.3,14.5,32.3,32.3
		C336.4,395.5,321.9,410,304,410z M273.3,343c-1.3,1.2-2.6,2.4-3.7,3.7H163c-17-19-46.1-20.7-65.1-3.7c-1.3,1.2-2.6,2.4-3.7,3.7
		H63.6v-13.8c0-9.3,5.9-17.7,14.7-20.8l16.8-6c6.8-2.5,12.1-8,14.1-15l12-41.5c1.1-3.7,4.5-6.2,8.3-6.2h126.7c2.9,0,5.7,1.5,7.3,4
		l33.8,52.7c3.5,5.5,9.3,9.2,15.8,10.2l3.2,0.5c-2.9,2.5-3.2,6.9-0.7,9.8c1.2,1.4,2.9,2.3,4.7,2.4l47.4,3.6c0.9,2.1,1.4,4.5,1.4,6.8
		v13.4h-30.5C321.5,327.8,292.4,326.1,273.3,343z M369,360.8v9.9h-19.2c-0.5-3.4-1.4-6.7-2.6-9.9H369z M408.3,410h-71.2
		c6.8-6.9,11.2-15.8,12.6-25.3H376c3.9,0,7-3.1,7-7v-21.1l1.5,5.1c0.9,3,3.6,5,6.7,5h0.2c3.2-0.1,5.9-2.2,6.6-5.3l8.7-34.6l1.6,4.8
		V410z M430.4,323.7V410h-8.1v-79.6c0-0.8-0.1-1.5-0.4-2.2l-5.1-15l7.5-7.4L430.4,323.7z M396.7,313.5c-0.9,0.9-1.5,2-1.9,3.3
		l-4.2,16.6l-4.6-14.9c-0.8-2.8-3.3-4.7-6.2-5l-35-2.7l18-9.8c3.4-1.9,4.6-6.1,2.8-9.5c-0.1-0.3-0.3-0.5-0.5-0.7l-5.5-7.7l4.7,3.3
		c3.2,2.2,7.5,1.4,9.7-1.8c0.4-0.5,0.7-1.1,0.9-1.7l9.1-26.6l13.8,33.8c1.3,3.2,4.9,5,8.3,4.1l13.2-3.5L396.7,313.5z M414.8,277.5
		l-6.1,1.6l-18.5-45.4c-0.1-0.2-0.2-0.3-0.3-0.4l-1.7-4.9c3-0.8,6-1.8,8.9-3L414.8,277.5z M413.5,196.7c-3,3.5-6.5,6.8-10.4,9.5
		c-2.3,1.7-4.9,3.2-7.5,4.5c-6.2,3.1-12.8,5.1-19.6,5.8c-4.8,0.5-9.6,0.5-14.4-0.2c-1.7,5-5.2,9.3-9.8,12.3
		c-4.1,2.7-9.2,4.2-14.6,4.2c-14.1,0-25.6-10.6-25.6-23.6c0-2.4,0.4-4.7,1.1-6.8c0,0,0,0,0,0c1.6-4.8,4.7-8.9,8.8-11.8v0
		c-2.6-4-4.6-8.2-6.1-12.7c-2.9-8.4-3.8-17.6-2.4-26.8c0.5-3.2,1.2-6.5,2.3-9.7c0.7-2.3,1.6-4.4,2.6-6.5c-0.9-1.2-1.8-2.5-2.6-3.8
		c-2.2-3.4-4-6.9-5.5-10.5c-3.8-8.9-5.5-18.1-5-26.7c0.7-11.2,5.2-19.9,12.6-24.7c4.1-2.6,8.8-3.8,13.8-3.8
		c12.9,0,27.7,8.3,38.7,22.5c1.5,1.9,2.9,3.9,4.2,6c1.8,2.9,3.4,5.8,4.7,8.7c3,0.5,6,1.2,9,2.2c2.7,0.9,5.4,2,7.9,3.3
		c10,5.1,18.4,13,24,22.9c0.5,0.8,0.9,1.7,1.3,2.5c1.7,3.4,3.1,7,4.1,10.5c3-0.8,6.1-1.3,9.4-1.3c1.6,0,3.2,0.1,4.8,0.3
		c15.8,2.1,28.1,14.8,28.1,30.1c0,16.8-14.7,30.4-32.8,30.4c-2.8,0-5.5-0.3-8.1-0.9C421.6,201.7,417.2,199.5,413.5,196.7z"/>
	<path class="st1" d="M393.5,151.9c-0.5,0.8-0.9,1.7-1.4,2.5C392.6,153.6,393.1,152.8,393.5,151.9z"/>
</g>
<polygon class="st1" points="400.6,136.7 390.6,135.7 387.7,162 376.4,175.7 359.2,134.3 350,138.1 371.8,190.6 359,186.2 
	342.9,165.2 335,171.3 352.9,194.7 376.9,203 383.7,219.2 392.9,215.4 380.7,186.1 397.3,166.1 "/>
</svg>
