<?xml version="1.0" encoding="utf-8"?>
<!-- Generator: Adobe Illustrator 24.1.1, SVG Export Plug-In . SVG Version: 6.00 Build 0)  -->
<svg version="1.1" id="Layer_1" xmlns="http://www.w3.org/2000/svg" xmlns:xlink="http://www.w3.org/1999/xlink" x="0px" y="0px"
	 viewBox="0 0 511 511" style="enable-background:new 0 0 511 511;" xml:space="preserve">
<style type="text/css">
	.st0{fill:#F7F7F7;}
	.st1{fill:#A3A3A3;}
</style>
<circle class="st0" cx="281.2" cy="283.3" r="186.6"/>
<g id="surface1">
	<path class="st1" d="M136.9,317.6c-22.4,0-40.6,18.2-40.6,40.6s18.2,40.6,40.6,40.6c22.4,0,40.6-18.2,40.6-40.6
		S159.3,317.6,136.9,317.6z M136.9,387.2c-16,0-29-13-29-29s13-29,29-29c16,0,29,13,29,29S152.9,387.2,136.9,387.2z"/>
	<path class="st1" d="M136.9,340.8c-9.6,0-17.4,7.8-17.4,17.4c0,9.6,7.8,17.4,17.4,17.4c9.6,0,17.4-7.8,17.4-17.4
		C154.3,348.6,146.5,340.8,136.9,340.8z M136.9,364c-3.2,0-5.8-2.6-5.8-5.8c0-3.2,2.6-5.8,5.8-5.8c3.2,0,5.8,2.6,5.8,5.8
		C142.7,361.4,140.1,364,136.9,364z"/>
	<path class="st1" d="M57.8,348.6h26.3v11.6H57.8V348.6z"/>
	<path class="st1" d="M438.7,311.9l-9.6-5.5l13.7-54.6l-100.8-58.2l-47.1,35.3l-29.5-17c-6.7-3.9-14.5-4.9-22-2.9
		c-7.5,2-13.7,6.8-17.6,13.5l-13.8,23.9L144.7,151l1.5-5.7c0,0,0,0,0,0c1.7-6.5,0.8-13.3-2.5-19.1c-3.4-5.8-8.8-10-15.3-11.7
		c-6.5-1.7-13.2-0.8-19.1,2.5c-5.8,3.4-10,8.8-11.7,15.3c0,0.1,0,0.1,0,0.1L66.3,249.3c-5,5.2-8.1,12.3-8.1,20.1V306H202v19.3h-12.2
		V337H212v11.6h-22.2v11.6h33.8v-34.8h-10v-30.9h-97.4v-25.1c0-2.7-0.4-5.4-1.1-7.9l25.7-95.9l64.8,91.8l-5.9,10.3l27.8,16.1
		c-6.3,16.5,0.1,35.8,15.9,44.9c5.8,3.3,12.1,4.9,18.3,4.9c10.9,0,21.5-4.8,28.5-13.6l50.3,29.1c-6.3,16.5,0.1,35.8,15.9,44.9
		c5.8,3.3,12.1,4.9,18.3,4.9c10.9,0,21.5-4.8,28.5-13.6l19.8,11.4l26.1-45.2C457.3,337.6,452.5,319.9,438.7,311.9z M104.6,294.4
		H69.8v-25.1c0-9.6,7.8-17.4,17.4-17.4s17.4,7.8,17.4,17.4V294.4z M106.7,248c-5.2-4.7-12-7.6-19.5-7.6c-2.3,0-4.5,0.3-6.7,0.8
		l22.9-85.5c3.2,3.5,7.3,6.1,12,7.3c2.2,0.6,4.3,0.9,6.5,0.9c2.6,0,5.2-0.4,7.6-1.2L106.7,248z M135,142.2
		C135,142.2,135,142.2,135,142.2L135,142.2c-1.9,7.2-9.4,11.5-16.6,9.6c-3.5-0.9-6.4-3.2-8.2-6.3c-1.8-3.1-2.3-6.7-1.4-10.2l0-0.1h0
		c0,0,0,0,0,0c0.9-3.5,3.2-6.4,6.3-8.2c2.1-1.2,4.4-1.8,6.7-1.8c1.2,0,2.4,0.2,3.5,0.5c3.5,0.9,6.4,3.2,8.2,6.3
		C135.5,135.1,136,138.7,135,142.2z M429.4,257.4l-10.7,42.9l-31.2-18l21.3-36.8L429.4,257.4z M342.8,207.4l55.9,32.3l-21.3,36.8
		l-71.7-41.4L342.8,207.4z M283.5,309.3c-4.6,8.1-13.1,12.6-21.8,12.6c-4.3,0-8.6-1.1-12.5-3.4c-12-6.9-16.1-22.3-9.2-34.3
		c3.4-5.8,8.8-10,15.3-11.7c2.2-0.6,4.4-0.9,6.5-0.9c4.4,0,8.6,1.1,12.5,3.4c5.8,3.4,10,8.8,11.7,15.3
		C287.8,296.7,286.9,303.5,283.5,309.3z M396.7,374.6c-4.6,8.1-13.1,12.6-21.8,12.6c-4.3,0-8.6-1.1-12.5-3.4
		c-5.8-3.4-10-8.8-11.7-15.2c-1.7-6.5-0.8-13.3,2.5-19.1c4.6-8.1,13.1-12.6,21.8-12.6c4.3,0,8.6,1.1,12.5,3.4
		C399.5,347.2,403.6,362.6,396.7,374.6z M439.3,345.7L419,380.8l-9.8-5.6c6.3-16.5-0.1-35.8-15.9-44.9c-15.8-9.1-35.7-5.1-46.9,8.6
		l-50.3-29.1c6.3-16.5-0.1-35.8-15.9-44.9c-15.8-9.1-35.7-5.1-46.9,8.6l-17.8-10.3l20.3-35.1c2.3-4,6.1-6.9,10.6-8.1
		c4.5-1.2,9.2-0.6,13.2,1.7l173.4,100.1C441.2,326.7,444,337.4,439.3,345.7z"/>
	<path class="st1" d="M223.2,175.4h11.6V187h-11.6V175.4z"/>
	<path class="st1" d="M200,175.4h11.6V187H200V175.4z"/>
	<path class="st1" d="M246.4,175.4H258V187h-11.6V175.4z"/>
	<path class="st1" d="M246.4,144.5H258v11.6h-11.6V144.5z"/>
	<path class="st1" d="M269.6,144.5h11.6v11.6h-11.6V144.5z"/>
	<path class="st1" d="M223.2,144.5h11.6v11.6h-11.6V144.5z"/>
	<path class="st1" d="M81.4,265.9H93v11.6H81.4V265.9z"/>
	<path class="st1" d="M349.7,300.7l5.8-10l10,5.8l-5.8,10L349.7,300.7z"/>
	<path class="st1" d="M316.9,281.7l5.8-10l22.8,13.1l-5.8,10L316.9,281.7z"/>
	<path class="st1" d="M253.9,298.9l5.8-10l10,5.8l-5.8,10L253.9,298.9z"/>
	<path class="st1" d="M367,364.2l5.8-10l10,5.8l-5.8,10L367,364.2z"/>
</g>
</svg>
