<svg id="Layer_1" data-name="Layer 1" xmlns="http://www.w3.org/2000/svg" viewBox="0 0 2883.39 791.91"><defs><style>.cls-1{fill:#f4f4f4;}.cls-2{fill:#eaeaea;}.cls-3{fill:#afafaf;}.cls-4{fill:#424141;}.cls-5,.cls-7{fill:#ddd;}.cls-6{fill:#939292;}.cls-7{opacity:0.49;}.cls-8{fill:#7c7c7c;}.cls-9{fill:#939393;}.cls-10{fill:#e5e5e5;}.cls-11{fill:#fff;}.cls-12{fill:#f47458;}.cls-13{fill:#bfbfbf;}.cls-14{fill:#7a7878;}.cls-15{fill:#e2e0e0;}.cls-16{fill:#636363;}.cls-17,.cls-18{fill:none;stroke:#7c7c7c;stroke-miterlimit:10;stroke-width:5px;}.cls-18{stroke-linecap:round;}</style></defs><path class="cls-1" d="M1475,1067.39h1108a22.65,22.65,0,0,1,22.65,22.65v292.6a244,244,0,0,1-244,244H1696.28a244,244,0,0,1-244-244V1090A22.65,22.65,0,0,1,1475,1067.39Z" transform="translate(3984.3 1658.57) rotate(180)"/><path class="cls-2" d="M1667.3,1402.54h719.16c94.19,0,174.23-69.24,203.45-165.69a278.66,278.66,0,0,1,11.86,80.82v288.19c0,13.54-9.59,24.51-21.41,24.51h-1107c-11.82,0-21.4-11-21.4-24.51V1317.67a278.65,278.65,0,0,1,11.85-80.82C1493.07,1333.3,1573.12,1402.54,1667.3,1402.54Z" transform="translate(-73.61 -1035.43)"/><path class="cls-1" d="M1541.88,1536.3c118.86-69.41,273.09-71.53,375.45-62.59a1264.81,1264.81,0,0,0,219.83,0c102.36-8.94,256.59-6.82,375.46,62.59l22.68,62.14s-40.83,101-47.63,101-460.42-6.48-460.42-6.48-453.62,6.48-460.43,6.48-47.63-101-47.63-101Z" transform="translate(-73.61 -1035.43)"/><path class="cls-2" d="M1345.25,1364.52c14.35-37,47.71-60.13,83.09-56.92,123.27,11.21,118.38,269.5,118.25,270.34H2509.2c-.13-.84-5-259.13,118.26-270.34,35.37-3.21,68.73,19.87,83.08,56.92,9.55,24.68,13.71,59.07-1.95,103.18-35.53,100.1-133.06,170-146.67,294.27-2.1,19.24-4.83,29.33-7.93,32.66-8,15.56-22.74,26-39.67,26H1540.17c-25.36,0-45.92-23.47-45.92-52.42v-3c-.13-1.07-.26-2.16-.38-3.29-13.61-124.27-111.14-194.17-146.67-294.27C1331.54,1423.59,1335.7,1389.2,1345.25,1364.52Z" transform="translate(-73.61 -1035.43)"/><ellipse class="cls-3" cx="1350.79" cy="398.18" rx="40.83" ry="46.6"/><path class="cls-3" d="M2582.64,1433.61c0,25.74,18.28,46.6,40.83,46.6s40.83-20.86,40.83-46.6S2646,1387,2623.47,1387,2582.64,1407.88,2582.64,1433.61Z" transform="translate(-73.61 -1035.43)"/><polygon class="cls-4" points="375.31 775.45 358.33 775.45 421.6 446.68 435.71 449.36 375.31 775.45"/><polygon class="cls-4" points="843.45 773.97 857.57 771.29 796.58 446.68 782.46 449.36 843.45 773.97"/><polygon class="cls-4" points="686.15 775.45 669.17 775.45 732.44 446.68 746.55 449.36 686.15 775.45"/><polygon class="cls-4" points="530 775.45 543.79 775.61 483.13 448.15 469.01 450.84 530 775.45"/><path class="cls-1" d="M665.2,1039.33c-55.89,6-128.23,12.34-200.85,136-79.36,135.15-37.58,337,25.06,393.11s267.23,125.36,439.21,21.67c0,0,103.85-62.84,50.56-167.13-82-160.49-70.43-194-107.1-256.86S783.85,1026.58,665.2,1039.33Z" transform="translate(-73.61 -1035.43)"/><path class="cls-2" d="M464.35,1175.32c49.57-84.39,99-114.13,143.16-126.42-17.08,17.74-34.4,40.56-51.73,70.07-79.37,135.15-37.59,337,25.05,393.11,55.55,49.75,222.74,109.83,379.82,50.48a159.89,159.89,0,0,1-32,27.54c-172,103.69-376.58,34.43-439.22-21.67S385,1310.47,464.35,1175.32Z" transform="translate(-73.61 -1035.43)"/><path class="cls-5" d="M2774.2,1691.4h4.24a249.56,249.56,0,0,1,9-46.6c18.51-62.47,10.41-70.55,41.64-109.6s33.55-120,33.55-120,15-92,0-132.46-16.19-81-52.64-123.78c0,0-6.94,57.26-15.61,83.29s-16.92,50.9-10.48,113.37,10.43,67.68,11.9,83.87-.84,84.47,2.63,95.74-20.25,89.36-22,122.91C2776,1668.19,2775,1679.68,2774.2,1691.4Z" transform="translate(-73.61 -1035.43)"/><path class="cls-3" d="M2787.5,1691.4c6-13.9,16.64-27.72,35.21-36,48.59-21.69,81.36-21.21,103.92-73.26s22.56-123.21,30.37-138c0,0-20.82-3.47-41.65,33.84s-34.94,65.07-47,86.76-29.38,15.62-44.13,32.11c-12.36,13.81-23.77,45.95-28.11,62.26a64.33,64.33,0,0,1-6.16,15.17c-2.46,4.34-5.35,9.62-7.08,13.38a20.79,20.79,0,0,0-1.15,3.71Z" transform="translate(-73.61 -1035.43)"/><path class="cls-5" d="M2650.4,1444.67c-3.47,44.54,24.87,41.07,26,69.41s38.18,76.35,55.33,110.48c8.92,17.75,12.21,44.88,13.32,66.84h13.78c-5.33-55.57-27.88-94.26-41.36-125.26-17.35-39.91-20-58.13-5.21-89.37s-6.94-111.92,14.06-147.9,10.24-92.43,5.41-114.12.49-36.44,4.83-59.31-4.83-56.09-4.83-56.09c-.79,28.35-22.36,67.1-38,92s-45.11,92.55-41.64,123.21,1.73,33,1.73,33C2642.88,1388.56,2653.87,1400.13,2650.4,1444.67Z" transform="translate(-73.61 -1035.43)"/><path class="cls-3" d="M2733.08,1655.21c1.77,5.32,7.45,18.89,12.65,36.19h8.45c-3.84-22-10.48-47.57-21.68-62.22-22.56-29.5-67.68-42.22-72.88-63.62s.58-85.61-32.39-121.47c0,0,4.62,39.92,0,50.62s-44,60.43-20.83,102.08,75.2,36.44,91.39,45.7S2730.19,1646.54,2733.08,1655.21Z" transform="translate(-73.61 -1035.43)"/><path class="cls-6" d="M2712.25,1463.14c-.57,42.8,33,59,32.4,82.71s6.94,49.17,13.3,68.26c4,12.08,1.8,45.72,1.09,77.29h9.3c2.35-23.2,4.92-56.67,4.07-71.51-1.16-20.24,8.1-36.44,9.26-71.72s8.67-67.1-7-111.64-12.72-97.75-78.08-146.92c0,0-11.57,52.06-2.89,80.4S2712.83,1420.34,2712.25,1463.14Z" transform="translate(-73.61 -1035.43)"/><path class="cls-7" d="M2712.25,1463.14c-.57,42.8,33,59,32.4,82.71s6.94,49.17,13.3,68.26c4,12.08,1.8,45.72,1.09,77.29h3.86c.52-6.59,1-10.74,1-10.74l1.92-79.82s-3.85-62.47-10.79-113.37-58.42-197.86-58.42-197.86-11.57,52.06-2.89,80.4S2712.83,1420.34,2712.25,1463.14Z" transform="translate(-73.61 -1035.43)"/><path class="cls-8" d="M2778.47,1654.88h-89.59a9.51,9.51,0,0,0-9.23,11.7l32.66,137.71a9.49,9.49,0,0,0,9.23,7.31h107.62a9.49,9.49,0,0,0,9.23-7.31L2871,1666.58a9.49,9.49,0,0,0-9.22-11.7Z" transform="translate(-73.61 -1035.43)"/><path class="cls-9" d="M1111.85,1491.73s.77,18.16,25.25,25.61c22.55,6.86,33.16-15.63,23.15-22.54s-22.24-11.23-27.26-16.87C1123.78,1467.56,1109.39,1482,1111.85,1491.73Z" transform="translate(-73.61 -1035.43)"/><path class="cls-10" d="M1149.56,1478.56a17,17,0,0,0-4.51,6.08,18.83,18.83,0,0,0,.93,17c7.37,13.21,36,21.25,38.4,5.35s-15.39-11.29-20.37-18.56c-2.24-3.27-2.54-7.36-5.62-9.9C1155.91,1476.5,1151.63,1476.92,1149.56,1478.56Z" transform="translate(-73.61 -1035.43)"/><path class="cls-10" d="M1117.53,1478.72a23.5,23.5,0,0,1-15.21-6.32c-3-2.87-10.86-8.05-17.8-6.39-12.62,3-15.53,17-6.63,28.4,7.8,10,38.2,24.2,50.37,3.26C1136.79,1483,1127.2,1479.15,1117.53,1478.72Z" transform="translate(-73.61 -1035.43)"/><path class="cls-11" d="M1079.07,1484.59c2.71-.33,5.26-2.31,7.51-3.74a31.83,31.83,0,0,0,7-5.79c.54-.63-.3-1.33-.93-1-2.59,1.42-5,3.17-7.51,4.81-2.18,1.45-5,2.57-6.72,4.55a.72.72,0,0,0,.62,1.16Z" transform="translate(-73.61 -1035.43)"/><path class="cls-11" d="M1084.81,1490.74c4.32.62,12.25-6.66,15.25-9.9.73-.79-.49-2.13-1.3-1.39a55.2,55.2,0,0,1-7.33,5.59c-2.16,1.41-5.56,2.54-7,4.68a.63.63,0,0,0,.39,1Z" transform="translate(-73.61 -1035.43)"/><path class="cls-11" d="M1096.21,1495.12a15.73,15.73,0,0,0,3.73-3.9c1.27-1.56,2.73-2.94,4-4.5a1.56,1.56,0,0,0-2.11-2.26c-2.83,2.14-6.65,6.09-7.07,9.75a1,1,0,0,0,1.47.91Z" transform="translate(-73.61 -1035.43)"/><path class="cls-11" d="M1104.85,1497.53c1.54-1.83,3.39-4.52,3.34-7,0-1.8-3.88,0-4.67,6.42a.76.76,0,0,0,1.33.6Z" transform="translate(-73.61 -1035.43)"/><path class="cls-11" d="M1111.15,1492.24c-1.79,5.32,1.36,5.43,1.83,4.14a7,7,0,0,0-.15-4.09.92.92,0,0,0-1.68,0Z" transform="translate(-73.61 -1035.43)"/><path class="cls-11" d="M1158.31,1486.33a15.59,15.59,0,0,0-4.6,3.28c-1.24,1.23-2.8,2.53-2.73,4.39a.91.91,0,0,0,1,.81c1.62-.37,2.41-1.75,3.48-2.93,1.29-1.42,2.6-2.73,3.79-4.23.49-.62-.15-1.68-.94-1.32Z" transform="translate(-73.61 -1035.43)"/><path class="cls-11" d="M1161,1490.78c-1.86,1.5-6.44,6.27-7,8.72-.2.86.9,1.4,1.55,1,1.42-1,2.23-2.6,3.24-4,1.12-1.51,2.32-2.94,3.37-4.5.49-.73-.33-1.85-1.13-1.21Z" transform="translate(-73.61 -1035.43)"/><path class="cls-11" d="M1166.1,1494.52c-1.18,1.64-5,7.32-5.47,9.5-.15.73.87,1.45,1.47.9,2.51-2.31,4-6.47,5.36-9.55.35-.81-.82-1.61-1.36-.85Z" transform="translate(-73.61 -1035.43)"/><path class="cls-11" d="M1170.68,1498.12a12.69,12.69,0,0,0-2,3.4c-1.31,2.79-2.14,4.24-1.07,5a1.37,1.37,0,0,0,2.14-.51c.51-.86,2.43-5.45,2.54-7.13a.94.94,0,0,0-1.64-.74Z" transform="translate(-73.61 -1035.43)"/><path class="cls-12" d="M1176.13,1501.55c-1.94,1.33-3.3,4.16-2,5.11a1.26,1.26,0,0,0,1.58.15c1.24-.78.39-2.45,1.55-4a.83.83,0,0,0-1.12-1.21Z" transform="translate(-73.61 -1035.43)"/><path class="cls-13" d="M1143,1544.49h-43a44.88,44.88,0,0,1-44.88-44.88H1187.9A44.89,44.89,0,0,1,1143,1544.49Z" transform="translate(-73.61 -1035.43)"/><rect class="cls-14" x="1120.43" y="474.37" width="7.37" height="23.65" rx="1.3"/><path class="cls-4" d="M1236.43,1261.08c-6.16-8.07-13.07-12.53-20.53-13.25-11.52-1.11-20.69,6.9-20.79,7l-4.59-5.17c.47-.41,11.56-10.09,26-8.69,9.46.92,18,6.28,25.36,15.93Z" transform="translate(-73.61 -1035.43)"/><path class="cls-9" d="M1183.49,1243.75,1153.22,1274a4.57,4.57,0,0,0,0,6.47l11.9,11.9a4.57,4.57,0,0,0,6.47,0l30.27-30.27a4.57,4.57,0,0,0,0-6.47l-11.89-11.9A4.58,4.58,0,0,0,1183.49,1243.75Z" transform="translate(-73.61 -1035.43)"/><path class="cls-13" d="M1113.69,1271.43l67.21,67.22a47.53,47.53,0,1,0-67.21-67.22Z" transform="translate(-73.61 -1035.43)"/><path class="cls-4" d="M1295.61,1399.46l-67.41-137.3,21-10.33,67.4,137.3Zm-57.75-134,61,124.35,8.09-4-61-124.35Z" transform="translate(-73.61 -1035.43)"/><path class="cls-4" d="M1271.88,1542.61,1249.7,1535l49.42-144.75,22.18,7.58Zm-13-12.07,8.52,2.91,44.76-131.1-8.52-2.91Z" transform="translate(-73.61 -1035.43)"/><path class="cls-15" d="M1184.32,1343.87l-3.32,3.32a1.27,1.27,0,0,1-1.8,0l-74-74a1.28,1.28,0,0,1,0-1.81l3.31-3.32a1.28,1.28,0,0,1,1.81,0l74,74A1.28,1.28,0,0,1,1184.32,1343.87Z" transform="translate(-73.61 -1035.43)"/><circle class="cls-9" cx="1307.31" cy="1396.72" r="17.09" transform="translate(-426.01 1312.73) rotate(-76.72)"/><path class="cls-9" d="M1080.92,485.65h142.42a8.25,8.25,0,0,1,8.25,8.25v15.16a0,0,0,0,1,0,0H1072.67a0,0,0,0,1,0,0V493.9A8.25,8.25,0,0,1,1080.92,485.65Z"/><rect class="cls-4" x="939.44" y="507.94" width="364.97" height="18.85"/><rect class="cls-4" x="946.04" y="617.29" width="238.62" height="16.49"/><rect class="cls-4" x="1253.2" y="517.37" width="15.39" height="257.09"/><rect class="cls-4" x="1035.47" y="517.37" width="15.4" height="257.09"/><polygon class="cls-4" points="1143.69 774.46 1226.63 519.58 1213.03 515.16 1128.66 774.46 1143.69 774.46"/><polygon class="cls-4" points="910.41 774.46 981.34 519.02 967.57 515.2 895.57 774.46 910.41 774.46"/><path class="cls-2" d="M2614.83,1309.71s-40.85,9.89-64.08,55,69.61-7.38,69.61-7.38Z" transform="translate(-73.61 -1035.43)"/><path class="cls-5" d="M266.48,1558.22c-1.32-11.65-2.88-23.56-8.29-34-6.57-12.64-18.12-21.76-28.21-31.8a176.44,176.44,0,0,1-42.08-67.06c-6.73-19.46-10.09-40.19-19.37-58.56-5.66-11.22-13.39-21.25-19.82-32-15.22-25.51-23.5-55.66-44.12-77A92.57,92.57,0,0,0,125.5,1331c5.08,5.92,11,11.27,14.84,18,7,12.31,6.39,27.33,7.21,41.48a182.24,182.24,0,0,0,21.78,76.25c13.54,24.85,33.07,47,40.31,74.35,5.42,20.51,3.81,43.51,15.37,61.29,1.25,1.92,2.69,3.86,3,6.14a13.14,13.14,0,0,1-.22,3.85l-.78,4.95c-2.63,16.79-5.35,38.15,9.08,50.71,10,8.7,22.86,8.9,30-2.67s6.59-28.68,6.05-41.79C271.27,1601.8,268.94,1579.91,266.48,1558.22Z" transform="translate(-73.61 -1035.43)"/><path class="cls-3" d="M292.46,1544.72c-5.61-19.43-14.32-37.94-18.68-57.69-4.24-19.15-4.27-39-4.28-58.58q0-32.25-.05-64.49c0-13.39,0-26.85-2.24-40-4.76-28.4-19.52-54.66-22-83.35-1.08-12.41.18-24.94-1.19-37.32a58.89,58.89,0,0,0-5.86-20.57,9.16,9.16,0,0,0-16.44.46c-7.17,15.54-11.72,32.33-8.82,49,1.74,10,6.06,19.3,9.29,28.9,14.38,42.77,6.74,90.12,17.87,133.85,3.36,13.2,8.43,26.15,9,39.76,1.41,32.57-22.92,62.33-20.69,94.85,1.83,26.67,21,48.74,29.05,74.23,4.51,14.27,5.47,29.5,10.3,43.66,3.75,11,12.47,24.36,26,21,12.86-3.17,9-13.66,8.4-23.69C300.2,1610.76,302,1577.85,292.46,1544.72Z" transform="translate(-73.61 -1035.43)"/><path class="cls-5" d="M321.9,1562.52c-.57-10.09,6.27-15.18,7.69-25.19,1.19-8.46,2.54-21.83,4.94-30,4.51-15.35-.91-31.12.18-47.09q3-43.53,6-87.07c3.08-45.11,6.18-90.35,14.62-134.77,2.34-12.34,5-25.7-.57-37-1.17-2.37-3.47-4.89-6-4.1-1.8.56-2.68,2.54-3.33,4.31-18.44,50.11-25.41,104.05-46,153.32-4.93,11.8-10.66,23.41-13.22,36-3.06,15-1.38,30.6-1,45.95.57,22-1.58,44.22-7.66,65.4-3.18,11.07-7.44,21.9-9.19,33.3-2.17,14.21-.35,28.68,1,43a661.48,661.48,0,0,1,2.65,82.8c-.5,16.24,13.21,15.81,22.29,5.84,6.35-7,6.29-14.64,8.46-23.32C309.91,1615.33,323.63,1593.44,321.9,1562.52Z" transform="translate(-73.61 -1035.43)"/><path class="cls-3" d="M236.26,1606.56c-12.12-19.48-36.27-30.55-44-52.15-2-5.5-2.74-11.41-5.15-16.73-5.35-11.81-17.51-18.49-29.46-23.92a2.53,2.53,0,0,0-3.58,2.27h0a8.63,8.63,0,0,0,3.75,7.3,48.46,48.46,0,0,1,19.32,26.36c3.7,12.66,2.09,26.53,6.68,38.89,3.86,10.38,11.79,18.86,15.52,29.29,3.4,9.53,3.05,19.94,4.65,29.93s6,20.6,15.21,24.83C252.39,1687.92,244.09,1619.14,236.26,1606.56Z" transform="translate(-73.61 -1035.43)"/><path class="cls-5" d="M374.35,1600.13c-.52,9.42.92,19.29-2.76,28-2.36,5.56-6.6,10-10.08,15-12.22,17.29-16.66,41.78-35.43,51.51a6.4,6.4,0,0,1-4,1c-1.92-.36-3.18-2.21-4-4-4.6-10.73.57-22.81,3.63-34.08.53-2,1-4.17,0-6-1-2-3.39-2.86-5-4.43-3.21-3.12-2.91-8.28-2.27-12.72a287.77,287.77,0,0,1,6.7-32.89c1.63-6.13,3.5-12.32,7-17.59,3.89-5.8,9.54-10.13,14.83-14.68a175.78,175.78,0,0,0,51.33-75.76c2.17-6.32,4.1-13,8.59-18s12.47-7.5,17.93-3.65c3.89,2.73-12,28.33-13.88,31.4-5.3,8.77-5.37,16.4-8.37,26.14C391.35,1553.2,375.75,1574.56,374.35,1600.13Z" transform="translate(-73.61 -1035.43)"/><path class="cls-3" d="M355.84,1611c3.47-9,7-18.08,8.12-27.65,1.27-10.63-.41-21.5,1.4-32.06,2.34-13.56,10.25-25.5,14.16-38.69,2.83-9.53,3.53-19.55,5.22-29.34,4.86-28,18-55.38,14.25-83.56-.82-6.13-3.59-13.27-9.67-14.32-5.51-.94-10.52,4.09-11.95,9.5s-.37,11.12,0,16.71a69,69,0,0,1-12.35,44.22c-8.65,12.24-21.2,21.45-29,34.27-9.55,15.71-10.85,34.89-15.72,52.63-9.69,35.28-34,66-38.42,102.37-1.77,14.45,1.63,32,15,37.79C335.46,1699.59,347.1,1633.62,355.84,1611Z" transform="translate(-73.61 -1035.43)"/><path class="cls-8" d="M288.41,1655.79H199.88a9.39,9.39,0,0,0-9.12,11.56L223,1803.43a9.39,9.39,0,0,0,9.12,7.22H338.49a9.38,9.38,0,0,0,9.12-7.22l32.27-136.08a9.38,9.38,0,0,0-9.12-11.56Z" transform="translate(-73.61 -1035.43)"/><rect class="cls-16" y="773.39" width="2824.51" height="18.52"/><path class="cls-17" d="M489.41,1568.43" transform="translate(-73.61 -1035.43)"/><path class="cls-18" d="M979.18,1423c-82-160.49-70.43-194-107.1-256.86s-88.23-139.53-206.88-126.78" transform="translate(-73.61 -1035.43)"/><path class="cls-18" d="M928.63,1590.1" transform="translate(-73.61 -1035.43)"/><path class="cls-18" d="M555.78,1119c-79.37,135.15-37.59,337,25.05,393.11" transform="translate(-73.61 -1035.43)"/><path class="cls-18" d="M1452,1317.67s-8.32-199.88,210.84-250.28" transform="translate(-73.61 -1035.43)"/><line class="cls-18" x1="1914.67" y1="31.97" x2="2331.89" y2="32.07"/><line class="cls-18" x1="1588.89" y1="364.07" x2="2075.95" y2="367.12"/><path class="cls-18" d="M2374.2,1402.54s145.85,24.1,204.08-134.47" transform="translate(-73.61 -1035.43)"/><path class="cls-18" d="M1927.5,1584.5h-381s-11.9-185.88-52.45-236.94" transform="translate(-73.61 -1035.43)"/><line class="cls-18" x1="2044.27" y1="542.52" x2="2435.89" y2="542.07"/><path class="cls-18" d="M1424.41,1599.34s69.09,104.16,70.09,166.16c0,0-7.17,55.15,31.41,52.57" transform="translate(-73.61 -1035.43)"/></svg>