<?xml version="1.0" encoding="utf-8"?>
<!-- Generator: Adobe Illustrator 24.1.1, SVG Export Plug-In . SVG Version: 6.00 Build 0)  -->
<svg version="1.1" id="Layer_1" xmlns="http://www.w3.org/2000/svg" xmlns:xlink="http://www.w3.org/1999/xlink" x="0px" y="0px"
	 viewBox="0 0 512 512" style="enable-background:new 0 0 512 512;" xml:space="preserve">
<style type="text/css">
	.st0{fill:#F7F7F7;}
	.st1{fill:#A3A3A3;}
</style>
<circle class="st0" cx="286" cy="298.7" r="186.6"/>
<g>
	<rect x="152.9" y="278.7" class="st1" width="10.5" height="10.5"/>
	<rect x="236.9" y="399.5" class="st1" width="21" height="10.5"/>
	<path class="st1" d="M378.7,330.7l-10.5-120.8c-0.2-2.7-2.5-4.8-5.2-4.8h-0.1c-7.7,0-15.2,2.8-20.9,8v-29c0-12.9-4.8-25.4-13.4-35
		l-7.8,7c6.9,7.7,10.7,17.7,10.7,28v74.2l-16.8-9.6l-7.5-18.8l1.9-1.4c4.1-3.1,6.7-7.6,7.2-12.7l4.6-41.6c0.3-2.9-1.8-5.5-4.6-5.8
		c-0.5-0.1-1.1,0-1.6,0.1l-40.3,8.1c-9.6,1.9-16,11-14.6,20.6l2.7,19.1c0.7,4.8,3.3,9.2,7.2,12.1l2.1,1.6l-7.5,18.8l-16.8,9.6v-74.2
		c0-23.2,18.8-42,42-42c8.3,0,16.4,2.5,23.3,7.1l5.8-8.7c-24.1-16.1-56.7-9.6-72.9,14.5c-5.8,8.6-8.8,18.8-8.8,29.2v79
		c-0.9-0.1-1.7-0.2-2.6-0.2h-7.9v-0.7c0-4.9-3.1-9.3-7.7-11.1l-35.6-13.3l-6.6-16.6l4.2-2.5c5.5-3.3,8.9-9.3,8.9-15.8v-38.2
		c3.4-5.2,5.3-11.2,5.3-17.4v-10.5c0-2.9-2.4-5.3-5.3-5.3h-46.5c-14.9,0-27,12.1-27.1,27.1v15c0,2.9,2.4,5.3,5.3,5.3h5.3V203
		c0,6.5,3.4,12.4,8.9,15.8l4.2,2.5l-6.6,16.6l-22.2,8.3v-9.5c0-17.4-14.1-31.5-31.5-31.5c0,0,0,0-0.1,0c-2.7,0-5,2.1-5.2,4.8
		L63.6,330.7c-0.1,1.2,0.2,2.3,0.8,3.3l23.6,36.8l8.8-5.7l-22.7-35.3l9.9-113.7c9.5,2.2,16.2,10.7,16.2,20.4v78.8
		c0,0.8,0.2,1.6,0.6,2.3l26.3,52.5l9.4-4.7l-23.7-47.3c11-3.3,22.9,0.5,30,9.5l23,29.9c8,10.4,10.5,24,6.7,36.6l-8.9,29.5
		c-0.1,0.5-0.2,1-0.2,1.5v21.4h10.5v-20.7l8.7-28.7c2.5-8.3,2.9-17.1,1.1-25.5l20-8l13.3,17.8c1.7,2.3,5,2.8,7.4,1.1
		c0.4-0.3,0.8-0.7,1.1-1.1l13.3-17.8l20,8c-1.8,8.5-1.4,17.2,1.1,25.5l8.7,28.8v20.7H279v-21.4c0-0.5-0.1-1-0.2-1.5l-8.9-29.5
		c-3.8-12.6-1.3-26.2,6.7-36.6l23-29.9c7-9.1,19-12.9,30-9.5l-23.7,47.3l9.4,4.7l26.3-52.5c0.4-0.7,0.6-1.5,0.6-2.3v-78.8
		c0-9.8,6.7-18.2,16.2-20.4l9.9,113.7l-46.3,72c-0.5,0.8-0.8,1.8-0.8,2.8v42h10.5v-40.5l46.4-72.2
		C378.6,333.1,378.8,331.9,378.7,330.7z M289.5,238.6c3.1,0,6.2-0.8,8.9-2.3l6.1,15.2l-15,18.7l-15-18.7l6.1-15.2
		C283.3,237.8,286.4,238.6,289.5,238.6z M276.4,186.8l33.3-6.7l-3.8,34.5c-0.2,2.2-1.4,4.1-3.1,5.4l0,0l-8.6,6.4
		c-2.8,2.1-6.6,2.1-9.5,0L276,220c-1.7-1.2-2.8-3.1-3.1-5.2l-2.7-19.1C269.6,191.6,272.3,187.7,276.4,186.8z M221.9,335.2
		c-0.4,0.2-0.9,0.2-1.4,0l-19.7-11.8c-0.4-0.2-0.6-0.7-0.6-1.1v-23.7l0.2,0.1c9.6,7,23.7,10.8,41.8,11.4v12.1c0,0.5-0.2,0.9-0.6,1.1
		L221.9,335.2z M242.2,281.3v18.3c-33.3-1.2-40.8-14-42-16.6v-1.7c0-4.3,3.5-7.9,7.9-7.9h26.3C238.7,273.4,242.2,277,242.2,281.3z
		 M158.2,229.2c3.3,0,6.5-0.9,9.3-2.5l5.6,13.9l-14.8,14.8l-14.8-14.8l5.6-13.9C151.7,228.4,154.9,229.2,158.2,229.2z M126.6,158.7
		c0-9.1,7.4-16.5,16.5-16.5h41.2v5.3c0,11.6-9.4,21-21,21h-36.8V158.7z M137.2,203v-24.1h26.3c5.5,0,11-1.5,15.8-4.2V203
		c0,2.8-1.5,5.3-3.8,6.8l-13.1,7.9c-2.5,1.5-5.6,1.5-8.1,0l-13.1-7.9C138.6,208.3,137.2,205.7,137.2,203L137.2,203z M174.2,351.3
		l-23-29.9c-9.5-12.2-25.4-17.6-40.3-13.5v-50.6l24.9-9.4l18.6,18.6c2.1,2.1,5.4,2.1,7.4,0c0,0,0,0,0,0l18.6-18.6l34.6,13
		c0.5,0.2,0.9,0.7,0.9,1.2v0.7h-7.9c-10.1,0-18.4,8.2-18.4,18.4v40.9c0,4.1,2.2,8,5.7,10.1l9.5,5.7l-3.9,15.5l-20.6,8.2
		C178.8,358.1,176.7,354.5,174.2,351.3z M221.2,369.7l-10.1-13.4l3.2-12.6l0.8,0.5c3.7,2.2,8.4,2.2,12.2,0l0.8-0.5l3.2,12.6
		L221.2,369.7z M291.2,321.4l-23,29.9c-2.5,3.2-4.6,6.8-6.2,10.5l-20.6-8.2l-3.9-15.5l9.5-5.7c3.6-2.1,5.7-6,5.7-10.1v-40.9
		c0-4.2-1.4-8.3-4.1-11.5l18.5-10.6l18.2,22.8c1.8,2.3,5.1,2.6,7.4,0.8c0.3-0.2,0.6-0.5,0.8-0.8l18.2-22.8l19.7,11.3v37.5
		C316.6,303.9,300.6,309.2,291.2,321.4L291.2,321.4z"/>
	<path class="st1" d="M103.7,375.6l-8.8,5.7l16,25v40.5h10.5v-42c0-1-0.3-2-0.8-2.8L103.7,375.6z"/>
</g>
</svg>
