<svg id="Layer_1" data-name="Layer 1" xmlns="http://www.w3.org/2000/svg" viewBox="0 0 322.52 241.07"><defs><style>.cls-1{fill:#c4c4c4;opacity:0.38;}.cls-2{fill:none;stroke:#606060;stroke-linecap:round;stroke-width:5px;}.cls-10,.cls-2,.cls-4,.cls-7{stroke-miterlimit:10;}.cls-3{fill:#d0cfd1;}.cls-4,.cls-7{fill:#efefef;}.cls-10,.cls-4,.cls-7{stroke:#515051;}.cls-4{stroke-width:2px;}.cls-5{fill:#fff;}.cls-6{fill:#515051;}.cls-10,.cls-7{stroke-width:3px;}.cls-10,.cls-8{fill:#f9f9f9;}.cls-9{fill:#243762;}.cls-11{fill:#ecf1f7;}</style></defs><path class="cls-1" d="M420.24,602s-1,13,35.6,15.92,56.43,1.92,86,12,66.21,3.36,90-3.36S706.92,602.37,733,602Z" transform="translate(-412.94 -393.96)"/><line class="cls-2" x1="2.5" y1="208.01" x2="320.02" y2="208.01"/><circle class="cls-3" cx="188.07" cy="82.08" r="80.71"/><path class="cls-4" d="M664.13,526.38a.75.75,0,0,1-.57-.15.78.78,0,0,1-.14-1.08,79.93,79.93,0,0,0-126.78-97.39.77.77,0,0,1-1.22-.94,81.47,81.47,0,1,1,129.22,99.27A.8.8,0,0,1,664.13,526.38Z" transform="translate(-412.94 -393.96)"/><circle class="cls-5" cx="188.07" cy="82.08" r="61.41"/><path class="cls-4" d="M609.1,537.7a62.19,62.19,0,0,1-16.17-123.32.77.77,0,0,1,.2,1.53A60.64,60.64,0,1,0,608.9,536.17a.76.76,0,0,1,.86.66A.77.77,0,0,1,609.1,537.7Z" transform="translate(-412.94 -393.96)"/><path class="cls-6" d="M616.4,486.76l-16.71.26a6.23,6.23,0,0,1-6.31-6.12L593,457.74a5.4,5.4,0,0,1,10.8-.17l.28,18.58,12.13-.19a5.4,5.4,0,0,1,.17,10.8Z" transform="translate(-412.94 -393.96)"/><path class="cls-7" d="M480.42,520.13,577.93,595A43.55,43.55,0,0,0,639,587l9-11.66a10,10,0,0,0-1.84-14.09L606.31,530.7a10.05,10.05,0,0,0-14.09,1.85l-15.29,19.9a3.56,3.56,0,0,1-5,.65L523.7,516a3.52,3.52,0,0,1-.64-4.92l15.07-19.62a10.05,10.05,0,0,0-1.85-14.09L495.41,446a10,10,0,0,0-14,1.71l-8.55,10.73A43.56,43.56,0,0,0,480.42,520.13Z" transform="translate(-412.94 -393.96)"/><path class="cls-8" d="M475.27,459.92,530.06,502l1.44-1.88,6.63-8.62a10.05,10.05,0,0,0-1.85-14.09L495.41,446a10,10,0,0,0-14,1.71l-8.55,10.73Z" transform="translate(-412.94 -393.96)"/><path class="cls-9" d="M530.2,503.08l-55.36-42.53-3.11-1.88,9.1-11.42a10.86,10.86,0,0,1,15.05-1.84l40.87,31.39a10.83,10.83,0,0,1,2,15.17ZM474,458.26l1.71,1.05,54.18,41.61,7.6-9.89a9.28,9.28,0,0,0-1.71-13l-40.87-31.39A9.33,9.33,0,0,0,482,448.21Z" transform="translate(-412.94 -393.96)"/><rect class="cls-10" x="80.46" y="170.45" width="63.36" height="18.56" rx="6.04"/><rect class="cls-10" x="70.46" y="189.45" width="63.36" height="18.56" rx="6.04"/><rect class="cls-10" x="444.24" y="557.41" width="69.41" height="18.56" rx="6.04" transform="translate(-638.68 404.97) rotate(-68.04)"/><path class="cls-8" d="M586.51,543.87,641.3,586l1.44-1.88,6.62-8.63a10,10,0,0,0-1.84-14.09L606.65,530a10,10,0,0,0-14,1.71l-8.55,10.74Z" transform="translate(-412.94 -393.96)"/><path class="cls-9" d="M641.44,587l-55.37-42.53-3.1-1.89,9.09-11.42a10.89,10.89,0,0,1,15.06-1.84L648,560.75a10.84,10.84,0,0,1,2,15.17Zm-56.17-44.83,1.71,1,54.17,41.61,7.6-9.89a9.29,9.29,0,0,0-1.7-13l-40.87-31.39a9.33,9.33,0,0,0-12.91,1.58Z" transform="translate(-412.94 -393.96)"/><line class="cls-11" x1="65.29" y1="59.76" x2="98.68" y2="85.4"/><path class="cls-9" d="M511.72,480.13a.79.79,0,0,1-.57-.16l-33.39-25.64a.78.78,0,0,1-.14-1.08.77.77,0,0,1,1.08-.14l33.39,25.64a.78.78,0,0,1,.14,1.08A.8.8,0,0,1,511.72,480.13Z" transform="translate(-412.94 -393.96)"/><line class="cls-11" x1="198.08" y1="161.76" x2="231.47" y2="187.41"/><path class="cls-9" d="M644.51,582.13a.74.74,0,0,1-.57-.15l-33.39-25.65a.77.77,0,1,1,.94-1.22l33.39,25.64a.78.78,0,0,1,.14,1.09A.83.83,0,0,1,644.51,582.13Z" transform="translate(-412.94 -393.96)"/></svg>